<?xml version="1.0" standalone="no"?>
<!DOCTYPE svg PUBLIC "-//W3C//DTD SVG 1.1//EN" "http://www.w3.org/Graphics/SVG/1.1/DTD/svg11.dtd" >
<svg xmlns="http://www.w3.org/2000/svg" xmlns:xlink="http://www.w3.org/1999/xlink" version="1.1">
<metadata>
Created by FontForge 20170731 at Tue Aug 29 23:09:11 2023
 By Aleksey,,,
Copyright (c) 2016 by THOMAS GILLETT. All rights reserved.
</metadata>
<defs>
<font id="Gordita-MediumItalic" horiz-adv-x="1280" >
  <font-face 
    font-family="Gordita Medium"
    font-weight="500"
    font-style="italic"
    font-stretch="normal"
    units-per-em="2048"
    panose-1="0 0 0 0 0 0 0 0 0 0"
    ascent="1638"
    descent="-410"
    x-height="1018"
    cap-height="1493"
    bbox="-487 -678 2773 2157"
    underline-thickness="94"
    underline-position="-284"
    unicode-range="U+000D-FB04"
  />
<missing-glyph horiz-adv-x="1523" 
d="M172 1493h1258v-1493h-1258v1493zM1346 1409h-1100l1100 -1333v1333z" />
    <glyph glyph-name="ff" unicode="ff" horiz-adv-x="1419" 
d="M1530 1018l-53 -199h-254l-215 -819h-228l215 819h-438l-215 -819h-227l215 819h-197l51 199h199l49 176q57 201 164 281q109 81 276 81q94 0 146 -24l-51 -195q-46 19 -86 19q-57 0 -103 -19q-32 -13 -53 -34q-57 -57 -84 -166l-31 -119h439l47 176q56 199 164 281
q109 81 276 81q96 0 145 -24l-51 -195q-46 19 -86 19q-53 0 -102 -19q-31 -14 -51 -34q-60 -60 -84 -166l-31 -119h254z" />
    <glyph glyph-name="fi" unicode="fi" horiz-adv-x="1286" 
d="M1272 1018l-268 -1018h-228l217 819h-436l-215 -819h-227l215 819h-197l51 199h199l49 176q57 201 164 281q109 81 276 81q94 0 146 -24l-51 -195q-46 19 -86 19q-57 0 -103 -19q-32 -13 -53 -34q-57 -57 -84 -166l-31 -119h662zM1231 1198q-59 0 -97 37.5t-38 95.5
q0 70 49 119q46 49 115 49q59 0 97 -37.5t38 -97.5q0 -70 -47 -117q-49 -49 -117 -49z" />
    <glyph glyph-name="fl" unicode="fl" horiz-adv-x="1292" 
d="M782 0l215 819h-440l-215 -819h-227l215 819h-197l51 199h199l49 176q57 201 164 281q109 81 276 81q94 0 146 -24l-51 -195q-46 19 -86 19q-57 0 -103 -19q-32 -13 -53 -34q-57 -57 -84 -166l-31 -119h441l139 534h227l-407 -1552h-228z" />
    <glyph glyph-name="ffi" unicode="ffi" horiz-adv-x="1955" 
d="M1673 0h-227l215 819h-436l-215 -819h-228l215 819h-440l-215 -819h-227l215 819h-197l51 199h199l47 176q56 200 166 281q109 81 274 81q96 0 148 -24l-51 -195q-46 19 -86 19q-57 0 -103 -19q-32 -13 -53 -34q-57 -57 -84 -166l-31 -119h441l47 176q57 201 164 281
q109 81 276 81q92 0 145 -24l-51 -195q-46 19 -86 19q-56 0 -102 -19q-32 -13 -53 -34q-59 -63 -82 -166l-31 -119h666zM1901 1198q-59 0 -97.5 37.5t-38.5 95.5q0 69 47 119q49 49 117 49q59 0 97 -37.5t38 -97.5q0 -67 -47 -117q-49 -49 -116 -49z" />
    <glyph glyph-name="ffl" unicode="ffl" horiz-adv-x="1929" 
d="M995 819h-438l-213 -819h-229l215 819h-197l51 199h201l47 176q57 201 164 281q109 81 276 81q94 0 146 -24l-51 -195q-46 19 -86 19q-57 0 -103 -19q-32 -13 -53 -34q-57 -57 -84 -166l-31 -119h441l47 176q57 201 164 281q109 81 276 81q92 0 145 -24l-51 -195
q-46 19 -86 19q-53 0 -102 -19q-28 -11 -51 -34q-57 -57 -84 -166l-33 -119h414l139 534h227l-407 -1552h-228l215 819h-413l-213 -819h-228z" />
    <glyph glyph-name=".notdef" horiz-adv-x="1523" 
d="M172 1493h1258v-1493h-1258v1493zM1346 1409h-1100l1100 -1333v1333z" />
    <glyph glyph-name=".null" horiz-adv-x="0" 
 />
    <glyph glyph-name="nonmarkingreturn" horiz-adv-x="634" 
 />
    <glyph glyph-name="NULL" horiz-adv-x="0" 
 />
    <glyph glyph-name="NULL" horiz-adv-x="0" 
 />
    <glyph glyph-name="CR" unicode="&#xd;" horiz-adv-x="503" 
 />
    <glyph glyph-name="space" unicode=" " horiz-adv-x="503" 
 />
    <glyph glyph-name="exclam" unicode="!" horiz-adv-x="600" 
d="M692 1493l-301 -1032h-198l249 1032h250zM190 -12q-59 0 -97 37t-38 96q0 67 47 117q49 49 117 49q59 0 97 -37.5t38 -95.5q0 -69 -47 -119q-47 -47 -117 -47z" />
    <glyph glyph-name="quotedbl" unicode="&#x22;" horiz-adv-x="884" 
d="M584 1270l-176 -385h-105l12 305q2 73 13 131q6 38 18 63q41 104 143 99q53 0 87 -31.5t34 -83.5q0 -39 -26 -98zM975 1270l-176 -385h-105l13 305q3 82 10 131q6 38 18 63q47 104 146 99q53 0 86.5 -31.5t33.5 -83.5q0 -39 -26 -98z" />
    <glyph glyph-name="numbersign" unicode="#" horiz-adv-x="1523" 
d="M1595 1128l-49 -184h-262l-127 -364h273l-50 -185h-288l-140 -395h-196l137 395h-373l-139 -395h-197l138 395h-246l47 185h264l127 364h-274l49 184h291l127 365h198l-127 -365h373l129 365h197l-127 -365h245zM961 580l126 364h-376l-127 -364h377z" />
    <glyph glyph-name="dollar" unicode="$" horiz-adv-x="1259" 
d="M584 -8l-49 -187h-154l57 213q-219 65 -307 254q-43 87 -43 181q0 7 1 27.5t1 27.5l229 41q0 -6 -1 -25.5t-1 -25.5q0 -100 46.5 -171t130.5 -104l118 439l-32 14q-144 63 -222 147q-77 89 -77 224q0 102 42.5 190.5t116.5 146.5q155 123 353 123q4 0 18.5 -1t24.5 -1
l51 195h153l-59 -219q80 -24 142.5 -70.5t97.5 -103.5q65 -110 65 -220l-225 -38q0 38 -21 102q-12 36 -43.5 68.5t-74.5 52.5l-115 -436l14 -7q155 -70 234 -143q96 -96 96 -246q0 -84 -36 -165t-101 -144q-64 -66 -163 -103.5t-214 -37.5q-5 0 -22.5 1t-30.5 1zM911 418
q0 63 -38.5 104t-129.5 82l-108 -405h2q117 0 192 57q82 60 82 162zM518 1081q0 -65 35 -107.5t109 -74.5l12 -6l108 407q-105 0 -184 -61q-80 -62 -80 -158z" />
    <glyph glyph-name="percent" unicode="%" horiz-adv-x="1781" 
d="M190 0l1295 1493h241l-1292 -1493h-244zM1294 -10q-130 0 -217 84q-84 84 -84 215q0 157 107 264q108 111 262 111q130 0 217 -84q86 -86 86 -218q0 -153 -109 -262q-107 -110 -262 -110zM1309 176q65 0 114 55q52 55 52 123q0 56 -34.5 89.5t-90.5 33.5q-68 0 -117 -55
t-49 -123q0 -55 34.5 -89t90.5 -34zM559 834q-130 0 -217 84q-86 83 -86 217q0 155 106 264q108 108 263 108q130 0 217 -84q86 -83 86 -215q0 -156 -107 -266q-108 -108 -262 -108zM571 1020q68 0 117 55t49 123q0 56 -33.5 89.5t-89.5 33.5q-67 0 -116 -55t-49 -123
q0 -56 33.5 -89.5t88.5 -33.5z" />
    <glyph glyph-name="ampersand" unicode="&#x26;" horiz-adv-x="1406" 
d="M1106 281l174 -281h-248l-90 141q-220 -159 -438 -159q-261 0 -379 170q-62 83 -62 200q0 201 193 344q94 71 244 129l20 9l-24 36q-52 81 -70 144q-20 53 -20 114q0 119 61 207q62 89 160 135q105 46 213 46q99 0 186.5 -43t142.5 -121q58 -82 58 -181q0 -137 -84 -233
q-86 -95 -225 -150l-103 -38l184 -304q101 118 172 246l177 -86q-24 -54 -93 -149q-73 -100 -149 -176zM303 389q0 -90 64 -145q65 -56 168 -56q65 0 159 33q95 40 152 84l-228 371l-63 -25q-102 -40 -170 -98q-82 -72 -82 -164zM692 948l23 -39l143 56q68 26 108 72.5
t40 109.5q0 76 -52 125t-129 49q-87 0 -143 -53q-57 -54 -57 -142q0 -38 14 -73q14 -38 53 -105z" />
    <glyph glyph-name="quotesingle" unicode="'" horiz-adv-x="493" 
d="M584 1270l-176 -385h-105l12 305q2 73 13 131q6 38 18 63q41 104 143 99q53 0 87 -31.5t34 -83.5q0 -39 -26 -98z" />
    <glyph glyph-name="parenleft" unicode="(" horiz-adv-x="862" 
d="M350 547q0 -215 96 -379q65 -108 97 -148q64 -83 121 -145l-123 -129q-406 335 -406 795q0 355 230 649q228 295 651 467l74 -152q-306 -136 -517 -372q-106 -122 -164.5 -273t-58.5 -313z" />
    <glyph glyph-name="parenright" unicode=")" horiz-adv-x="860" 
d="M627 860q0 160 -62 309q-29 65 -71 131q-51 79 -84 119q-38 46 -97 115l123 127q406 -335 406 -793q0 -357 -230 -651q-228 -295 -651 -467l-74 152q250 113 428 282q101 98 164 193q70 104 109 229t39 254z" />
    <glyph glyph-name="asterisk" unicode="*" horiz-adv-x="983" 
d="M1040 1198l11 -160l-277 -16l96 -258l-147 -59l-105 262l-217 -176l-100 124l215 177l-233 153l88 131l233 -151l72 274l162 -43l-76 -274z" />
    <glyph glyph-name="plus" unicode="+" horiz-adv-x="1175" 
d="M776 801l400 -2l-58 -205h-397l-105 -391h-213l105 391h-397l53 205h399l103 387l213 2z" />
    <glyph glyph-name="comma" unicode="," horiz-adv-x="573" 
d="M-31 -305l25 100q86 12 151 72q67 58 88 143q-26 -16 -63 -16q-58 0 -93.5 36t-35.5 93q0 72 51 117q47 47 119 47q74 0 119 -48t45 -124q0 -171 -117 -291q-114 -117 -289 -129z" />
    <glyph glyph-name="hyphen" unicode="-" horiz-adv-x="890" 
d="M819 735l-61 -231h-621l64 231h618z" />
    <glyph glyph-name="period" unicode="." horiz-adv-x="557" 
d="M190 -10q-65 0 -107 41.5t-42 107.5q0 78 53 131q56 56 129 56q66 0 109 -43q43 -40 43 -107q0 -75 -53 -131q-55 -55 -132 -55z" />
    <glyph glyph-name="slash" unicode="/" horiz-adv-x="1079" 
d="M1034 1554h248l-1085 -1564h-246z" />
    <glyph glyph-name="zero" unicode="0" horiz-adv-x="1497" 
d="M702 -18q-112 0 -206 36.5t-158 98.5q-54 51 -102 139q-76 149 -76 322q-3 194 76.5 393t216.5 338q95 95 217 149q122 55 262 55q127 0 232.5 -46.5t172.5 -129.5q140 -170 140 -419q0 -160 -54.5 -327t-152.5 -300q-145 -194 -344 -268q-109 -41 -224 -41zM918 1300
q-116 0 -213 -69t-166 -184q-64 -105 -98.5 -231.5t-34.5 -237.5q0 -157 69 -263q36 -56 99 -87t145 -31q119 0 216 72.5t165 191.5q63 103 96 229t33 230q0 155 -68 262q-75 118 -243 118z" />
    <glyph glyph-name="one" unicode="1" horiz-adv-x="862" 
d="M713 1493h223l-399 -1493h-234l324 1217l-334 -173l-94 183z" />
    <glyph glyph-name="two" unicode="2" horiz-adv-x="1273" 
d="M1102 211l-58 -211h-1052q30 226 153 379q124 148 344 250l285 131q119 58 127 63q62 37 103 78q67 70 67 176q0 98 -70 162q-73 61 -192 61q-143 0 -223 -86t-80 -229l-236 29q0 103 41 195.5t115 160.5t179.5 107t225.5 39q110 0 204.5 -37.5t156.5 -100.5
q123 -129 123 -293q0 -307 -400 -489l-319 -145q-86 -41 -162 -105q-77 -71 -100 -135h768z" />
    <glyph glyph-name="three" unicode="3" horiz-adv-x="1286" 
d="M565 -16q-97 0 -185 30t-156.5 84.5t-109 138t-40.5 183.5q0 29 2 43l231 29q0 -8 -1 -19t-1 -14q0 -122 80 -193q77 -71 201 -71q137 0 235 88q101 85 101 221q0 100 -72 160q-72 57 -176 57q-58 0 -117 -21l-76 197l555 387h-719l56 209h1020l-64 -244l-506 -352
q152 -21 250 -125q94 -107 94 -260q0 -123 -48 -225.5t-134 -167.5q-174 -135 -420 -135z" />
    <glyph glyph-name="four" unicode="4" horiz-adv-x="1363" 
d="M1298 543l-57 -211h-221l-88 -332h-232l88 332h-768l72 272l936 889h301l-254 -950h223zM311 543h533l180 676z" />
    <glyph glyph-name="five" unicode="5" horiz-adv-x="1245" 
d="M1157 557q0 -166 -80 -299q-82 -134 -215 -203q-136 -71 -303 -71q-220 0 -354 122q-137 125 -137 312l229 45q-6 -120 72 -195q75 -75 196 -75q142 0 246 96q100 97 100 239q0 107 -71 172q-70 70 -181 70q-82 0 -157 -37q-80 -41 -113 -74l-205 99l316 735h837
l-55 -209h-649l-168 -391q54 38 129 59q73 21 143 21q117 0 208.5 -52t141.5 -135q70 -107 70 -229z" />
    <glyph glyph-name="six" unicode="6" horiz-adv-x="1345" 
d="M1434 1425l-111 -194q-146 76 -299 76q-123 0 -232 -45.5t-194 -128.5q-59 -57 -113 -146q-49 -77 -69 -168h4q70 79 176 123q104 43 213 43q194 0 324 -121q129 -120 129 -315q0 -116 -47.5 -221.5t-129.5 -182.5q-83 -77 -192 -120t-227 -43q-230 0 -369 139
q-75 77 -109 177.5t-34 248.5q0 198 73 393q73 193 211 334q114 117 268.5 179.5t335.5 62.5q244 0 392 -91zM1022 524q0 118 -76 191q-75 69 -196 69q-92 0 -173 -40.5t-131 -114.5q-51 -74 -51 -170q0 -120 74 -191q76 -73 205 -73q143 0 246 92q102 91 102 237z" />
    <glyph glyph-name="seven" unicode="7" horiz-adv-x="1167" 
d="M1382 1493l-55 -193l-989 -1300h-275l986 1282h-789l55 211h1067z" />
    <glyph glyph-name="eight" unicode="8" horiz-adv-x="1323" 
d="M625 -16q-139 -2 -260.5 51t-193.5 148.5t-69 209.5q0 161 105 266q106 103 282 146v2q-81 39 -139 121q-55 82 -55 174q0 76 37.5 149.5t105.5 132.5q67 60 168.5 94.5t216.5 34.5q135 2 249 -48.5t180.5 -142t64.5 -202.5q0 -135 -94 -237q-92 -97 -246 -135
q221 -102 221 -326q0 -86 -41 -165.5t-115 -139.5q-75 -61 -184.5 -97t-232.5 -36zM788 858q158 0 244 107q47 59 47 135q0 90 -73 151q-75 60 -197 60q-125 0 -205 -68q-82 -70 -82 -170q0 -89 76 -153q74 -62 190 -62zM645 186q143 0 234 70q92 74 92 184q0 102 -86 170
q-83 68 -221 68q-148 0 -234 -74q-90 -75 -90 -184q0 -100 86 -168q84 -66 219 -66z" />
    <glyph glyph-name="nine" unicode="9" horiz-adv-x="1355" 
d="M1331 936q3 -234 -81.5 -436.5t-239.5 -331.5q-106 -89 -245 -137.5t-298 -48.5q-110 0 -221 24q-102 20 -189 74l111 199q151 -86 309 -86q225 0 387 137q163 138 207 348h-4q-73 -80 -176 -121q-104 -43 -213 -43q-192 -3 -325 123.5t-130 318.5q0 115 47.5 221
t128.5 179q83 75 192.5 117.5t227.5 42.5q230 0 367 -140q145 -151 145 -440zM1087 1036q0 117 -73 193q-77 74 -205 74q-143 0 -246 -95q-102 -89 -102 -237q0 -121 76 -191q75 -69 194 -69q143 0 250 94q106 90 106 231z" />
    <glyph glyph-name="colon" unicode=":" horiz-adv-x="604" 
d="M197 -10q-66 0 -108 41.5t-42 107.5q0 78 53 131q53 56 129 56q66 0 109 -43q43 -40 43 -107q0 -75 -53 -131q-55 -55 -131 -55zM387 700q-66 0 -107.5 42t-41.5 108q0 75 53 131q53 53 129 53q62 0 106 -41q43 -43 43 -108q0 -79 -53 -129q-53 -56 -129 -56z" />
    <glyph glyph-name="semicolon" unicode=";" horiz-adv-x="624" 
d="M246 866q0 70 49 119t117 49q69 0 118 -49q48 -48 48 -119q0 -68 -48 -116q-50 -50 -118 -50q-67 0 -117 50q-49 49 -49 116zM-27 -305l27 100q83 12 152 72q69 63 86 143q-22 -16 -62 -16q-58 0 -93.5 36t-35.5 93q0 71 49 117q50 47 121 47q74 0 118 -48t44 -124
q0 -170 -115 -291q-117 -117 -291 -129z" />
    <glyph glyph-name="less" unicode="&#x3c;" horiz-adv-x="1265" 
d="M90 545l43 168l1172 471l-66 -238l-844 -332l666 -333l-53 -207z" />
    <glyph glyph-name="equal" unicode="=" horiz-adv-x="1202" 
d="M1217 1069l-58 -211h-919l57 211h920zM1075 537l-57 -211h-922l58 211h921z" />
    <glyph glyph-name="greater" unicode="&#x3e;" horiz-adv-x="1269" 
d="M1255 715l-45 -168l-1169 -473l65 239l844 332l-665 332l53 207z" />
    <glyph glyph-name="question" unicode="?" horiz-adv-x="1126" 
d="M469 999l-238 27q0 132 72 248q70 111 195 176q129 66 272 66q113 0 208 -43.5t155 -122.5q59 -83 59 -187q0 -165 -88 -270q-72 -82 -195 -166q-47 -31 -78.5 -54t-68.5 -57t-62.5 -72.5t-40.5 -82.5h-210q26 176 126 276q70 70 193 146q85 53 129.5 108t44.5 142
q0 74 -55 120q-56 47 -142 47q-71 0 -127 -27t-88 -73q-61 -84 -61 -201zM465 -12q-59 0 -97 37t-38 96q0 68 49 117q46 49 115 49q59 0 97 -37.5t38 -95.5q0 -72 -47 -119t-117 -47z" />
    <glyph glyph-name="at" unicode="@" horiz-adv-x="1667" 
d="M1645 793q0 -106 -32 -207t-89 -182t-146.5 -130t-195.5 -49q-66 0 -119 33q-59 30 -80 86q-46 -52 -108 -84.5t-123 -32.5q-121 0 -199 90q-80 96 -80 215q0 114 59 220q54 99 160 166q103 65 219 65q57 0 111 -31q50 -28 65 -82l35 105h209l-143 -475q-8 -24 -8 -56
q0 -59 59 -59q63 0 117.5 36.5t89.5 98.5q72 128 72 268q0 136 -78 242q-82 111 -201 162q-122 55 -262 55q-171 1 -324.5 -82.5t-251.5 -222.5q-139 -187 -139 -428q-2 -162 71 -288.5t201.5 -194t288.5 -64.5q104 0 213.5 35.5t204.5 97.5l53 -104q-88 -67 -227 -111
q-136 -43 -254 -43q-141 0 -267 48t-218 135q-91 88 -143 212.5t-52 266.5q0 174 70 336q63 153 180 276q118 118 270 184q159 72 330 72q127 0 246 -42t211.5 -115.5t148.5 -184t56 -237.5zM1030 666q0 52 -32 85t-85 33q-84 0 -151 -73q-66 -72 -66 -158q0 -58 33 -94.5
t88 -36.5q83 -1 149.5 80t63.5 164z" />
    <glyph glyph-name="A" unicode="A" horiz-adv-x="1503" 
d="M1153 1493l229 -1493h-237l-49 350h-725l-224 -350h-262l981 1493h287zM961 1255l-455 -696h561z" />
    <glyph glyph-name="B" unicode="B" horiz-adv-x="1419" 
d="M463 1493h463q241 0 362 -100q125 -98 125 -258q0 -139 -90 -240q-89 -99 -250 -137q227 -88 227 -307q0 -203 -165 -328q-167 -123 -469 -123h-603zM913 1284h-274l-113 -424h293q143 0 242 51q117 60 117 193q0 86 -67.5 133t-197.5 47zM782 655h-309l-119 -446h344
q172 0 273 67q98 67 98 187q0 91 -75.5 141.5t-211.5 50.5z" />
    <glyph glyph-name="C" unicode="C" horiz-adv-x="1632" 
d="M823 -18q-187 0 -340 81q-146 77 -237 232q-86 151 -86 344q0 169 69 336q72 162 187 280q120 120 280 189q167 72 344 72q116 0 220.5 -31t177.5 -82q68 -50 125 -117q98 -123 120 -264l-231 -68q-8 67 -49.5 139t-110.5 124q-109 81 -272 81q-159 0 -290.5 -78
t-211.5 -206q-110 -165 -110 -367q0 -140 58 -243t159 -154q99 -51 225 -51q170 0 299 84q50 33 98 84q66 73 113 172l221 -86q-57 -137 -178 -250q-67 -65 -150 -111q-182 -110 -430 -110z" />
    <glyph glyph-name="D" unicode="D" horiz-adv-x="1564" 
d="M1542 862q0 -332 -229 -573q-134 -140 -336 -214.5t-451 -74.5h-460l395 1493h336q381 0 577 -190q168 -162 168 -441zM1300 860q0 192 -133 307q-129 111 -383 111h-145l-283 -1063h197q211 0 387 84q172 82 266 229q94 148 94 332z" />
    <glyph glyph-name="E" unicode="E" horiz-adv-x="1263" 
d="M354 211h723l-55 -211h-959l400 1493h950l-55 -211h-717l-111 -418h650l-56 -209h-651z" />
    <glyph glyph-name="F" unicode="F" horiz-adv-x="1236" 
d="M463 1493h952l-57 -215h-717l-117 -436h662l-58 -213h-661l-168 -629h-236z" />
    <glyph glyph-name="G" unicode="G" horiz-adv-x="1665" 
d="M1667 1049l-231 -72q-11 50 -41 108q-38 74 -92 121q-112 94 -289 94q-163 0 -303 -90q-143 -90 -222 -239q-81 -150 -81 -328q0 -127 46.5 -226t147.5 -159.5t246 -60.5q104 0 193.5 30t150.5 82q122 106 149 226h-540l53 210h793q-12 -166 -74 -306.5t-166 -241.5
q-105 -102 -254.5 -157.5t-329.5 -55.5q-159 0 -287.5 50.5t-209.5 141.5q-164 187 -164 455q0 150 45.5 288t128 245.5t191 187t239.5 122t270 42.5q115 0 216.5 -30.5t174.5 -80.5q73 -51 121 -111q97 -119 119 -245z" />
    <glyph glyph-name="H" unicode="H" horiz-adv-x="1593" 
d="M1665 1493l-397 -1493h-236l172 645h-733l-172 -645h-236l400 1493h233l-166 -627h734l168 627h233z" />
    <glyph glyph-name="I" unicode="I" horiz-adv-x="624" 
d="M696 1493l-397 -1493h-236l400 1493h233z" />
    <glyph glyph-name="J" unicode="J" horiz-adv-x="1183" 
d="M449 -16q-163 0 -279 96q-58 48 -90.5 127.5t-32.5 179.5q0 79 23 158l18 69l234 4l-27 -88q-21 -74 -21 -131q0 -93 52 -145.5t141 -52.5q108 0 183.5 64t105.5 175l276 1053h236l-285 -1090q-55 -205 -193 -312t-341 -107z" />
    <glyph glyph-name="K" unicode="K" horiz-adv-x="1351" 
d="M725 750l514 -750h-278l-474 709l-190 -709h-234l400 1493h233l-170 -641l752 641h330z" />
    <glyph glyph-name="L" unicode="L" horiz-adv-x="1126" 
d="M356 215h674l-57 -215h-910l400 1493h233z" />
    <glyph glyph-name="M" unicode="M" horiz-adv-x="1986" 
d="M944 352h2l770 1141h342l-399 -1493h-232l295 1112h-2l-755 -1112h-193l-176 1118h-2l-299 -1118h-232l400 1493h301z" />
    <glyph glyph-name="N" unicode="N" horiz-adv-x="1644" 
d="M733 1493l441 -1163l311 1163h231l-397 -1493h-270l-441 1163l-311 -1163h-234l400 1493h270z" />
    <glyph glyph-name="O" unicode="O" horiz-adv-x="1720" 
d="M819 -18q-192 0 -346 86q-152 87 -231 233q-82 146 -82 332q0 167 64.5 326t181.5 282q117 128 279.5 201t348.5 74q144 0 269 -49.5t213 -137.5q87 -89 135.5 -209.5t48.5 -255.5q0 -166 -65 -325t-183 -283q-165 -176 -387 -240q-118 -34 -246 -34zM846 199
q152 0 282.5 79.5t212.5 208.5q111 171 111 367q0 198 -119 320q-118 124 -321 124q-154 0 -285 -79.5t-211 -208.5q-113 -170 -113 -367q0 -194 119 -319t324 -125z" />
    <glyph glyph-name="P" unicode="P" horiz-adv-x="1329" 
d="M1407 1081q0 -161 -86 -282q-87 -121 -242 -183q-149 -61 -350 -61h-283l-147 -555h-236l400 1493h420q244 0 385 -102q139 -104 139 -310zM1165 1065q0 101 -74.5 157t-209.5 56h-240l-137 -510h239q195 0 310 80q112 80 112 217z" />
    <glyph glyph-name="Q" unicode="Q" horiz-adv-x="1722" 
d="M819 -18q-192 0 -346 86q-152 87 -231 233q-82 146 -82 332q0 167 64.5 326t181.5 282q117 128 279.5 201t348.5 74q144 0 269 -49.5t213 -137.5q87 -89 135.5 -209.5t48.5 -255.5q0 -174 -74 -342q-70 -162 -203 -295l131 -172l-188 -127l-119 168q-197 -114 -428 -114z
M846 199q140 0 272 75l-215 287l189 129l196 -274q78 94 121 208t43 230q0 198 -119 320q-118 124 -321 124q-154 0 -285 -79.5t-211 -208.5q-113 -170 -113 -367q0 -194 119 -319t324 -125z" />
    <glyph glyph-name="R" unicode="R" horiz-adv-x="1388" 
d="M1430 1092q0 -193 -119 -318q-121 -124 -328 -170l193 -604h-254l-166 567h-305l-152 -567h-236l400 1493h438q257 0 391 -104q138 -110 138 -297zM1188 1069q0 101 -75.5 155t-227.5 54h-244l-135 -502h256q196 0 311 80t115 213z" />
    <glyph glyph-name="S" unicode="S" horiz-adv-x="1259" 
d="M918 414q0 66 -46 112q-46 43 -147 86l-141 62q-148 66 -224 151q-79 85 -79 226q0 102 43.5 191t117.5 151q159 123 357 123q105 0 194.5 -28.5t147.5 -74.5q50 -42 90 -104q65 -103 65 -219l-229 -37q0 53 -23 106q-13 34 -45 70q-30 33 -86 54.5t-127 21.5
q-106 0 -186 -62t-80 -158q0 -66 36 -109t110 -75l161 -72q147 -62 234 -145q98 -91 98 -248q0 -86 -36 -166.5t-101 -144.5q-66 -66 -166 -103.5t-215 -37.5q-173 0 -305 69q-141 75 -207 213q-43 90 -43 185q0 18 2 55l231 41q-2 -16 -2 -51q0 -140 91 -222
q90 -81 233 -81q114 0 197 59q80 56 80 162z" />
    <glyph glyph-name="T" unicode="T" horiz-adv-x="1251" 
d="M1485 1493l-60 -215h-473l-342 -1278h-233l340 1278h-473l57 215h1184z" />
    <glyph glyph-name="U" unicode="U" horiz-adv-x="1505" 
d="M690 -18q-235 0 -368 118q-136 121 -136 330q0 99 31 217l225 846h236l-236 -879q-18 -73 -18 -151q0 -118 76 -191q77 -71 213 -71q149 0 253.5 98t155.5 289l240 905h235l-251 -940q-151 -571 -656 -571z" />
    <glyph glyph-name="V" unicode="V" horiz-adv-x="1470" 
d="M1430 1493h266l-959 -1493h-270l-164 1493h250l113 -1219z" />
    <glyph glyph-name="W" unicode="W" horiz-adv-x="2248" 
d="M1368 0l-78 1151l-641 -1151h-268l-84 1493h244l51 -1171l643 1171h254l82 -1171l629 1171h258l-822 -1493h-268z" />
    <glyph glyph-name="X" unicode="X" horiz-adv-x="1396" 
d="M1624 1493l-715 -737l361 -756h-273l-260 588l-544 -588h-310l754 780l-340 713h266l246 -543l506 543h309z" />
    <glyph glyph-name="Y" unicode="Y" horiz-adv-x="1415" 
d="M1360 1493h285l-805 -915l-156 -578h-235l159 602l-307 891h256l219 -680z" />
    <glyph glyph-name="Z" unicode="Z" horiz-adv-x="1265" 
d="M1116 209l-57 -209h-1116l53 203l1083 1081h-762l56 209h1063l-54 -201l-1087 -1083h821z" />
    <glyph glyph-name="bracketleft" unicode="[" horiz-adv-x="819" 
d="M604 -59l-49 -181h-563l506 1893h563l-47 -178h-352l-410 -1534h352z" />
    <glyph glyph-name="backslash" unicode="\" horiz-adv-x="1013" 
d="M823 -10h-209l-278 1564h209z" />
    <glyph glyph-name="bracketright" unicode="]" horiz-adv-x="819" 
d="M942 1653l-506 -1893h-563l47 181h352l410 1534h-352l49 178h563z" />
    <glyph glyph-name="asciicircum" unicode="^" horiz-adv-x="1171" 
d="M950 1493l246 -633h-221l-154 416l-372 -416h-254l579 633h176z" />
    <glyph glyph-name="underscore" unicode="_" horiz-adv-x="1026" 
d="M860 -133l-55 -203h-1026l55 203h1026z" />
    <glyph glyph-name="grave" unicode="`" horiz-adv-x="436" 
d="M592 1192h-176l-191 328h264z" />
    <glyph glyph-name="a" unicode="a" 
d="M481 -16q-179 0 -286 122q-109 124 -109 310q0 130 49 246q45 113 127 198q79 83 182.5 130.5t210.5 47.5q116 0 204.5 -47.5t135.5 -128.5l43 156h226l-220 -832q-21 -79 -24 -151v-35h-225q-3 15 0 37q0 36 10 84q-149 -137 -324 -137zM940 582q0 111 -74 182
q-73 70 -182 70q-99 2 -182.5 -54t-129.5 -149t-44 -199q0 -109 67 -176q67 -70 176 -70q86 0 174 54q89 55 140 143q55 88 55 199z" />
    <glyph glyph-name="b" unicode="b" 
d="M637 -16q-125 0 -211.5 50.5t-130.5 139.5l-47 -174h-221l407 1552h228l-173 -657q140 143 320 143q176 0 287 -120q108 -120 108 -312q0 -132 -49 -248q-48 -117 -129 -198q-79 -82 -181.5 -129t-207.5 -47zM618 186q146 0 250 119q105 114 105 281q0 112 -68 180
t-174 68q-93 3 -180 -52.5t-140 -149t-51 -194.5q0 -107 70 -180q72 -72 188 -72z" />
    <glyph glyph-name="c" unicode="c" horiz-adv-x="1173" 
d="M573 -18q-217 0 -350 127q-135 129 -135 335q0 156 82 293t219 219t293 82q99 0 183 -28t139 -76q106 -93 131 -217l-209 -64q-12 68 -78 125q-65 56 -180 56q-71 0 -137 -33.5t-111 -89.5q-46 -54 -72 -122.5t-26 -135.5q0 -123 69 -195q75 -72 195 -72q118 0 196 68
q60 50 99 119l196 -72q-53 -119 -176 -213q-138 -106 -328 -106z" />
    <glyph glyph-name="d" unicode="d" 
d="M1178 1552h227l-361 -1366q-21 -79 -24 -151v-35h-223q-3 18 0 39q3 48 10 84q-148 -139 -326 -139q-179 0 -286 122q-109 124 -109 310q0 130 49 246q45 113 127 198q79 83 182.5 130.5t210.5 47.5q117 0 205 -48t135 -130zM940 582q0 110 -72 182q-76 70 -184 70
q-99 2 -182.5 -54t-129.5 -149t-44 -199q0 -109 67 -176q67 -70 176 -70q89 0 177 54q85 54 139 143q53 92 53 199z" />
    <glyph glyph-name="e" unicode="e" horiz-adv-x="1169" 
d="M1079 442h-764q-6 -123 72 -197t197 -71q97 0 164 47q71 52 104 111l178 -88q-49 -99 -160 -176q-122 -84 -303 -84q-134 -3 -243.5 52.5t-173.5 161.5t-62 242q0 160 82 297q81 136 217 219q134 82 289 82q195 0 311 -116q119 -122 119 -314q0 -66 -27 -166zM662 844
q-111 0 -193 -64q-89 -65 -123 -166h533q2 4 2 23q0 98 -59 152.5t-160 54.5z" />
    <glyph glyph-name="f" unicode="f" horiz-adv-x="755" 
d="M641 1137l-31 -119h254l-51 -199h-256l-215 -819h-227l215 819h-197l51 199h199l49 176q57 201 164 281q109 81 276 81q94 0 146 -24l-51 -195q-46 19 -86 19q-57 0 -103 -19q-32 -13 -53 -34q-57 -57 -84 -166z" />
    <glyph glyph-name="g" unicode="g" 
d="M1001 856l41 162h224l-277 -1049q-62 -225 -209 -352q-148 -127 -381 -127q-92 0 -173.5 25.5t-135.5 68.5q-53 42 -92 99q-72 102 -72 215l217 43q0 -86 60 -164q64 -84 200 -84q141 0 231.5 74.5t129.5 216.5l41 155q-142 -127 -322 -127q-167 0 -278 123
q-113 119 -113 305q0 126 47 234q45 106 125 190q79 81 182 127.5t209 46.5q123 0 209 -51q91 -52 137 -131zM932 594q0 108 -66 174q-65 68 -182 68q-145 0 -248 -109q-102 -108 -102 -266q0 -107 67 -174q66 -72 174 -72q67 0 132.5 29.5t115.5 81.5q50 50 79.5 121.5
t29.5 146.5z" />
    <glyph glyph-name="h" unicode="h" horiz-adv-x="1206" 
d="M1081 553l-145 -553h-227l147 559q14 49 14 100q0 80 -48 122t-134 42q-104 0 -180 -73q-81 -78 -107 -185l-147 -565h-229l409 1552h228l-170 -649q147 135 303 135q147 0 233 -86q84 -84 84 -223q0 -61 -31 -176z" />
    <glyph glyph-name="i" unicode="i" horiz-adv-x="534" 
d="M520 1018l-268 -1018h-227l268 1018h227zM479 1198q-59 0 -97 37.5t-38 95.5q0 70 49 119q46 49 115 49q59 0 98 -38t39 -97q0 -68 -49 -117t-117 -49z" />
    <glyph glyph-name="j" unicode="j" horiz-adv-x="550" 
d="M0 -150l307 1168h230l-322 -1221q-39 -153 -121 -227t-225 -74q-110 0 -172 33l49 188q46 -16 82 -16q135 0 172 149zM496 1198q-59 0 -97.5 37.5t-38.5 95.5q0 69 50 119q46 49 114 49q59 0 97 -37.5t38 -97.5q0 -67 -47 -117q-49 -49 -116 -49z" />
    <glyph glyph-name="k" unicode="k" horiz-adv-x="1105" 
d="M627 532l356 -532h-270l-322 508h-4l-133 -508h-227l407 1552h228l-244 -927h4l479 393h330z" />
    <glyph glyph-name="l" unicode="l" horiz-adv-x="536" 
d="M662 1552l-410 -1552h-227l409 1552h228z" />
    <glyph glyph-name="m" unicode="m" horiz-adv-x="1851" 
d="M1729 553l-148 -553h-227l147 559q15 55 15 100q0 78 -45 121t-125 43q-103 0 -179 -73q-72 -75 -102 -187l-147 -563h-228l150 559q12 56 12 100q0 78 -44 121t-122 43q-107 0 -180 -73q-76 -79 -105 -187l-147 -563h-227l268 1018h221l-31 -119q142 139 303 139
q97 0 170 -43q77 -46 101 -131q152 174 385 174q144 0 229 -82q86 -83 86 -227q0 -62 -30 -176z" />
    <glyph glyph-name="n" unicode="n" horiz-adv-x="1206" 
d="M1081 553l-145 -553h-227l147 559q14 49 14 100q0 80 -48 122t-134 42q-104 0 -180 -73q-81 -78 -107 -185l-147 -565h-227l266 1018h223l-33 -119q148 139 312 139q147 0 233 -86q84 -84 84 -223q0 -61 -31 -176z" />
    <glyph glyph-name="o" unicode="o" horiz-adv-x="1236" 
d="M682 1038q211 0 344 -127q133 -124 133 -338q0 -152 -80 -288q-81 -138 -217 -219q-141 -84 -297 -84q-209 0 -342 127q-135 126 -135 333q0 121 47 226q45 105 127 190q83 83 191 131q110 49 229 49zM580 186q91 0 176 60q82 57 127 143q45 92 45 178q0 125 -72 197
q-70 70 -188 70q-71 0 -138 -33.5t-112 -89.5q-99 -124 -99 -258q0 -123 72 -195q75 -72 189 -72z" />
    <glyph glyph-name="p" unicode="p" 
d="M637 -16q-244 0 -338 186l-178 -672h-227l401 1520h221l-35 -127q144 147 328 147q176 0 287 -120q108 -120 108 -312q0 -130 -47 -248q-48 -117 -129 -198q-80 -82 -183 -129t-208 -47zM618 186q146 0 250 119q105 114 105 281q0 112 -68 180t-174 68q-92 3 -179 -52.5
t-140.5 -149t-51.5 -194.5q0 -107 70 -180q72 -72 188 -72z" />
    <glyph glyph-name="q" unicode="q" 
d="M862 -502h-227l164 621q-144 -135 -320 -135q-177 0 -284 122q-109 124 -109 310q0 130 49 246q45 113 127 198q79 83 182.5 130.5t210.5 47.5q118 0 207.5 -49t136.5 -133l43 162h222zM571 186q86 0 174 54q89 55 140 143q55 88 55 199t-74 182q-73 70 -182 70
q-99 2 -182.5 -54t-129.5 -149t-44 -199q0 -109 67 -176q67 -70 176 -70z" />
    <glyph glyph-name="r" unicode="r" horiz-adv-x="753" 
d="M852 1020l-64 -240q-62 15 -83 15q-110 0 -197 -78q-90 -81 -119 -199l-135 -518h-227l268 1018h221l-35 -133q69 74 140 107.5t157 33.5q47 0 74 -6z" />
    <glyph glyph-name="s" unicode="s" horiz-adv-x="952" 
d="M582 281q0 71 -97 116l-108 49q-107 49 -160 112t-53 151q0 135 104 233q107 96 275 96q79 0 145.5 -20.5t108.5 -54.5q38 -30 65 -74q47 -77 47 -156l-198 -33q0 57 -44 107.5t-128 50.5q-69 0 -108.5 -35t-39.5 -84q0 -68 74 -98l129 -57q223 -96 223 -277
q0 -117 -94 -219q-47 -49 -125 -78.5t-170 -29.5q-273 0 -365 188q-28 64 -28 125q0 16 2 22l196 35v-16q0 -73 56 -123q58 -49 137 -49q70 0 113 37t43 82z" />
    <glyph glyph-name="t" unicode="t" horiz-adv-x="798" 
d="M598 1018h254l-53 -205h-254l-121 -467q-10 -42 -10 -61q0 -36 20 -58.5t47 -27.5q18 -4 66 -4q42 0 88 10l-53 -193q-77 -22 -129 -22q-131 0 -204 63.5t-73 186.5q0 15 19 104l122 469h-194l53 205h197l82 315h227z" />
    <glyph glyph-name="u" unicode="u" horiz-adv-x="1208" 
d="M963 1018h227l-217 -832q-21 -73 -27 -151v-35h-225v37q10 81 10 82q-142 -139 -309 -139q-149 0 -232 86q-86 86 -86 223q0 57 29 176l148 553h227l-150 -559q-10 -39 -10 -101q0 -81 47 -122t133 -41q105 0 181 73t106 185z" />
    <glyph glyph-name="v" unicode="v" horiz-adv-x="1142" 
d="M410 1018l98 -752l496 752h245l-694 -1018h-227l-156 1018h238z" />
    <glyph glyph-name="w" unicode="w" horiz-adv-x="1673" 
d="M434 305h2l420 713h229l41 -717h2l408 717h238l-594 -1018h-238l-45 709h-4l-422 -709h-235l-60 1018h234z" />
    <glyph glyph-name="x" unicode="x" horiz-adv-x="1085" 
d="M1186 1018l-506 -510l252 -508h-256l-162 346l-334 -346h-282l528 526l-250 492h254l158 -328l317 328h281z" />
    <glyph glyph-name="y" unicode="y" horiz-adv-x="1140" 
d="M1001 1018h246l-991 -1520h-252l334 508l-166 1012h231l113 -758z" />
    <glyph glyph-name="z" unicode="z" horiz-adv-x="1001" 
d="M840 197l-52 -197h-835l49 188l703 631h-521l52 199h815l-47 -180l-717 -641h553z" />
    <glyph glyph-name="braceleft" unicode="{" horiz-adv-x="847" 
d="M174 195l86 211q58 144 -35 186q-51 20 -143 20h-10l49 185h8q55 0 101.5 11.5t88 37t68 72.5t33.5 112l24 209q20 149 73.5 236t148.5 129q114 49 311 49h108l-49 -180h-86q-167 0 -241 -91q-38 -47 -54 -147q-7 -33 -14 -98l-16 -152q-13 -93 -70 -166
q-67 -93 -227 -117q56 -12 93.5 -39t54 -60.5t20 -73.5t-3.5 -76t-21 -72l-59 -139q-37 -95 -43 -113q-14 -49 -19 -82q-3 -43 15 -61q45 -45 182 -45h88l-49 -181h-88q-110 0 -189.5 25t-128.5 77.5t-50.5 135t44.5 197.5z" />
    <glyph glyph-name="bar" unicode="|" horiz-adv-x="587" 
d="M725 1700l-514 -1921h-213l512 1921h215z" />
    <glyph glyph-name="braceright" unicode="}" horiz-adv-x="845" 
d="M791 1217l-86 -209q-62 -145 34 -187q51 -20 144 -20h8l-47 -185h-10q-55 0 -101 -11.5t-87.5 -37t-68.5 -72.5t-34 -112l-23 -209q-20 -150 -73.5 -236t-149.5 -128q-116 -50 -309 -50h-111l49 181h86q167 0 244 90q37 45 53 147q3 12 5 27t5 36l5 35l16 152
q12 91 68 166q71 94 227 115v2q-69 15 -109.5 52t-50.5 84.5t-5.5 93.5t22.5 91l59 139q30 67 45 113q13 42 18 82q3 45 -16 61q-46 43 -182 43h-88l49 183h90q110 0 189 -24.5t127.5 -77.5t50.5 -135.5t-43 -198.5z" />
    <glyph glyph-name="asciitilde" unicode="~" horiz-adv-x="1212" 
d="M811 393q-51 0 -106 27q-46 17 -99 53q-57 38 -88 53q-52 25 -90 25q-88 0 -160 -90l-121 123q120 182 293 182q58 0 119 -25q54 -21 100 -55q57 -38 86 -53q48 -25 80 -25q84 0 160 88l121 -123q-124 -180 -295 -180z" />
    <glyph glyph-name="uni00A0" unicode="&#xa0;" horiz-adv-x="503" 
 />
    <glyph glyph-name="exclamdown" unicode="&#xa1;" horiz-adv-x="567" 
d="M406 1038q59 0 97 -37.5t38 -95.5q0 -71 -49 -117q-46 -49 -115 -49q-60 0 -97.5 37t-37.5 96q0 72 47 119t117 47zM403 563l-249 -1030h-250l301 1032z" />
    <glyph glyph-name="cent" unicode="&#xa2;" horiz-adv-x="1218" 
d="M791 817l-166 -629q103 6 178 70q62 53 90 115l199 -72q-27 -59 -71 -112.5t-105.5 -101.5t-147 -76.5t-180.5 -28.5h-15l-47 -177h-145l51 197q-153 41 -242 158q-88 120 -88 284q0 156 82 293q77 134 219 219q134 82 293 82h11l45 176h145l-51 -194q130 -36 205 -119
q78 -85 96 -184l-207 -64q-9 52 -48 97t-101 67zM336 453q0 -92 39.5 -156t113.5 -92l164 629q-131 -12 -225 -129q-92 -118 -92 -252z" />
    <glyph glyph-name="sterling" unicode="&#xa3;" horiz-adv-x="1314" 
d="M1290 1098l-231 -27q4 24 4 35q0 83 -53 139q-53 53 -138 53q-67 0 -119.5 -26.5t-83 -71t-46 -96.5t-15.5 -109q0 -54 13 -137h407l-53 -194h-338q-6 -142 -82 -267q-78 -129 -195 -186h371q104 0 171.5 56t86.5 159l221 -41q-35 -181 -157 -283q-123 -102 -308 -102
h-755l59 219q137 40 240 170q101 131 104 275h-217l53 194h150q-12 83 -12 146q0 106 39.5 202t109.5 164q71 68 166.5 107t200.5 39q109 0 201.5 -41.5t152.5 -122.5q59 -83 59 -191q0 -33 -6 -63z" />
    <glyph glyph-name="currency" unicode="&#xa4;" horiz-adv-x="1433" 
d="M268 516q0 127 74 242l-162 166l139 139l168 -172q112 65 238 65q125 0 236 -63l167 170l140 -141l-162 -164q74 -109 74 -242q0 -62 -17 -116t-55 -121l-4 -7l166 -163l-140 -140l-167 172q-133 -65 -238 -65q-108 0 -238 65l-170 -172l-137 142l164 163
q-76 110 -76 242zM897 688q-71 68 -174 68q-106 0 -174 -68q-70 -67 -70 -174q0 -103 70 -170q65 -68 174 -68q106 0 174 68t68 170q0 106 -68 174z" />
    <glyph glyph-name="yen" unicode="&#xa5;" horiz-adv-x="1437" 
d="M1628 1493l-633 -745h353l-48 -175h-450l-41 -151h453l-45 -174h-455l-66 -248h-235l65 248h-446l45 174h448l41 151h-448l47 175h362l-235 745h252l196 -680l560 680h280z" />
    <glyph glyph-name="brokenbar" unicode="&#xa6;" horiz-adv-x="583" 
d="M508 1700h215l-199 -746h-217zM410 522l-201 -743h-215l199 743h217z" />
    <glyph glyph-name="section" unicode="&#xa7;" horiz-adv-x="1308" 
d="M1284 745q0 -109 -89 -182.5t-247 -95.5q107 -79 107 -188q0 -139 -125 -218q-127 -84 -322 -84q-199 0 -336 101q-137 99 -178 246l195 61q37 -106 131 -160q91 -55 205 -55q83 0 134.5 30.5t51.5 80.5q0 40 -40 69t-136 60l-170 53q-301 95 -301 282q0 109 89.5 183
t248.5 96q-111 82 -111 186q-1 134 129 220t320 83q102 0 190.5 -29t147.5 -81q123 -101 153 -229l-192 -68q-23 85 -105 151q-76 64 -209 64q-83 0 -135.5 -31t-52.5 -80q0 -40 40.5 -71t131.5 -58l164 -49q311 -92 311 -287zM850 584q75 0 133 39q53 38 53 90q0 45 -45 78
q-48 29 -160 67l-57 19q-92 28 -174 28q-81 0 -133 -37q-55 -40 -55 -90q0 -44 41.5 -75t138.5 -62l53 -16q121 -41 205 -41z" />
    <glyph glyph-name="dieresis" unicode="&#xa8;" horiz-adv-x="747" 
d="M350 1182q-56 0 -92.5 36t-36.5 93q0 67 45 112q47 47 113 47q56 0 93.5 -37t37.5 -92q0 -65 -47 -112t-113 -47zM774 1182q-56 0 -92.5 36t-36.5 93q0 65 47 112t111 47q55 0 92 -37t37 -92q0 -67 -45 -112q-47 -47 -113 -47z" />
    <glyph glyph-name="copyright" unicode="&#xa9;" horiz-adv-x="1757" 
d="M946 -18q-153 0 -293 61q-133 55 -243 162q-101 104 -160 246q-62 139 -62 297q0 154 62 296q59 142 160 246q108 105 243 164q142 59 293 59q153 0 295 -59q136 -60 244 -164q99 -102 162 -246q59 -142 59 -296q0 -158 -59 -297q-63 -144 -162 -246q-109 -106 -244 -162
q-140 -61 -295 -61zM946 1393q-130 0 -246 -52q-120 -54 -200 -137q-83 -86 -133 -207t-50 -249q0 -131 50 -252q51 -120 133 -205q85 -88 201 -137.5t245 -49.5q132 0 248 52q114 48 201 135q80 80 133 205q49 119 49 252q0 130 -49 249q-52 126 -133 207q-80 83 -201 137
q-116 52 -248 52zM1204 633l185 -60q-31 -113 -136 -198q-53 -46 -129 -72.5t-163 -26.5q-200 0 -336 136q-138 135 -138 336q0 128 64 235q65 114 170 172q110 64 242 64q160 0 276 -84q115 -86 145 -209l-184 -60q-19 67 -76.5 117.5t-160.5 50.5q-116 0 -191 -78
q-76 -79 -76 -204q0 -127 76 -209q79 -82 193 -82q172 0 239 172z" />
    <glyph glyph-name="ordfeminine" unicode="&#xaa;" horiz-adv-x="1058" 
d="M799 737v27q0 18 6 53q-107 -90 -219 -90q-128 0 -205 86q-76 85 -76 217q0 87 33 168t90 141q56 58 129.5 90.5t149.5 32.5q154 0 235 -116l29 102h170l-156 -580q-13 -49 -16 -106v-25h-170zM719 1298q-98 0 -164 -75q-70 -76 -70 -179q0 -64 45 -112q43 -43 115 -43
q89 0 166 74q78 78 78 178q0 71 -49 114t-121 43zM868 389h-737l43 162h735z" />
    <glyph glyph-name="guillemotleft" unicode="&#xab;" horiz-adv-x="1241" 
d="M635 995l104 -139l-387 -301l213 -283l-151 -118l-318 419zM1135 995l104 -139l-387 -301l213 -283l-154 -118l-315 419z" />
    <glyph glyph-name="logicalnot" unicode="&#xac;" horiz-adv-x="1318" 
d="M944 455l107 403h-871l56 207h1085l-160 -610h-217z" />
    <glyph glyph-name="uni00AD" unicode="&#xad;" horiz-adv-x="890" 
d="M819 735l-61 -231h-621l64 231h618z" />
    <glyph glyph-name="registered" unicode="&#xae;" horiz-adv-x="1267" 
d="M1026 561q-120 -69 -256 -69q-133 0 -256 69q-117 67 -184 187q-68 118 -68 256q0 135 68 256q70 120 186 186q121 70 254 70q134 0 258 -70q115 -66 184 -186q68 -116 68 -256q0 -143 -68 -256q-68 -121 -186 -187zM770 1417q-171 0 -289 -121q-116 -119 -116 -292
q0 -174 116 -293q118 -121 289 -121q176 0 291 121q119 119 119 293q0 173 -119 292q-115 121 -291 121zM1016 711h-131l-107 211h-86v-211h-119v585h220q104 0 151 -53q51 -54 51 -133q0 -55 -25.5 -98t-74.5 -66zM874 1108q0 78 -92 78h-90v-156h90q45 0 68.5 22.5
t23.5 55.5z" />
    <glyph glyph-name="degree" unicode="&#xb0;" horiz-adv-x="868" 
d="M575 823q-133 0 -219 86q-88 85 -88 217q0 159 109 271q105 108 264 108q132 0 221 -86q88 -85 88 -219q0 -155 -108 -266q-111 -111 -267 -111zM627 1325q-70 0 -123 -53q-51 -54 -51 -127q0 -62 38.5 -101.5t98.5 -39.5q70 0 125 55q53 56 53 127q0 57 -41 98t-100 41z
" />
    <glyph glyph-name="plusminus" unicode="&#xb1;" horiz-adv-x="1296" 
d="M1219 707h-406l-92 -347h-217l92 347h-406l56 204h405l90 340h217l-90 -340h406zM16 47l56 203h1024l-54 -203h-1026z" />
    <glyph glyph-name="uni00B2" unicode="&#xb2;" horiz-adv-x="899" 
d="M1022 1452q0 -128 -82 -207q-75 -72 -205 -121l-94 -39q-104 -41 -143 -98h407l-45 -168h-649l14 55q26 95 92 183q80 114 244 176l123 49q78 30 112.5 65.5t34.5 92.5q0 40 -31.5 67t-86.5 27q-39 0 -70 -16t-49.5 -42t-29 -49t-15.5 -47l-180 25q21 115 106 203
q43 45 110 70.5t144 25.5q132 0 213 -72q80 -74 80 -180z" />
    <glyph glyph-name="uni00B3" unicode="&#xb3;" horiz-adv-x="862" 
d="M909 1110q0 -149 -100 -227q-104 -82 -256 -82q-136 0 -217 78q-85 79 -82 204l186 23q-3 -60 30 -96.5t97 -36.5q63 0 104.5 36t41.5 97q0 43 -29 67.5t-80 24.5q-40 0 -63 -10l-56 137l273 191h-389l45 163h630l-43 -163l-272 -191q89 -21 134.5 -78t45.5 -137z" />
    <glyph glyph-name="uni00B5" unicode="&#xb5;" horiz-adv-x="1265" 
d="M543 1018l-148 -559q-14 -58 -14 -101q0 -80 48 -121.5t134 -41.5q104 0 180 73q77 74 107 185l147 565h228l-219 -832q-23 -101 -25 -151v-35h-225v37q2 23 10 82q-143 -137 -299 -137q-131 0 -191 51l-92 -346h-219l350 1331h228z" />
    <glyph glyph-name="paragraph" unicode="&#xb6;" horiz-adv-x="1056" 
d="M481 0l183 686q-431 16 -431 348q0 209 152 334q149 125 434 125h295l-397 -1493h-236z" />
    <glyph glyph-name="middot" unicode="&#xb7;" horiz-adv-x="573" 
d="M301 451q-65 0 -107 41.5t-42 107.5q0 78 53 131q50 53 129 53q62 0 106 -41q43 -40 43 -108q0 -78 -53 -131t-129 -53z" />
    <glyph glyph-name="uni00B9" unicode="&#xb9;" horiz-adv-x="665" 
d="M608 819h-194l166 633l-213 -104l-76 143l364 188h181z" />
    <glyph glyph-name="ordmasculine" unicode="&#xba;" horiz-adv-x="1030" 
d="M719 1462q148 0 242 -88q94 -91 94 -235q2 -104 -55.5 -200.5t-155 -155.5t-205.5 -56q-146 0 -240 88q-92 86 -92 234q0 108 55 202q56 96 150 154q96 57 207 57zM651 891q91 0 156 74q65 77 65 165q0 79 -44.5 123.5t-120.5 44.5q-93 0 -156 -75q-64 -76 -64 -166
q0 -77 45 -121.5t119 -44.5zM860 389h-731l43 162h729z" />
    <glyph glyph-name="guillemotright" unicode="&#xbb;" horiz-adv-x="1239" 
d="M152 154l-107 139l387 301l-213 283l154 118l315 -422zM651 154l-106 139l387 301l-213 283l151 118l318 -422z" />
    <glyph glyph-name="onequarter" unicode="&#xbc;" horiz-adv-x="1886" 
d="M1753 1493l-1292 -1493h-244l1294 1493h242zM594 631h-195l166 635l-211 -107l-75 144l364 190h178zM1585 176l-47 -176h-190l45 176h-439l54 207l516 483h241l-137 -524h146l-43 -166h-146zM1522 666l-344 -324h260z" />
    <glyph glyph-name="onehalf" unicode="&#xbd;" horiz-adv-x="1945" 
d="M1757 1493l-1292 -1493h-244l1295 1493h241zM1874 635q0 -124 -74 -201q-73 -76 -213 -129l-94 -37q-100 -37 -143 -98h407l-45 -170h-649l14 57q25 93 90 183q84 115 246 176l123 49q78 31 112.5 65.5t34.5 90.5q0 41 -31.5 68.5t-86.5 27.5q-77 0 -121 -58
q-35 -53 -43 -98l-180 27q22 116 106 203q43 45 110 70.5t144 25.5q132 0 213 -72q80 -74 80 -180zM598 631h-195l166 635l-213 -107l-75 144l364 190h180z" />
    <glyph glyph-name="threequarters" unicode="&#xbe;" horiz-adv-x="2011" 
d="M848 922q0 -95 -48.5 -168t-129.5 -107q-76 -33 -176 -33q-141 0 -220 76q-84 78 -81 205l186 25q-3 -60 30 -97t97 -37q63 0 104 36t41 96q0 45 -28.5 70.5t-79.5 25.5q-29 0 -62 -10l-57 133l272 190h-389l45 168h631l-43 -164l-272 -192q89 -21 134.5 -78.5
t45.5 -138.5zM1878 1493l-1292 -1493h-244l1294 1493h242zM1710 176l-47 -176h-190l45 176h-439l54 207l516 483h241l-139 -524h147l-43 -166h-145zM1647 666l-344 -324h260z" />
    <glyph glyph-name="questiondown" unicode="&#xbf;" horiz-adv-x="1101" 
d="M657 1038q60 0 98 -37.5t38 -97.5q0 -66 -48 -117q-49 -49 -116 -49q-59 0 -97 38.5t-38 96.5q0 68 49 117q46 49 114 49zM653 25l238 -27q0 -206 -158 -346q-153 -141 -381 -141q-113 0 -208 42.5t-154 122.5q-60 82 -60 185q0 164 90 272q69 80 193 164q50 34 79 55.5
t67.5 56t63.5 72.5t40 82h211q-27 -176 -127 -276q-58 -58 -193 -146q-85 -53 -129.5 -108t-44.5 -142q0 -73 56 -120q54 -45 141 -45q72 0 128 26t89 72q59 88 59 201z" />
    <glyph glyph-name="Agrave" unicode="&#xc0;" horiz-adv-x="1503" 
d="M758 1958h262l104 -328h-178zM1153 1493l229 -1493h-237l-49 350h-725l-224 -350h-262l981 1493h287zM961 1255l-455 -696h561z" />
    <glyph glyph-name="Aacute" unicode="&#xc1;" horiz-adv-x="1503" 
d="M1147 1628h-221l282 328h287zM1145 0l-49 350h-725l-224 -350h-262l981 1493h287l229 -1493h-237zM1067 559l-106 696l-455 -696h561z" />
    <glyph glyph-name="Acircumflex" unicode="&#xc2;" horiz-adv-x="1503" 
d="M1087 1804l-186 -176h-237l360 328h178l176 -328h-204zM866 1493h287l229 -1493h-237l-49 350h-725l-224 -350h-262zM506 559h561l-106 696z" />
    <glyph glyph-name="Atilde" unicode="&#xc3;" horiz-adv-x="1503" 
d="M1311 1929h143q-24 -115 -76 -188q-61 -86 -184 -86q-70 0 -133 47q-57 49 -111 49q-65 0 -96 -94h-158q25 113 80 190q64 86 185 86q47 1 131.5 -47.5t115.5 -46.5q33 0 60 25t43 65zM1145 0l-49 350h-725l-224 -350h-262l981 1493h287l229 -1493h-237zM1067 559
l-106 696l-455 -696h561z" />
    <glyph glyph-name="Adieresis" unicode="&#xc4;" horiz-adv-x="1503" 
d="M815 1618q-57 0 -93 36t-36 93q0 68 45 113q47 47 113 47q56 0 92.5 -36t36.5 -93q0 -68 -45 -113q-47 -47 -113 -47zM1257 1618q-56 0 -92.5 36t-36.5 93q0 65 48 113q47 47 110 47q56 0 92.5 -36t36.5 -93q0 -68 -45 -113q-47 -47 -113 -47zM1145 0l-49 350h-725
l-224 -350h-262l981 1493h287l229 -1493h-237zM1067 559l-106 696l-455 -696h561z" />
    <glyph glyph-name="Aring" unicode="&#xc5;" horiz-adv-x="1503" 
d="M1167 1401l215 -1401h-237l-49 350h-725l-224 -350h-262l926 1411q-68 65 -68 164q0 122 91 213q92 86 215 86q105 0 176 -62q69 -63 69 -170q0 -149 -127 -241zM1034 1729q-52 0 -92 -43q-39 -42 -39 -99q0 -41 28.5 -67.5t72.5 -26.5q55 0 92 43q41 41 41 96
q0 42 -29 69.5t-74 27.5zM506 559h561l-106 696z" />
    <glyph glyph-name="AE" unicode="&#xc6;" horiz-adv-x="2033" 
d="M934 350h-524l-283 -350h-270l1208 1493h1118l-55 -211h-715l-113 -418h650l-56 -209h-651l-117 -444h721l-55 -211h-952zM1182 1284h-23l-581 -725h411z" />
    <glyph glyph-name="Ccedilla" unicode="&#xc7;" horiz-adv-x="1632" 
d="M850 199q170 0 299 84q50 33 98 84q66 73 113 172l221 -86q-53 -125 -158 -230q-53 -56 -129 -106q-74 -49 -170 -84t-198 -45q20 -59 20 -113q0 -163 -104.5 -251.5t-294.5 -88.5q-20 0 -86 8q-48 6 -82 19l41 149q68 -18 131 -18q109 0 166 56.5t57 168.5q0 42 -6 66
q-173 9 -312 94.5t-218.5 232.5t-77.5 328q0 169 69 336q72 162 187 280q120 120 280 189q167 72 344 72q116 0 220.5 -31t177.5 -82q68 -50 125 -117q98 -123 120 -264l-231 -68q-8 67 -49.5 139t-110.5 124q-109 81 -272 81q-159 0 -290.5 -78t-211.5 -206
q-110 -165 -110 -367q0 -140 58 -243t159 -154q99 -51 225 -51z" />
    <glyph glyph-name="Egrave" unicode="&#xc8;" horiz-adv-x="1263" 
d="M678 1958h264l102 -328h-176zM354 211h723l-55 -211h-959l400 1493h950l-55 -211h-717l-111 -418h650l-56 -209h-651z" />
    <glyph glyph-name="Eacute" unicode="&#xc9;" horiz-adv-x="1263" 
d="M1061 1628h-219l280 328h289zM1022 0h-959l400 1493h950l-55 -211h-717l-111 -418h650l-56 -209h-651l-119 -444h723z" />
    <glyph glyph-name="Ecircumflex" unicode="&#xca;" horiz-adv-x="1263" 
d="M582 1628l360 328h178l176 -328h-204l-86 176l-187 -176h-237zM1022 0h-959l400 1493h950l-55 -211h-717l-111 -418h650l-56 -209h-651l-119 -444h723z" />
    <glyph glyph-name="Edieresis" unicode="&#xcb;" horiz-adv-x="1263" 
d="M754 1618q-57 0 -93 36t-36 93q0 68 45 113q47 47 110 47q57 0 94 -36t37 -93q0 -68 -45 -113q-47 -47 -112 -47zM1196 1618q-57 0 -94 36t-37 93q0 66 47 113t111 47q57 0 94 -36t37 -93q0 -68 -45 -113q-47 -47 -113 -47zM1022 0h-959l400 1493h950l-55 -211h-717
l-111 -418h650l-56 -209h-651l-119 -444h723z" />
    <glyph glyph-name="Igrave" unicode="&#xcc;" horiz-adv-x="624" 
d="M330 1958h264l102 -328h-176zM696 1493l-397 -1493h-236l400 1493h233z" />
    <glyph glyph-name="Iacute" unicode="&#xcd;" horiz-adv-x="624" 
d="M719 1628h-219l280 328h289zM63 0l400 1493h233l-397 -1493h-236z" />
    <glyph glyph-name="Icircumflex" unicode="&#xce;" horiz-adv-x="624" 
d="M227 1628l363 328h178l174 -328h-205l-84 176l-188 -176h-238zM63 0l400 1493h233l-397 -1493h-236z" />
    <glyph glyph-name="Idieresis" unicode="&#xcf;" horiz-adv-x="624" 
d="M412 1618q-56 0 -92.5 36t-36.5 93q0 68 45 113q47 47 112 47q57 0 94 -36t37 -93q0 -66 -47 -113t-112 -47zM829 1618q-57 0 -93 36t-36 93q0 68 45 113q47 47 111 47q57 0 94 -36t37 -93q0 -68 -45 -113q-47 -47 -113 -47zM63 0l400 1493h233l-397 -1493h-236z" />
    <glyph glyph-name="Eth" unicode="&#xd0;" horiz-adv-x="1595" 
d="M1405 1303q170 -164 170 -441q0 -329 -232 -573q-134 -140 -334.5 -214.5t-451.5 -74.5h-459l172 655h-200l55 209h203l166 629h333q382 0 578 -190zM387 215h197q213 0 389 84q170 83 264 229q94 143 94 332q0 194 -131 307q-132 111 -385 111h-143l-111 -414h332
l-55 -209h-334z" />
    <glyph glyph-name="Ntilde" unicode="&#xd1;" horiz-adv-x="1644" 
d="M1386 1929h144q-20 -109 -76 -188q-61 -86 -184 -86q-70 0 -133 47q-57 49 -111 49q-33 0 -58 -27t-36 -67h-160q25 113 80 190q64 86 184 86q66 0 133 -47t115 -47q34 0 61 25.5t41 64.5zM1485 1493h231l-397 -1493h-270l-441 1163l-311 -1163h-234l400 1493h270
l441 -1163z" />
    <glyph glyph-name="Ograve" unicode="&#xd2;" horiz-adv-x="1720" 
d="M766 1958h262l105 -328h-179zM819 -18q-192 0 -346 86q-152 87 -231 233q-82 146 -82 332q0 167 64.5 326t181.5 282q117 128 279.5 201t348.5 74q144 0 269 -49.5t213 -137.5q87 -89 135.5 -209.5t48.5 -255.5q0 -166 -65 -325t-183 -283q-165 -176 -387 -240
q-118 -34 -246 -34zM846 199q152 0 282.5 79.5t212.5 208.5q111 171 111 367q0 198 -119 320q-118 124 -321 124q-154 0 -285 -79.5t-211 -208.5q-113 -170 -113 -367q0 -194 119 -319t324 -125z" />
    <glyph glyph-name="Oacute" unicode="&#xd3;" horiz-adv-x="1720" 
d="M1149 1628h-219l280 328h289zM819 -18q-192 0 -346 86q-152 87 -231 233q-82 146 -82 332q0 167 64.5 326t181.5 282q117 128 279.5 201t348.5 74q144 0 269 -49.5t213 -137.5q87 -89 135.5 -209.5t48.5 -255.5q0 -166 -65 -325t-183 -283q-165 -176 -387 -240
q-118 -34 -246 -34zM846 199q152 0 282.5 79.5t212.5 208.5q111 171 111 367q0 198 -119 320q-118 124 -321 124q-154 0 -285 -79.5t-211 -208.5q-113 -170 -113 -367q0 -194 119 -319t324 -125z" />
    <glyph glyph-name="Ocircumflex" unicode="&#xd4;" horiz-adv-x="1720" 
d="M692 1628l361 328h178l176 -328h-205l-86 176l-186 -176h-238zM819 -18q-192 0 -346 86q-152 87 -231 233q-82 146 -82 332q0 167 64.5 326t181.5 282q117 128 279.5 201t348.5 74q144 0 269 -49.5t213 -137.5q87 -89 135.5 -209.5t48.5 -255.5q0 -166 -65 -325
t-183 -283q-165 -176 -387 -240q-118 -34 -246 -34zM846 199q152 0 282.5 79.5t212.5 208.5q111 171 111 367q0 198 -119 320q-118 124 -321 124q-154 0 -285 -79.5t-211 -208.5q-113 -170 -113 -367q0 -194 119 -319t324 -125z" />
    <glyph glyph-name="Otilde" unicode="&#xd5;" horiz-adv-x="1720" 
d="M1356 1929h143q-24 -115 -76 -188q-64 -86 -184 -86q-70 0 -133 47q-61 49 -113 49q-33 0 -58 -27t-36 -67h-158q27 118 80 190q61 86 183 86q49 1 133.5 -47.5t113.5 -46.5q68 0 105 90zM819 -18q-192 0 -346 86q-152 87 -231 233q-82 146 -82 332q0 167 64.5 326
t181.5 282q117 128 279.5 201t348.5 74q144 0 269 -49.5t213 -137.5q87 -89 135.5 -209.5t48.5 -255.5q0 -166 -65 -325t-183 -283q-165 -176 -387 -240q-118 -34 -246 -34zM846 199q152 0 282.5 79.5t212.5 208.5q111 171 111 367q0 198 -119 320q-118 124 -321 124
q-154 0 -285 -79.5t-211 -208.5q-113 -170 -113 -367q0 -194 119 -319t324 -125z" />
    <glyph glyph-name="Odieresis" unicode="&#xd6;" horiz-adv-x="1720" 
d="M872 1618q-57 0 -93 36t-36 93q0 68 45 113q47 47 113 47q56 0 92.5 -36t36.5 -93q0 -68 -45 -113q-47 -47 -113 -47zM1315 1618q-57 0 -93 36t-36 93q0 68 45 113q47 47 110 47q57 0 94.5 -36t37.5 -93q0 -67 -46 -113q-47 -47 -112 -47zM819 -18q-192 0 -346 86
q-152 87 -231 233q-82 146 -82 332q0 167 64.5 326t181.5 282q117 128 279.5 201t348.5 74q144 0 269 -49.5t213 -137.5q87 -89 135.5 -209.5t48.5 -255.5q0 -166 -65 -325t-183 -283q-165 -176 -387 -240q-118 -34 -246 -34zM846 199q152 0 282.5 79.5t212.5 208.5
q111 171 111 367q0 198 -119 320q-118 124 -321 124q-154 0 -285 -79.5t-211 -208.5q-113 -170 -113 -367q0 -194 119 -319t324 -125z" />
    <glyph glyph-name="multiply" unicode="&#xd7;" horiz-adv-x="1267" 
d="M1303 1032l-484 -393l281 -375l-160 -123l-276 371l-459 -371l-125 156l463 377l-295 393l162 121l288 -387l478 387z" />
    <glyph glyph-name="Oslash" unicode="&#xd8;" horiz-adv-x="1718" 
d="M1763 1415l-178 -170q115 -165 115 -381q1 -199 -93 -386.5t-255 -313.5q-108 -86 -245.5 -134t-287.5 -48q-242 0 -422 139l-174 -166l-125 129l174 168q-112 161 -112 381q0 167 64.5 326t181.5 282q119 128 280.5 201t347.5 74q248 0 428 -142l176 170zM1012 1303
q-103 0 -200.5 -38.5t-170.5 -105.5q-70 -62 -129 -149q-113 -173 -113 -367q0 -123 52 -227l839 801q-115 86 -278 86zM846 195q151 -1 282.5 79t214.5 211q115 172 115 369q0 125 -53 225l-834 -800q106 -84 275 -84z" />
    <glyph glyph-name="Ugrave" unicode="&#xd9;" horiz-adv-x="1505" 
d="M737 1958h264l103 -328h-176zM690 -18q-235 0 -368 118q-136 121 -136 330q0 99 31 217l225 846h236l-236 -879q-18 -73 -18 -151q0 -118 76 -191q77 -71 213 -71q149 0 253.5 98t155.5 289l240 905h235l-251 -940q-151 -571 -656 -571z" />
    <glyph glyph-name="Uacute" unicode="&#xda;" horiz-adv-x="1505" 
d="M1153 1628h-221l282 328h289zM690 -18q-235 0 -368 118q-136 121 -136 330q0 99 31 217l225 846h236l-236 -879q-18 -73 -18 -151q0 -118 76 -191q77 -71 213 -71q149 0 253.5 98t155.5 289l240 905h235l-251 -940q-151 -571 -656 -571z" />
    <glyph glyph-name="Ucircumflex" unicode="&#xdb;" horiz-adv-x="1505" 
d="M676 1628l360 328h178l177 -328h-205l-86 176l-189 -176h-235zM690 -18q-235 0 -368 118q-136 121 -136 330q0 99 31 217l225 846h236l-236 -879q-18 -73 -18 -151q0 -118 76 -191q77 -71 213 -71q149 0 253.5 98t155.5 289l240 905h235l-251 -940q-151 -571 -656 -571z
" />
    <glyph glyph-name="Udieresis" unicode="&#xdc;" horiz-adv-x="1505" 
d="M840 1618q-57 0 -93 36t-36 93q0 68 45 113q47 47 112 47q56 0 92.5 -36t36.5 -93q0 -68 -45 -113q-47 -47 -112 -47zM1282 1618q-56 0 -92.5 36t-36.5 93q0 68 45 113q47 47 113 47q56 0 92.5 -36t36.5 -93q0 -68 -45 -113q-47 -47 -113 -47zM690 -18q-235 0 -368 118
q-136 121 -136 330q0 99 31 217l225 846h236l-236 -879q-18 -73 -18 -151q0 -118 76 -191q77 -71 213 -71q149 0 253.5 98t155.5 289l240 905h235l-251 -940q-151 -571 -656 -571z" />
    <glyph glyph-name="Yacute" unicode="&#xdd;" horiz-adv-x="1415" 
d="M1077 1628h-219l281 328h288zM840 578l-156 -578h-235l159 602l-307 891h256l219 -680l584 680h285z" />
    <glyph glyph-name="Thorn" unicode="&#xde;" horiz-adv-x="1320" 
d="M625 1227h186q241 2 382 -104t142 -308q0 -164 -88 -283q-87 -121 -239 -182q-149 -61 -351 -61l-282 -2l-78 -287h-234l400 1495h233zM1092 799q0 101 -74.5 157t-208.5 56h-242l-135 -512h240q194 0 309 80q111 80 111 219z" />
    <glyph glyph-name="germandbls" unicode="&#xdf;" horiz-adv-x="1259" 
d="M926 291q0 58 -49 100q-23 21 -37 29q-12 5 -17 10l-49 35q-147 102 -147 231q0 177 194 269l68 30q70 34 108.5 80t38.5 96q0 88 -50 135.5t-144 47.5q-234 0 -307 -287l-281 -1067h-227l292 1116q116 440 539 440q180 0 291 -102q113 -101 113 -258q0 -250 -271 -373
l-65 -28q-38 -19 -54 -35.5t-16 -42.5q0 -37 57 -76l66 -45q164 -108 164 -279q0 -66 -30 -135.5t-89 -120.5q-100 -79 -254 -79q-145 0 -240 77q-96 74 -96 220q0 20 2 38l199 13v-19q0 -68 40.5 -105.5t110.5 -37.5q60 0 101 35q39 33 39 88z" />
    <glyph glyph-name="agrave" unicode="&#xe0;" 
d="M412 1520h264l102 -328h-176zM481 -16q-179 0 -286 122q-109 124 -109 310q0 130 49 246q45 113 127 198q79 83 182.5 130.5t210.5 47.5q116 0 204.5 -47.5t135.5 -128.5l43 156h226l-220 -832q-21 -79 -24 -151v-35h-225v37q3 58 10 84q-149 -137 -324 -137zM940 582
q0 111 -74 182q-73 70 -182 70q-99 2 -182.5 -54t-129.5 -149t-44 -199q0 -109 67 -176q67 -70 176 -70q86 0 174 54q89 55 140 143q55 88 55 199z" />
    <glyph glyph-name="aacute" unicode="&#xe1;" 
d="M807 1192h-221l282 328h289zM481 -16q-179 0 -286 122q-109 124 -109 310q0 130 49 246q45 113 127 198q79 83 182.5 130.5t210.5 47.5q116 0 204.5 -47.5t135.5 -128.5l43 156h226l-220 -832q-21 -79 -24 -151v-35h-225v37q3 58 10 84q-149 -137 -324 -137zM940 582
q0 111 -74 182q-73 70 -182 70q-99 2 -182.5 -54t-129.5 -149t-44 -199q0 -109 67 -176q67 -70 176 -70q86 0 174 54q89 55 140 143q55 88 55 199z" />
    <glyph glyph-name="acircumflex" unicode="&#xe2;" 
d="M397 1190l361 330h178l176 -330h-205l-86 176l-186 -176h-238zM481 -16q-179 0 -286 122q-109 124 -109 310q0 130 49 246q45 113 127 198q79 83 182.5 130.5t210.5 47.5q116 0 204.5 -47.5t135.5 -128.5l43 156h226l-220 -832q-21 -79 -24 -151v-35h-225v37q3 58 10 84
q-149 -137 -324 -137zM940 582q0 111 -74 182q-73 70 -182 70q-99 2 -182.5 -54t-129.5 -149t-44 -199q0 -109 67 -176q67 -70 176 -70q86 0 174 54q89 55 140 143q55 88 55 199z" />
    <glyph glyph-name="atilde" unicode="&#xe3;" 
d="M1055 1483h143q-24 -116 -76 -189q-61 -86 -184 -86q-70 0 -133 47q-56 48 -111 48q-66 0 -96 -93h-158q26 115 80 191q63 84 185 84q38 2 86 -22t91 -48t70 -22q33 0 60 25t43 65zM481 -16q-179 0 -286 122q-109 124 -109 310q0 130 49 246q45 113 127 198
q79 83 182.5 130.5t210.5 47.5q116 0 204.5 -47.5t135.5 -128.5l43 156h226l-220 -832q-21 -79 -24 -151v-35h-225v37q3 58 10 84q-149 -137 -324 -137zM940 582q0 111 -74 182q-73 70 -182 70q-99 2 -182.5 -54t-129.5 -149t-44 -199q0 -109 67 -176q67 -70 176 -70
q86 0 174 54q89 55 140 143q55 88 55 199z" />
    <glyph glyph-name="adieresis" unicode="&#xe4;" 
d="M565 1182q-57 0 -93 36t-36 93q0 67 45 112q47 47 113 47q56 0 92.5 -37t36.5 -92q0 -67 -45 -112q-47 -47 -113 -47zM989 1182q-57 0 -93 36t-36 93q0 67 45 112q47 47 111 47q57 0 94 -36.5t37 -92.5q0 -67 -45 -112q-47 -47 -113 -47zM481 -16q-179 0 -286 122
q-109 124 -109 310q0 130 49 246q45 113 127 198q79 83 182.5 130.5t210.5 47.5q116 0 204.5 -47.5t135.5 -128.5l43 156h226l-220 -832q-21 -79 -24 -151v-35h-225v37q3 58 10 84q-149 -137 -324 -137zM940 582q0 111 -74 182q-73 70 -182 70q-99 2 -182.5 -54t-129.5 -149
t-44 -199q0 -109 67 -176q67 -70 176 -70q86 0 174 54q89 55 140 143q55 88 55 199z" />
    <glyph glyph-name="aring" unicode="&#xe5;" 
d="M1079 1446q0 -120 -86 -209q-85 -88 -217 -88q-110 0 -176 63q-72 63 -72 166q0 118 88 209q89 92 218 92q104 0 176 -63q69 -63 69 -170zM922 1434q0 45 -29 70.5t-74 25.5q-55 0 -92 -43q-39 -42 -39 -96q0 -44 27.5 -69.5t72.5 -25.5q58 0 95 43q39 45 39 95zM481 -16
q-179 0 -286 122q-109 124 -109 310q0 130 49 246q45 113 127 198q79 83 182.5 130.5t210.5 47.5q116 0 204.5 -47.5t135.5 -128.5l43 156h226l-220 -832q-21 -79 -24 -151v-35h-225v37q3 58 10 84q-149 -137 -324 -137zM940 582q0 111 -74 182q-73 70 -182 70
q-99 2 -182.5 -54t-129.5 -149t-44 -199q0 -109 67 -176q67 -70 176 -70q86 0 174 54q89 55 140 143q55 88 55 199z" />
    <glyph glyph-name="ae" unicode="&#xe6;" horiz-adv-x="1802" 
d="M803 199q-79 -101 -191.5 -159t-236.5 -58h-10q-135 -2 -231.5 73t-96.5 199q0 145 113 233q115 89 290 101l244 16q109 6 109 113q0 67 -54 96q-50 33 -118 33q-98 0 -168 -58q-67 -58 -88 -122l-201 63q26 93 141 193q59 52 149.5 84t190.5 32q226 0 301 -145
q154 145 363 145q195 0 311 -116q117 -120 117 -314q0 -78 -27 -166h-764q-6 -123 74 -198t197 -70q96 0 163 47q70 49 105 111l178 -88q-49 -98 -158 -176q-125 -84 -305 -84q-136 0 -238.5 56t-158.5 159zM1513 639q0 98 -59 151.5t-162 53.5q-107 0 -192 -64
q-86 -65 -123 -166h536v25zM725 449l-207 -13q-79 -6 -162 -37q-88 -38 -88 -120q0 -51 38 -83t93 -32q111 0 201 72q94 79 117 184z" />
    <glyph glyph-name="ccedilla" unicode="&#xe7;" horiz-adv-x="1173" 
d="M586 186q118 0 196 68q60 50 99 119l196 -72q-49 -113 -164 -205q-112 -89 -268 -110q21 -58 21 -111q0 -163 -105 -251.5t-295 -88.5q-18 0 -88 8q-46 5 -80 19l41 149q67 -18 129 -18q224 0 224 225q0 47 -7 70q-180 24 -288 147q-109 124 -109 309q0 156 82 293
t219 219t293 82q99 0 183 -28t139 -76q106 -93 131 -217l-209 -64q-12 68 -78 125q-65 56 -180 56q-71 0 -137 -33.5t-111 -89.5q-46 -54 -72 -122.5t-26 -135.5q0 -123 69 -195q75 -72 195 -72z" />
    <glyph glyph-name="egrave" unicode="&#xe8;" horiz-adv-x="1169" 
d="M420 1520h264l102 -328h-176zM1079 442h-764q-6 -123 72 -197t197 -71q97 0 164 47q71 52 104 111l178 -88q-49 -99 -160 -176q-122 -84 -303 -84q-134 -3 -243.5 52.5t-173.5 161.5t-62 242q0 160 82 297q81 136 217 219q134 82 289 82q195 0 311 -116
q119 -122 119 -314q0 -66 -27 -166zM662 844q-111 0 -193 -64q-89 -65 -123 -166h533q2 4 2 23q0 98 -59 152.5t-160 54.5z" />
    <glyph glyph-name="eacute" unicode="&#xe9;" horiz-adv-x="1169" 
d="M801 1192h-219l280 328h289zM1079 442h-764q-6 -123 72 -197t197 -71q97 0 164 47q71 52 104 111l178 -88q-49 -99 -160 -176q-122 -84 -303 -84q-134 -3 -243.5 52.5t-173.5 161.5t-62 242q0 160 82 297q81 136 217 219q134 82 289 82q195 0 311 -116q119 -122 119 -314
q0 -66 -27 -166zM662 844q-111 0 -193 -64q-89 -65 -123 -166h533q2 4 2 23q0 98 -59 152.5t-160 54.5z" />
    <glyph glyph-name="ecircumflex" unicode="&#xea;" horiz-adv-x="1169" 
d="M338 1190l362 330h179l176 -330h-205l-86 176l-189 -176h-237zM1079 442h-764q-6 -123 72 -197t197 -71q97 0 164 47q71 52 104 111l178 -88q-49 -99 -160 -176q-122 -84 -303 -84q-134 -3 -243.5 52.5t-173.5 161.5t-62 242q0 160 82 297q81 136 217 219q134 82 289 82
q195 0 311 -116q119 -122 119 -314q0 -66 -27 -166zM662 844q-111 0 -193 -64q-89 -65 -123 -166h533q2 4 2 23q0 98 -59 152.5t-160 54.5z" />
    <glyph glyph-name="edieresis" unicode="&#xeb;" horiz-adv-x="1169" 
d="M565 1470q56 0 93.5 -37t37.5 -92q0 -65 -47 -112t-112 -47q-57 0 -93 36t-36 93q0 67 45 112q47 47 112 47zM961 1182q-56 0 -93 36t-37 93q0 64 48 112q47 47 110 47q55 0 92 -37t37 -92q0 -67 -45 -112q-47 -47 -112 -47zM1079 442h-764q-6 -123 72 -197t197 -71
q97 0 164 47q71 52 104 111l178 -88q-49 -99 -160 -176q-122 -84 -303 -84q-134 -3 -243.5 52.5t-173.5 161.5t-62 242q0 160 82 297q81 136 217 219q134 82 289 82q195 0 311 -116q119 -122 119 -314q0 -66 -27 -166zM662 844q-111 0 -193 -64q-89 -65 -123 -166h533
q2 4 2 23q0 98 -59 152.5t-160 54.5z" />
    <glyph glyph-name="igrave" unicode="&#xec;" horiz-adv-x="536" 
d="M154 1520h264l104 -328h-178zM522 1018l-268 -1018h-229l268 1018h229z" />
    <glyph glyph-name="iacute" unicode="&#xed;" horiz-adv-x="536" 
d="M559 1192h-219l281 328h288zM25 0l268 1018h229l-268 -1018h-229z" />
    <glyph glyph-name="icircumflex" unicode="&#xee;" horiz-adv-x="536" 
d="M76 1190l360 330h178l177 -330h-205l-86 176l-187 -176h-237zM25 0l268 1018h229l-268 -1018h-229z" />
    <glyph glyph-name="idieresis" unicode="&#xef;" horiz-adv-x="536" 
d="M242 1182q-57 0 -93 36t-36 93q0 67 45 112q47 47 112 47q56 0 92.5 -37t36.5 -92q0 -67 -45 -112q-47 -47 -112 -47zM666 1182q-56 0 -92.5 36t-36.5 93q0 65 47 112t110 47q56 0 92.5 -37t36.5 -92q0 -67 -45 -112q-47 -47 -112 -47zM25 0l268 1018h229l-268 -1018
h-229z" />
    <glyph glyph-name="eth" unicode="&#xf0;" horiz-adv-x="1239" 
d="M1122 1331l-178 -82q217 -261 217 -614q0 -130 -41 -249t-116 -208q-76 -91 -192 -142.5t-251 -51.5q-207 0 -340 133t-133 329q0 139 70 261q69 124 192 200q119 76 260 76q86 0 174 -31q84 -35 136 -102h4q-35 171 -168 313l-314 -139l-63 135l252 111q-35 30 -119 73
q-70 34 -152 60l82 174q220 -72 389 -215l226 104zM578 184q146 0 245 105q101 104 101 243q0 122 -74 193q-74 74 -197 74q-136 0 -239 -103q-99 -108 -99 -245q0 -124 74 -195q72 -72 189 -72z" />
    <glyph glyph-name="ntilde" unicode="&#xf1;" horiz-adv-x="1206" 
d="M1053 1483h143q-24 -116 -76 -189q-61 -86 -184 -86q-70 0 -133 47q-56 48 -111 48q-33 0 -58 -26.5t-38 -66.5h-158q26 115 80 191q63 84 184 84q38 2 86 -22t91.5 -48t70.5 -22q34 0 61.5 25.5t41.5 64.5zM936 0h-227l147 559q14 49 14 100q0 80 -48 122t-134 42
q-104 0 -180 -73q-81 -78 -107 -185l-147 -565h-227l266 1018h223l-33 -119q148 139 312 139q147 0 233 -86q84 -84 84 -223q0 -61 -31 -176z" />
    <glyph glyph-name="ograve" unicode="&#xf2;" horiz-adv-x="1236" 
d="M424 1520h264l103 -328h-177zM682 1038q211 0 344 -127q133 -124 133 -338q0 -152 -80 -288q-81 -138 -217 -219q-141 -84 -297 -84q-209 0 -342 127q-135 126 -135 333q0 121 47 226q45 105 127 190q83 83 191 131q110 49 229 49zM580 186q91 0 176 60q82 57 127 143
q45 92 45 178q0 125 -72 197q-70 70 -188 70q-71 0 -138 -33.5t-112 -89.5q-99 -124 -99 -258q0 -123 72 -195q75 -72 189 -72z" />
    <glyph glyph-name="oacute" unicode="&#xf3;" horiz-adv-x="1236" 
d="M805 1192h-221l282 328h289zM682 1038q211 0 344 -127q133 -124 133 -338q0 -152 -80 -288q-81 -138 -217 -219q-141 -84 -297 -84q-209 0 -342 127q-135 126 -135 333q0 121 47 226q45 105 127 190q83 83 191 131q110 49 229 49zM580 186q91 0 176 60q82 57 127 143
q45 92 45 178q0 125 -72 197q-70 70 -188 70q-71 0 -138 -33.5t-112 -89.5q-99 -124 -99 -258q0 -123 72 -195q75 -72 189 -72z" />
    <glyph glyph-name="ocircumflex" unicode="&#xf4;" horiz-adv-x="1236" 
d="M348 1190l361 330h178l176 -330h-205l-86 176l-188 -176h-236zM682 1038q211 0 344 -127q133 -124 133 -338q0 -152 -80 -288q-81 -138 -217 -219q-141 -84 -297 -84q-209 0 -342 127q-135 126 -135 333q0 121 47 226q45 105 127 190q83 83 191 131q110 49 229 49z
M580 186q91 0 176 60q82 57 127 143q45 92 45 178q0 125 -72 197q-70 70 -188 70q-71 0 -138 -33.5t-112 -89.5q-99 -124 -99 -258q0 -123 72 -195q75 -72 189 -72z" />
    <glyph glyph-name="otilde" unicode="&#xf5;" horiz-adv-x="1236" 
d="M1016 1483h143q-20 -111 -76 -189q-61 -86 -182 -86q-74 0 -133 47q-60 48 -113 48q-33 0 -58 -26.5t-36 -66.5h-160q26 115 80 191q63 84 185 84q38 2 86 -22t91 -48t70 -22q34 0 61.5 25.5t41.5 64.5zM682 1038q211 0 344 -127q133 -124 133 -338q0 -152 -80 -288
q-81 -138 -217 -219q-141 -84 -297 -84q-209 0 -342 127q-135 126 -135 333q0 121 47 226q45 105 127 190q83 83 191 131q110 49 229 49zM580 186q91 0 176 60q82 57 127 143q45 92 45 178q0 125 -72 197q-70 70 -188 70q-71 0 -138 -33.5t-112 -89.5q-99 -124 -99 -258
q0 -123 72 -195q75 -72 189 -72z" />
    <glyph glyph-name="odieresis" unicode="&#xf6;" horiz-adv-x="1236" 
d="M553 1182q-57 0 -93 36t-36 93q0 67 45 112q47 47 113 47q56 0 92.5 -37t36.5 -92q0 -67 -45 -112q-47 -47 -113 -47zM977 1182q-57 0 -93 36t-36 93q0 67 45 112q47 47 111 47q57 0 94 -36.5t37 -92.5q0 -67 -45 -112q-47 -47 -113 -47zM682 1038q211 0 344 -127
q133 -124 133 -338q0 -152 -80 -288q-81 -138 -217 -219q-141 -84 -297 -84q-209 0 -342 127q-135 126 -135 333q0 121 47 226q45 105 127 190q83 83 191 131q110 49 229 49zM580 186q91 0 176 60q82 57 127 143q45 92 45 178q0 125 -72 197q-70 70 -188 70
q-71 0 -138 -33.5t-112 -89.5q-99 -124 -99 -258q0 -123 72 -195q75 -72 189 -72z" />
    <glyph glyph-name="divide" unicode="&#xf7;" horiz-adv-x="1132" 
d="M725 995q-57 0 -94 36t-37 93q0 66 47 113t111 47q57 0 94 -36.5t37 -92.5q0 -68 -45 -113q-47 -47 -113 -47zM133 598l55 211h928l-57 -211h-926zM496 123q-57 0 -94 36t-37 93q0 66 47 113t110 47q57 0 94 -36t37 -93q0 -66 -47 -113t-110 -47z" />
    <glyph glyph-name="oslash" unicode="&#xf8;" horiz-adv-x="1236" 
d="M1206 967l-121 -123q74 -115 74 -271q0 -152 -80 -288q-81 -138 -217 -219q-141 -84 -297 -84q-161 0 -280 79l-129 -127l-113 117l123 123q-78 112 -78 268q0 121 47 226q45 105 127 190q83 83 191 131q110 49 229 49q166 0 285 -82l127 125zM672 840q-102 0 -185 -62
q-80 -55 -129 -145q-43 -87 -43 -182q0 -65 23 -113l473 467q-59 35 -139 35zM578 182q95 0 180 60q82 55 129 145q45 86 45 182q0 61 -19 113l-471 -469q60 -31 136 -31z" />
    <glyph glyph-name="ugrave" unicode="&#xf9;" horiz-adv-x="1208" 
d="M510 1520h262l105 -328h-179zM963 1018h227l-217 -832q-21 -73 -27 -151v-35h-225v37q10 81 10 82q-142 -139 -309 -139q-149 0 -232 86q-86 86 -86 223q0 57 29 176l148 553h227l-150 -559q-10 -39 -10 -101q0 -81 47 -122t133 -41q105 0 181 73t106 185z" />
    <glyph glyph-name="uacute" unicode="&#xfa;" horiz-adv-x="1208" 
d="M870 1192h-221l283 328h287zM963 1018h227l-217 -832q-21 -73 -27 -151v-35h-225v37q10 81 10 82q-142 -139 -309 -139q-149 0 -232 86q-86 86 -86 223q0 57 29 176l148 553h227l-150 -559q-10 -39 -10 -101q0 -81 47 -122t133 -41q105 0 181 73t106 185z" />
    <glyph glyph-name="ucircumflex" unicode="&#xfb;" horiz-adv-x="1208" 
d="M395 1190l363 330h176l176 -330h-205l-86 176l-186 -176h-238zM963 1018h227l-217 -832q-21 -73 -27 -151v-35h-225v37q10 81 10 82q-142 -139 -309 -139q-149 0 -232 86q-86 86 -86 223q0 57 29 176l148 553h227l-150 -559q-10 -39 -10 -101q0 -81 47 -122t133 -41
q105 0 181 73t106 185z" />
    <glyph glyph-name="udieresis" unicode="&#xfc;" horiz-adv-x="1208" 
d="M573 1182q-57 0 -94 36t-37 93q0 65 47 112t111 47q57 0 94 -36.5t37 -92.5q0 -67 -45 -112q-47 -47 -113 -47zM995 1182q-56 0 -92.5 36t-36.5 93q0 65 47 112t111 47q56 0 93.5 -37t37.5 -92q0 -65 -47 -112t-113 -47zM963 1018h227l-217 -832q-21 -73 -27 -151v-35
h-225v37q10 81 10 82q-142 -139 -309 -139q-149 0 -232 86q-86 86 -86 223q0 57 29 176l148 553h227l-150 -559q-10 -39 -10 -101q0 -81 47 -122t133 -41q105 0 181 73t106 185z" />
    <glyph glyph-name="yacute" unicode="&#xfd;" horiz-adv-x="1140" 
d="M844 1192h-219l280 328h289zM256 -502h-252l334 508l-166 1012h231l113 -758l485 758h246z" />
    <glyph glyph-name="thorn" unicode="&#xfe;" 
d="M637 -16q-244 0 -338 186l-178 -672h-227l540 2054h228l-173 -655q141 141 320 141q176 0 287 -120q108 -120 108 -312q0 -130 -47 -248q-48 -117 -129 -198q-80 -82 -183 -129t-208 -47zM618 186q146 0 250 119q105 114 105 281q0 112 -68 180t-174 68q-92 3 -179 -52.5
t-140.5 -149t-51.5 -194.5q0 -107 70 -180q72 -72 188 -72z" />
    <glyph glyph-name="ydieresis" unicode="&#xff;" horiz-adv-x="1140" 
d="M543 1182q-56 0 -92.5 36t-36.5 93q0 65 47 112t110 47q56 0 93.5 -37t37.5 -92q0 -65 -47 -112t-112 -47zM967 1182q-56 0 -92.5 36t-36.5 93q0 65 47 112t110 47q56 0 93.5 -37t37.5 -92q0 -65 -47 -112t-112 -47zM256 -502h-252l334 508l-166 1012h231l113 -758
l485 758h246z" />
    <glyph glyph-name="Amacron" unicode="&#x100;" horiz-adv-x="1503" 
d="M756 1876h659l-47 -180h-661zM1145 0l-49 350h-725l-224 -350h-262l981 1493h287l229 -1493h-237zM1067 559l-106 696l-455 -696h561z" />
    <glyph glyph-name="amacron" unicode="&#x101;" 
d="M489 1393h662l-49 -183h-662zM481 -16q-179 0 -286 122q-109 124 -109 310q0 130 49 246q45 113 127 198q79 83 182.5 130.5t210.5 47.5q116 0 204.5 -47.5t135.5 -128.5l43 156h226l-220 -832q-21 -79 -24 -151v-35h-225v37q3 58 10 84q-149 -137 -324 -137zM940 582
q0 111 -74 182q-73 70 -182 70q-99 2 -182.5 -54t-129.5 -149t-44 -199q0 -109 67 -176q67 -70 176 -70q86 0 174 54q89 55 140 143q55 88 55 199z" />
    <glyph glyph-name="Abreve" unicode="&#x102;" horiz-adv-x="1503" 
d="M1145 0l-49 350h-725l-224 -350h-262l981 1493h287l229 -1493h-237zM1067 559l-106 696l-455 -696h561zM1020 1626q-144 0 -223 88q-81 87 -72 236h178q0 -158 131 -158q72 0 129 45q54 45 72 113h184q-48 -151 -149 -236q-104 -88 -250 -88z" />
    <glyph glyph-name="abreve" unicode="&#x103;" 
d="M481 -16q-179 0 -286 122q-109 124 -109 310q0 130 49 246q45 113 127 198q79 83 182.5 130.5t210.5 47.5q116 0 204.5 -47.5t135.5 -128.5l43 156h226l-220 -832q-21 -79 -24 -151v-35h-225v37q3 58 10 84q-149 -137 -324 -137zM940 582q0 111 -74 182q-73 70 -182 70
q-99 2 -182.5 -54t-129.5 -149t-44 -199q0 -109 67 -176q67 -70 176 -70q86 0 174 54q89 55 140 143q55 88 55 199zM748 1188q-144 0 -226 88q-77 89 -71 235h180q0 -155 131 -155q71 0 129 43q54 45 72 112h184q-46 -146 -150 -233q-107 -90 -249 -90z" />
    <glyph glyph-name="Aogonek" unicode="&#x104;" horiz-adv-x="1503" 
d="M1153 1493l229 -1493q-46 -32 -47 -33q-22 -15 -49 -39q-33 -25 -51 -47q-49 -57 -49 -106q0 -80 131 -80h4l-41 -156q-40 -4 -59 -4q-133 0 -205 78q-39 45 -39 102q0 143 229 285h-61l-49 350h-725l-224 -350h-262l981 1493h287zM1067 559l-106 696l-455 -696h561z" />
    <glyph glyph-name="aogonek" unicode="&#x105;" 
d="M1038 1018h226l-220 -832q-21 -79 -24 -151v-35q-10 -6 -19.5 -12.5t-17.5 -12t-12 -8.5q-3 -2 -12 -9t-18.5 -14.5t-18.5 -15.5q-36 -28 -52 -47q-49 -57 -49 -106q0 -80 131 -80h6l-43 -156q-40 -4 -59 -4q-131 0 -203 78q-39 42 -39 102q0 144 228 285h-47v37
q3 58 10 84q-149 -137 -324 -137q-179 0 -286 122q-109 124 -109 310q0 130 49 246q45 113 127 198q79 83 182.5 130.5t210.5 47.5q116 0 204.5 -47.5t135.5 -128.5zM571 186q86 0 174 54q89 55 140 143q55 88 55 199t-74 182q-73 70 -182 70q-99 2 -182.5 -54t-129.5 -149
t-44 -199q0 -109 67 -176q67 -70 176 -70z" />
    <glyph glyph-name="Cacute" unicode="&#x106;" horiz-adv-x="1632" 
d="M1165 1628h-219l281 328h289zM823 -18q-187 0 -340 81q-146 77 -237 232q-86 151 -86 344q0 169 69 336q72 162 187 280q120 120 280 189q167 72 344 72q116 0 220.5 -31t177.5 -82q68 -50 125 -117q98 -123 120 -264l-231 -68q-8 67 -49.5 139t-110.5 124
q-109 81 -272 81q-159 0 -290.5 -78t-211.5 -206q-110 -165 -110 -367q0 -140 58 -243t159 -154q99 -51 225 -51q170 0 299 84q50 33 98 84q66 73 113 172l221 -86q-57 -137 -178 -250q-67 -65 -150 -111q-182 -110 -430 -110z" />
    <glyph glyph-name="cacute" unicode="&#x107;" horiz-adv-x="1173" 
d="M811 1192h-219l280 328h289zM573 -18q-217 0 -350 127q-135 129 -135 335q0 156 82 293t219 219t293 82q99 0 183 -28t139 -76q106 -93 131 -217l-209 -64q-12 68 -78 125q-65 56 -180 56q-71 0 -137 -33.5t-111 -89.5q-46 -54 -72 -122.5t-26 -135.5q0 -123 69 -195
q75 -72 195 -72q118 0 196 68q60 50 99 119l196 -72q-53 -119 -176 -213q-138 -106 -328 -106z" />
    <glyph glyph-name="Ccircumflex" unicode="&#x108;" horiz-adv-x="1632" 
d="M694 1628l361 328h178l176 -328h-205l-86 176l-186 -176h-238zM823 -18q-187 0 -340 81q-146 77 -237 232q-86 151 -86 344q0 169 69 336q72 162 187 280q120 120 280 189q167 72 344 72q116 0 220.5 -31t177.5 -82q68 -50 125 -117q98 -123 120 -264l-231 -68
q-8 67 -49.5 139t-110.5 124q-109 81 -272 81q-159 0 -290.5 -78t-211.5 -206q-110 -165 -110 -367q0 -140 58 -243t159 -154q99 -51 225 -51q170 0 299 84q50 33 98 84q66 73 113 172l221 -86q-57 -137 -178 -250q-67 -65 -150 -111q-182 -110 -430 -110z" />
    <glyph glyph-name="ccircumflex" unicode="&#x109;" horiz-adv-x="1173" 
d="M336 1190l360 330h178l177 -330h-205l-86 176l-187 -176h-237zM573 -18q-217 0 -350 127q-135 129 -135 335q0 156 82 293t219 219t293 82q99 0 183 -28t139 -76q106 -93 131 -217l-209 -64q-12 68 -78 125q-65 56 -180 56q-71 0 -137 -33.5t-111 -89.5
q-46 -54 -72 -122.5t-26 -135.5q0 -123 69 -195q75 -72 195 -72q118 0 196 68q60 50 99 119l196 -72q-53 -119 -176 -213q-138 -106 -328 -106z" />
    <glyph glyph-name="Cdotaccent" unicode="&#x10a;" horiz-adv-x="1632" 
d="M1077 1618q-59 0 -97 37.5t-38 95.5q0 71 47 121q47 47 117 47q59 0 97 -37.5t38 -97.5q0 -70 -47 -117q-49 -49 -117 -49zM823 -18q-187 0 -340 81q-146 77 -237 232q-86 151 -86 344q0 169 69 336q72 162 187 280q120 120 280 189q167 72 344 72q116 0 220.5 -31
t177.5 -82q68 -50 125 -117q98 -123 120 -264l-231 -68q-8 67 -49.5 139t-110.5 124q-109 81 -272 81q-159 0 -290.5 -78t-211.5 -206q-110 -165 -110 -367q0 -140 58 -243t159 -154q99 -51 225 -51q170 0 299 84q50 33 98 84q66 73 113 172l221 -86q-57 -137 -178 -250
q-67 -65 -150 -111q-182 -110 -430 -110z" />
    <glyph glyph-name="cdotaccent" unicode="&#x10b;" horiz-adv-x="1173" 
d="M721 1184q-59 0 -97 37.5t-38 95.5q0 69 47 119q49 49 117 49q58 0 96.5 -38.5t38.5 -96.5q0 -70 -47 -117q-49 -49 -117 -49zM573 -18q-217 0 -350 127q-135 129 -135 335q0 156 82 293t219 219t293 82q99 0 183 -28t139 -76q106 -93 131 -217l-209 -64q-12 68 -78 125
q-65 56 -180 56q-71 0 -137 -33.5t-111 -89.5q-46 -54 -72 -122.5t-26 -135.5q0 -123 69 -195q75 -72 195 -72q118 0 196 68q60 50 99 119l196 -72q-53 -119 -176 -213q-138 -106 -328 -106z" />
    <glyph glyph-name="Ccaron" unicode="&#x10c;" horiz-adv-x="1632" 
d="M1536 1958l-362 -328h-179l-176 328h205l86 -176l188 176h238zM823 -18q-187 0 -340 81q-146 77 -237 232q-86 151 -86 344q0 169 69 336q72 162 187 280q120 120 280 189q167 72 344 72q116 0 220.5 -31t177.5 -82q68 -50 125 -117q98 -123 120 -264l-231 -68
q-8 67 -49.5 139t-110.5 124q-109 81 -272 81q-159 0 -290.5 -78t-211.5 -206q-110 -165 -110 -367q0 -140 58 -243t159 -154q99 -51 225 -51q170 0 299 84q50 33 98 84q66 73 113 172l221 -86q-57 -137 -178 -250q-67 -65 -150 -111q-182 -110 -430 -110z" />
    <glyph glyph-name="ccaron" unicode="&#x10d;" horiz-adv-x="1173" 
d="M1184 1520l-363 -330h-176l-176 330h205l84 -177l188 177h238zM573 -18q-217 0 -350 127q-135 129 -135 335q0 156 82 293t219 219t293 82q99 0 183 -28t139 -76q106 -93 131 -217l-209 -64q-12 68 -78 125q-65 56 -180 56q-71 0 -137 -33.5t-111 -89.5
q-46 -54 -72 -122.5t-26 -135.5q0 -123 69 -195q75 -72 195 -72q118 0 196 68q60 50 99 119l196 -72q-53 -119 -176 -213q-138 -106 -328 -106z" />
    <glyph glyph-name="Dcaron" unicode="&#x10e;" horiz-adv-x="1564" 
d="M1360 1958l-361 -328h-178l-176 328h205l86 -176l186 176h238zM1542 862q0 -332 -229 -573q-134 -140 -336 -214.5t-451 -74.5h-460l395 1493h336q381 0 577 -190q168 -162 168 -441zM1300 860q0 192 -133 307q-129 111 -383 111h-145l-283 -1063h197q211 0 387 84
q172 82 266 229q94 148 94 332z" />
    <glyph glyph-name="dcaron" unicode="&#x10f;" horiz-adv-x="1318" 
d="M1587 1108h-172l146 446h256zM1178 1552h227l-361 -1366q-21 -79 -24 -151v-35h-223q-3 18 0 39q3 48 10 84q-148 -139 -326 -139q-179 0 -286 122q-109 124 -109 310q0 130 49 246q45 113 127 198q79 83 182.5 130.5t210.5 47.5q117 0 205 -48t135 -130zM940 582
q0 110 -72 182q-76 70 -184 70q-99 2 -182.5 -54t-129.5 -149t-44 -199q0 -109 67 -176q67 -70 176 -70q89 0 177 54q85 54 139 143q53 92 53 199z" />
    <glyph glyph-name="Dcroat" unicode="&#x110;" horiz-adv-x="1595" 
d="M1405 1303q170 -164 170 -441q0 -329 -232 -573q-134 -140 -334.5 -214.5t-451.5 -74.5h-459l172 655h-200l55 209h203l166 629h333q382 0 578 -190zM387 215h197q213 0 389 84q170 83 264 229q94 143 94 332q0 194 -131 307q-132 111 -385 111h-143l-111 -414h332
l-55 -209h-334z" />
    <glyph glyph-name="dslash" unicode="&#x111;" horiz-adv-x="1282" 
d="M1491 1364l-45 -166h-135l-267 -1012q-18 -79 -24 -151v-35h-223v39q4 55 10 84q-145 -139 -326 -139q-179 0 -286 122t-107 310q0 135 47 246q50 118 127 198q79 83 182.5 130.5t210.5 47.5q117 0 205 -48t135 -130l90 338h-317l45 166h315l50 188h227l-49 -188h135z
M940 582q0 110 -72 182q-76 70 -184 70q-99 2 -182.5 -54t-129.5 -149t-44 -199q0 -109 67 -176q70 -70 176 -70q89 0 177 54q85 54 139 143q53 89 53 199z" />
    <glyph glyph-name="Emacron" unicode="&#x112;" horiz-adv-x="1263" 
d="M688 1876h662l-50 -180h-659zM1024 4h-958l397 1493h950l-55 -211h-715l-113 -418h652l-56 -211h-651l-119 -442h723z" />
    <glyph glyph-name="emacron" unicode="&#x113;" horiz-adv-x="1169" 
d="M440 1393h662l-47 -183h-662zM1079 442h-764q-6 -123 72 -197t197 -71q97 0 164 47q71 52 104 111l178 -88q-49 -99 -160 -176q-122 -84 -303 -84q-134 -3 -243.5 52.5t-173.5 161.5t-62 242q0 160 82 297q81 136 217 219q134 82 289 82q195 0 311 -116
q119 -122 119 -314q0 -66 -27 -166zM662 844q-111 0 -193 -64q-89 -65 -123 -166h533q2 4 2 23q0 98 -59 152.5t-160 54.5z" />
    <glyph glyph-name="Edotaccent" unicode="&#x116;" horiz-adv-x="1263" 
d="M952 1618q-59 0 -97 37.5t-38 95.5q0 71 47 121q47 47 117 47q59 0 97 -37.5t38 -97.5q0 -70 -47 -117q-49 -49 -117 -49zM1022 0h-959l400 1493h950l-55 -211h-717l-111 -418h650l-56 -209h-651l-119 -444h723z" />
    <glyph glyph-name="edotaccent" unicode="&#x117;" horiz-adv-x="1169" 
d="M711 1184q-59 0 -97.5 37.5t-38.5 95.5q0 69 50 119q46 49 114 49q60 0 99 -38t39 -97q0 -66 -48 -117q-49 -49 -118 -49zM1079 442h-764q-6 -123 72 -197t197 -71q97 0 164 47q71 52 104 111l178 -88q-49 -99 -160 -176q-122 -84 -303 -84q-134 -3 -243.5 52.5
t-173.5 161.5t-62 242q0 160 82 297q81 136 217 219q134 82 289 82q195 0 311 -116q119 -122 119 -314q0 -66 -27 -166zM662 844q-111 0 -193 -64q-89 -65 -123 -166h533q2 4 2 23q0 98 -59 152.5t-160 54.5z" />
    <glyph glyph-name="Eogonek" unicode="&#x118;" horiz-adv-x="1263" 
d="M844 0h-781l400 1493h950l-55 -211h-717l-111 -418h650l-56 -209h-651l-119 -444h723l-55 -211q-10 -7 -27 -18t-22 -15q-3 -2 -12 -9t-18.5 -14.5t-18.5 -15.5q-29 -20 -52 -47q-47 -55 -47 -106q0 -80 129 -80q20 0 90 8l-40 -152q-66 -16 -144 -16q-133 0 -205 78
q-39 42 -39 102q0 144 228 285z" />
    <glyph glyph-name="eogonek" unicode="&#x119;" horiz-adv-x="1169" 
d="M1079 442h-764q-6 -123 72 -197t197 -71q97 0 164 47q71 52 104 111l178 -88q-41 -80 -121 -148q-85 -70 -196 -96h14q-49 -32 -61 -43q-12 -9 -62 -49q-76 -67 -76 -133q0 -80 131 -80h7l-43 -156q-36 -4 -60 -4q-131 0 -203 78q-38 41 -38 102q0 136 202 271
q-193 12 -313 135q-123 123 -123 319q0 160 82 297q81 136 217 219q134 82 289 82q195 0 311 -116q119 -122 119 -314q0 -66 -27 -166zM662 844q-111 0 -193 -64q-89 -65 -123 -166h533q2 4 2 23q0 98 -59 152.5t-160 54.5z" />
    <glyph glyph-name="Ecaron" unicode="&#x11a;" horiz-adv-x="1263" 
d="M1417 1958l-362 -328h-176l-177 328h205l86 -176l187 176h237zM1022 0h-959l400 1493h950l-55 -211h-717l-111 -418h650l-56 -209h-651l-119 -444h723z" />
    <glyph glyph-name="ecaron" unicode="&#x11b;" horiz-adv-x="1169" 
d="M1178 1520l-361 -330h-178l-176 330h205l86 -177l186 177h238zM1079 442h-764q-6 -123 72 -197t197 -71q97 0 164 47q71 52 104 111l178 -88q-49 -99 -160 -176q-122 -84 -303 -84q-134 -3 -243.5 52.5t-173.5 161.5t-62 242q0 160 82 297q81 136 217 219q134 82 289 82
q195 0 311 -116q119 -122 119 -314q0 -66 -27 -166zM662 844q-111 0 -193 -64q-89 -65 -123 -166h533q2 4 2 23q0 98 -59 152.5t-160 54.5z" />
    <glyph glyph-name="Gcircumflex" unicode="&#x11c;" horiz-adv-x="1665" 
d="M686 1628l361 328h178l176 -328h-205l-86 176l-186 -176h-238zM1667 1049l-231 -72q-11 50 -41 108q-38 74 -92 121q-112 94 -289 94q-163 0 -303 -90q-143 -90 -222 -239q-81 -150 -81 -328q0 -127 46.5 -226t147.5 -159.5t246 -60.5q104 0 193.5 30t150.5 82
q122 106 149 226h-540l53 210h793q-12 -166 -74 -306.5t-166 -241.5q-105 -102 -254.5 -157.5t-329.5 -55.5q-159 0 -287.5 50.5t-209.5 141.5q-164 187 -164 455q0 150 45.5 288t128 245.5t191 187t239.5 122t270 42.5q115 0 216.5 -30.5t174.5 -80.5q73 -51 121 -111
q97 -119 119 -245z" />
    <glyph glyph-name="gcircumflex" unicode="&#x11d;" 
d="M385 1190l360 330h179l176 -330h-205l-86 176l-186 -176h-238zM1266 1018l-277 -1049q-62 -225 -209 -352q-148 -127 -381 -127q-92 0 -173.5 25.5t-135.5 68.5q-53 42 -92 99q-72 102 -72 215l217 43q0 -86 60 -164q64 -84 200 -84q141 0 232.5 75t128.5 216l41 155
q-142 -127 -322 -127q-167 0 -278 123q-113 119 -113 305q0 126 47 234q45 106 125 190q79 81 182 127.5t209 46.5q123 0 209 -51q91 -52 137 -131l41 162h224zM932 594q0 108 -66 174q-65 68 -182 68q-145 0 -248 -109q-102 -108 -102 -266q0 -107 67 -174q66 -72 174 -72
q67 0 132.5 29.5t115.5 81.5q50 50 79.5 121.5t29.5 146.5z" />
    <glyph glyph-name="Gbreve" unicode="&#x11e;" horiz-adv-x="1665" 
d="M1667 1049l-231 -72q-11 50 -41 108q-38 74 -92 121q-112 94 -289 94q-163 0 -303 -90q-143 -90 -222 -239q-81 -150 -81 -328q0 -127 46.5 -226t147.5 -159.5t246 -60.5q104 0 193.5 30t150.5 82q122 106 149 226h-540l53 210h793q-12 -166 -74 -306.5t-166 -241.5
q-105 -102 -254.5 -157.5t-329.5 -55.5q-159 0 -287.5 50.5t-209.5 141.5q-164 187 -164 455q0 150 45.5 288t128 245.5t191 187t239.5 122t270 42.5q115 0 216.5 -30.5t174.5 -80.5q73 -51 121 -111q97 -119 119 -245zM1061 1626q-144 0 -223 88q-81 87 -72 236h178
q0 -158 131 -158q72 0 129 45q54 45 72 113h184q-48 -151 -149 -236q-104 -88 -250 -88z" />
    <glyph glyph-name="gbreve" unicode="&#x11f;" 
d="M1266 1018l-277 -1049q-62 -225 -209 -352q-148 -127 -381 -127q-92 0 -173.5 25.5t-135.5 68.5q-53 42 -92 99q-72 102 -72 215l217 43q0 -86 60 -164q64 -84 200 -84q141 0 232.5 75t128.5 216l41 155q-142 -127 -322 -127q-167 0 -278 123q-113 119 -113 305
q0 126 47 234q45 106 125 190q79 81 182 127.5t209 46.5q123 0 209 -51q91 -52 137 -131l41 162h224zM932 594q0 108 -66 174q-65 68 -182 68q-145 0 -248 -109q-102 -108 -102 -266q0 -107 67 -174q66 -72 174 -72q67 0 132.5 29.5t115.5 81.5q50 50 79.5 121.5t29.5 146.5
zM754 1188q-142 0 -224 88q-80 89 -71 235h178q0 -155 131 -155q74 0 129 43q54 45 72 112h184q-48 -150 -149 -233q-107 -90 -250 -90z" />
    <glyph glyph-name="Gdotaccent" unicode="&#x120;" horiz-adv-x="1665" 
d="M1055 1618q-59 0 -96 37t-37 96q0 74 47 121q44 47 116 47q59 0 97.5 -37.5t38.5 -97.5q0 -67 -47 -117q-49 -49 -119 -49zM1667 1049l-231 -72q-11 50 -41 108q-38 74 -92 121q-112 94 -289 94q-163 0 -303 -90q-143 -90 -222 -239q-81 -150 -81 -328q0 -127 46.5 -226
t147.5 -159.5t246 -60.5q104 0 193.5 30t150.5 82q122 106 149 226h-540l53 210h793q-12 -166 -74 -306.5t-166 -241.5q-105 -102 -254.5 -157.5t-329.5 -55.5q-159 0 -287.5 50.5t-209.5 141.5q-164 187 -164 455q0 150 45.5 288t128 245.5t191 187t239.5 122t270 42.5
q115 0 216.5 -30.5t174.5 -80.5q73 -51 121 -111q97 -119 119 -245z" />
    <glyph glyph-name="gdotaccent" unicode="&#x121;" 
d="M752 1184q-59 0 -97.5 37.5t-38.5 95.5q0 68 48 119q49 49 116 49q58 0 96.5 -38.5t38.5 -96.5q0 -70 -47 -117q-49 -49 -116 -49zM1266 1018l-277 -1049q-62 -225 -209 -352q-148 -127 -381 -127q-92 0 -173.5 25.5t-135.5 68.5q-53 42 -92 99q-72 102 -72 215l217 43
q0 -86 60 -164q64 -84 200 -84q141 0 232.5 75t128.5 216l41 155q-142 -127 -322 -127q-167 0 -278 123q-113 119 -113 305q0 126 47 234q45 106 125 190q79 81 182 127.5t209 46.5q123 0 209 -51q91 -52 137 -131l41 162h224zM932 594q0 108 -66 174q-65 68 -182 68
q-145 0 -248 -109q-102 -108 -102 -266q0 -107 67 -174q66 -72 174 -72q67 0 132.5 29.5t115.5 81.5q50 50 79.5 121.5t29.5 146.5z" />
    <glyph glyph-name="Gcommaaccent" unicode="&#x122;" horiz-adv-x="1665" 
d="M1667 1049l-231 -72q-11 50 -41 108q-38 74 -92 121q-112 94 -289 94q-163 0 -303 -90q-143 -90 -222 -239q-81 -150 -81 -328q0 -127 46.5 -226t147.5 -159.5t246 -60.5q104 0 193.5 30t150.5 82q122 106 149 226h-540l53 210h793q-12 -166 -74 -306.5t-166 -241.5
q-105 -102 -254.5 -157.5t-329.5 -55.5q-159 0 -287.5 50.5t-209.5 141.5q-164 187 -164 455q0 150 45.5 288t128 245.5t191 187t239.5 122t270 42.5q115 0 216.5 -30.5t174.5 -80.5q73 -51 121 -111q97 -119 119 -245zM535 -678l22 86q73 9 137 55q63 51 78 117
q-25 -18 -67 -18q-51 0 -81 31t-30 81q0 63 41 101q45 39 104 39q64 0 103 -42.5t39 -109.5q0 -142 -99 -237q-102 -94 -247 -103z" />
    <glyph glyph-name="gcommaaccent" unicode="&#x123;" 
d="M969 1663l-23 -86q-75 -12 -137 -57q-63 -48 -78 -117q24 18 68 18q51 0 81.5 -30t30.5 -80q0 -61 -43 -101q-44 -41 -104 -41q-63 0 -101 43.5t-38 110.5q0 145 98 236q100 95 246 104zM1266 1018l-277 -1049q-62 -225 -209 -352q-148 -127 -381 -127q-92 0 -173.5 25.5
t-135.5 68.5q-53 42 -92 99q-72 102 -72 215l217 43q0 -86 60 -164q64 -84 200 -84q141 0 232.5 75t128.5 216l41 155q-142 -127 -322 -127q-167 0 -278 123q-113 119 -113 305q0 126 47 234q45 106 125 190q79 81 182 127.5t209 46.5q123 0 209 -51q91 -52 137 -131l41 162
h224zM932 594q0 108 -66 174q-65 68 -182 68q-145 0 -248 -109q-102 -108 -102 -266q0 -107 67 -174q66 -72 174 -72q67 0 132.5 29.5t115.5 81.5q50 50 79.5 121.5t29.5 146.5z" />
    <glyph glyph-name="Hbar" unicode="&#x126;" horiz-adv-x="1605" 
d="M1038 0l172 645h-733l-172 -645h-233l293 1100h-148l49 180h146l57 213h236l-58 -213h733l58 213h233l-55 -213h151l-49 -180h-151l-293 -1100h-236zM598 1100l-61 -234h733l61 234h-733z" />
    <glyph glyph-name="hbar" unicode="&#x127;" horiz-adv-x="1206" 
d="M252 1364h133l49 188h228l-50 -188h318l-43 -166h-318l-77 -295q147 135 303 135q150 0 233 -86q84 -84 84 -223q0 -60 -29 -176l-147 -553h-227l147 559q14 52 14 100q0 79 -48 121.5t-134 42.5q-104 0 -180 -73q-81 -78 -107 -185l-147 -565h-227l315 1198h-133z" />
    <glyph glyph-name="Itilde" unicode="&#x128;" horiz-adv-x="624" 
d="M874 1929h144q-24 -115 -76 -188q-64 -86 -184 -86q-70 0 -133 47q-61 49 -113 49q-33 0 -58 -27t-36 -67h-158q27 118 80 190q61 86 182 86q49 1 134 -47.5t114 -46.5q67 0 104 90zM63 0l400 1493h233l-397 -1493h-236z" />
    <glyph glyph-name="itilde" unicode="&#x129;" horiz-adv-x="536" 
d="M705 1483h143q-24 -112 -78 -189q-61 -86 -182 -86q-74 0 -133 47q-60 48 -113 48q-33 0 -58 -26.5t-36 -66.5h-158q27 120 80 191q60 84 182 84q38 2 86 -22t91.5 -48t70.5 -22q34 0 61.5 25.5t43.5 64.5zM25 0l268 1018h229l-268 -1018h-229z" />
    <glyph glyph-name="Imacron" unicode="&#x12a;" horiz-adv-x="624" 
d="M360 1876h605l-50 -180h-604zM63 0l400 1493h233l-397 -1493h-236z" />
    <glyph glyph-name="imacron" unicode="&#x12b;" horiz-adv-x="536" 
d="M193 1393h593l-47 -183h-596zM25 0l268 1018h229l-268 -1018h-229z" />
    <glyph glyph-name="Ibreve" unicode="&#x12c;" horiz-adv-x="624" 
d="M63 0l400 1493h233l-397 -1493h-236zM627 1626q-147 0 -226 88q-77 83 -71 236h180q0 -158 131 -158q70 0 127 45q55 43 74 113h182q-47 -149 -147 -236q-104 -88 -250 -88z" />
    <glyph glyph-name="ibreve" unicode="&#x12d;" horiz-adv-x="536" 
d="M25 0l268 1018h229l-268 -1018h-229zM457 1188q-142 0 -224 88q-80 89 -71 235h178q0 -155 131 -155q74 0 129 43q54 45 72 112h184q-48 -150 -149 -233q-107 -90 -250 -90z" />
    <glyph glyph-name="Iogonek" unicode="&#x12e;" horiz-adv-x="624" 
d="M696 1493l-397 -1493q-9 -5 -18 -11.5t-18 -12.5t-13 -9q-22 -15 -49 -39q-27 -18 -51 -47q-48 -56 -48 -106q0 -80 129 -80h7l-43 -156q-40 -4 -60 -4q-130 0 -205 78q-36 42 -36 102q0 145 227 285h-58l400 1493h233z" />
    <glyph glyph-name="iogonek" unicode="&#x12f;" horiz-adv-x="536" 
d="M510 1499q59 0 97 -37.5t38 -97.5q0 -68 -49 -117t-117 -49q-59 0 -96 37t-37 96q0 72 47 119q46 49 117 49zM25 0l268 1018h229l-268 -1018q-9 -5 -18 -11.5t-18 -12.5t-13 -9q-8 -5 -51 -39q-31 -25 -50 -47q-49 -57 -49 -106q0 -80 131 -80h7l-43 -156q-40 -4 -60 -4
q-130 0 -205 78q-39 45 -39 102q0 143 230 285h-51z" />
    <glyph glyph-name="Idot" unicode="&#x130;" horiz-adv-x="624" 
d="M63 0l400 1493h233l-397 -1493h-236zM637 1618q-59 0 -97 37.5t-38 95.5q0 71 47 121q47 47 117 47q59 0 97 -37.5t38 -97.5q0 -70 -47 -117q-49 -49 -117 -49z" />
    <glyph glyph-name="dotlessi" unicode="&#x131;" horiz-adv-x="536" 
d="M25 0l268 1018h229l-268 -1018h-229z" />
    <glyph glyph-name="IJ" unicode="&#x132;" horiz-adv-x="1310" 
d="M428 539l-2 -11q-23 -94 -23 -133q0 -91 52 -142.5t141 -51.5q105 0 181 64t104 175l278 1053h236l-285 -1090q-55 -205 -194.5 -312t-342.5 -107q-162 0 -278 96q-59 48 -92 127.5t-33 179.5q0 61 16 137zM442 1493h236l-193 -739h-237z" />
    <glyph glyph-name="Kcommaaccent" unicode="&#x136;" horiz-adv-x="1351" 
d="M961 0l-474 709l-190 -709h-234l400 1493h233l-170 -641l752 641h330l-883 -743l514 -750h-278zM311 -678l23 86q74 9 135 55q61 47 80 117q-29 -18 -68 -18q-51 0 -81.5 31t-30.5 81q0 61 43 101q42 39 102 39q64 0 102.5 -42.5t38.5 -109.5q0 -143 -98 -237
q-102 -94 -246 -103z" />
    <glyph glyph-name="kcommaaccent" unicode="&#x137;" horiz-adv-x="1105" 
d="M713 0l-322 508h-4l-133 -508h-227l407 1552h228l-244 -927h4l479 393h330l-604 -486l356 -532h-270zM178 -678l23 86q73 9 137 55q63 51 78 117q-25 -18 -68 -18q-51 0 -81.5 31t-30.5 81q0 61 43 101q42 39 104 39q64 0 101.5 -42.5t37.5 -109.5q0 -145 -96 -237
q-105 -94 -248 -103z" />
    <glyph glyph-name="Lacute" unicode="&#x139;" horiz-adv-x="1126" 
d="M721 1628h-219l280 328h289zM973 0h-910l400 1493h233l-340 -1278h674z" />
    <glyph glyph-name="lacute" unicode="&#x13a;" horiz-adv-x="536" 
d="M692 1683h-221l283 328h288zM25 0l409 1552h228l-410 -1552h-227z" />
    <glyph glyph-name="Lcommaaccent" unicode="&#x13b;" horiz-adv-x="1126" 
d="M973 0h-910l400 1493h233l-340 -1278h674zM256 -678l20 86q74 9 138 55q63 51 78 117q-25 -18 -68 -18q-49 0 -80 31t-31 81q0 61 43 101q42 39 103 39q64 0 102.5 -42.5t38.5 -109.5q0 -143 -98 -237q-102 -94 -246 -103z" />
    <glyph glyph-name="lcommaaccent" unicode="&#x13c;" horiz-adv-x="536" 
d="M25 0l409 1552h228l-410 -1552h-227zM-152 -678l23 86q73 9 137 55q63 51 78 117q-25 -18 -68 -18q-50 0 -80 31t-30 81q0 63 41 101q45 39 104 39q64 0 103 -42.5t39 -109.5q0 -142 -99 -237q-102 -94 -248 -103z" />
    <glyph glyph-name="Lcaron" unicode="&#x13d;" horiz-adv-x="1136" 
d="M1081 1108h-170l146 446h254zM973 0h-910l400 1493h233l-340 -1278h674z" />
    <glyph glyph-name="lcaron" unicode="&#x13e;" horiz-adv-x="573" 
d="M842 1108h-170l145 446h256zM25 0l409 1552h228l-410 -1552h-227z" />
    <glyph glyph-name="Ldot" unicode="&#x13f;" horiz-adv-x="1150" 
d="M973 0h-910l400 1493h233l-340 -1278h674zM1004 592q69 0 116 47q49 49 49 119q0 58 -38 95.5t-97 37.5q-67 0 -116 -49q-48 -48 -48 -117q0 -58 37.5 -95.5t96.5 -37.5z" />
    <glyph glyph-name="ldot" unicode="&#x140;" horiz-adv-x="808" 
d="M25 0l409 1552h228l-410 -1552h-227zM715 573q68 0 116 48q50 50 50 116q0 59 -39.5 96t-98.5 37q-70 0 -114 -47q-49 -49 -49 -116q0 -60 38 -97t97 -37z" />
    <glyph glyph-name="Lslash" unicode="&#x141;" horiz-adv-x="1167" 
d="M397 215h674l-57 -215h-910l160 594l-221 -88l61 225l222 88l178 674h235l-151 -567l475 190l-59 -225l-478 -191z" />
    <glyph glyph-name="lslash" unicode="&#x142;" horiz-adv-x="757" 
d="M823 989l-59 -231l-223 -111l-172 -647h-226l133 512l-223 -113l62 232l223 112l213 809h227l-178 -678z" />
    <glyph glyph-name="Nacute" unicode="&#x143;" horiz-adv-x="1644" 
d="M1233 1628h-219l280 328h289zM1485 1493h231l-397 -1493h-270l-441 1163l-311 -1163h-234l400 1493h270l441 -1163z" />
    <glyph glyph-name="nacute" unicode="&#x144;" horiz-adv-x="1206" 
d="M885 1192h-219l280 328h289zM936 0h-227l147 559q14 49 14 100q0 80 -48 122t-134 42q-104 0 -180 -73q-81 -78 -107 -185l-147 -565h-227l266 1018h223l-33 -119q148 139 312 139q147 0 233 -86q84 -84 84 -223q0 -61 -31 -176z" />
    <glyph glyph-name="Ncommaaccent" unicode="&#x145;" horiz-adv-x="1644" 
d="M1485 1493h231l-397 -1493h-270l-441 1163l-311 -1163h-234l400 1493h270l441 -1163zM440 -678l23 86q73 9 137 55q63 51 78 117q-25 -18 -68 -18q-50 0 -80 31t-30 81q0 64 43 101q42 39 102 39q64 0 102.5 -42.5t38.5 -109.5q0 -143 -98 -237q-102 -94 -248 -103z" />
    <glyph glyph-name="ncommaaccent" unicode="&#x146;" horiz-adv-x="1206" 
d="M936 0h-227l147 559q14 49 14 100q0 80 -48 122t-134 42q-104 0 -180 -73q-81 -78 -107 -185l-147 -565h-227l266 1018h223l-33 -119q148 139 312 139q147 0 233 -86q84 -84 84 -223q0 -61 -31 -176zM219 -678l23 86q73 9 137 55q63 51 78 117q-25 -18 -68 -18
q-51 0 -82 31t-31 81q0 61 43 101q42 39 105 39q64 0 101.5 -42.5t37.5 -109.5q0 -145 -96 -237q-105 -94 -248 -103z" />
    <glyph glyph-name="Ncaron" unicode="&#x147;" horiz-adv-x="1644" 
d="M1591 1958l-362 -328h-176l-176 328h204l86 -176l187 176h237zM1485 1493h231l-397 -1493h-270l-441 1163l-311 -1163h-234l400 1493h270l441 -1163z" />
    <glyph glyph-name="ncaron" unicode="&#x148;" horiz-adv-x="1206" 
d="M1239 1520l-360 -330h-179l-176 330h205l86 -177l189 177h235zM936 0h-227l147 559q14 49 14 100q0 80 -48 122t-134 42q-104 0 -180 -73q-81 -78 -107 -185l-147 -565h-227l266 1018h223l-33 -119q148 139 312 139q147 0 233 -86q84 -84 84 -223q0 -61 -31 -176z" />
    <glyph glyph-name="Eng" unicode="&#x14a;" horiz-adv-x="1642" 
d="M1081 -14l-471 1183l-313 -1169h-234l400 1493h270l449 -1133l303 1133h231l-452 -1696q-41 -154 -124.5 -227.5t-228.5 -73.5q-113 0 -172 33l49 188q46 -16 82 -16q73 0 113 36.5t61 112.5z" />
    <glyph glyph-name="eng" unicode="&#x14b;" horiz-adv-x="1206" 
d="M668 -150l188 709q14 49 14 100q0 80 -48 122t-134 42q-104 0 -180 -73q-81 -78 -107 -185l-147 -565h-227l266 1018h223l-33 -119q148 139 312 139q147 0 233 -86q84 -84 84 -223q0 -61 -31 -176l-198 -756q-41 -155 -122 -228t-224 -73q-110 0 -172 33l49 188
q46 -16 82 -16q135 0 172 149z" />
    <glyph glyph-name="Omacron" unicode="&#x14c;" horiz-adv-x="1720" 
d="M799 1876h659l-47 -180h-661zM819 -18q-192 0 -346 86q-152 87 -231 233q-82 146 -82 332q0 167 64.5 326t181.5 282q117 128 279.5 201t348.5 74q144 0 269 -49.5t213 -137.5q87 -89 135.5 -209.5t48.5 -255.5q0 -166 -65 -325t-183 -283q-165 -176 -387 -240
q-118 -34 -246 -34zM846 199q152 0 282.5 79.5t212.5 208.5q111 171 111 367q0 198 -119 320q-118 124 -321 124q-154 0 -285 -79.5t-211 -208.5q-113 -170 -113 -367q0 -194 119 -319t324 -125z" />
    <glyph glyph-name="omacron" unicode="&#x14d;" horiz-adv-x="1236" 
d="M451 1393h661l-47 -183h-662zM682 1038q211 0 344 -127q133 -124 133 -338q0 -152 -80 -288q-81 -138 -217 -219q-141 -84 -297 -84q-209 0 -342 127q-135 126 -135 333q0 121 47 226q45 105 127 190q83 83 191 131q110 49 229 49zM580 186q91 0 176 60q82 57 127 143
q45 92 45 178q0 125 -72 197q-70 70 -188 70q-71 0 -138 -33.5t-112 -89.5q-99 -124 -99 -258q0 -123 72 -195q75 -72 189 -72z" />
    <glyph glyph-name="Ohungarumlaut" unicode="&#x150;" horiz-adv-x="1720" 
d="M971 1628h-219l280 328h289zM1376 1628h-219l281 328h288zM819 -18q-192 0 -346 86q-152 87 -231 233q-82 146 -82 332q0 167 64.5 326t181.5 282q117 128 279.5 201t348.5 74q144 0 269 -49.5t213 -137.5q87 -89 135.5 -209.5t48.5 -255.5q0 -166 -65 -325t-183 -283
q-165 -176 -387 -240q-118 -34 -246 -34zM846 199q152 0 282.5 79.5t212.5 208.5q111 171 111 367q0 198 -119 320q-118 124 -321 124q-154 0 -285 -79.5t-211 -208.5q-113 -170 -113 -367q0 -194 119 -319t324 -125z" />
    <glyph glyph-name="ohungarumlaut" unicode="&#x151;" horiz-adv-x="1236" 
d="M625 1192h-217l280 328h289zM1032 1192h-219l281 328h288zM682 1038q211 0 344 -127q133 -124 133 -338q0 -152 -80 -288q-81 -138 -217 -219q-141 -84 -297 -84q-209 0 -342 127q-135 126 -135 333q0 121 47 226q45 105 127 190q83 83 191 131q110 49 229 49zM580 186
q91 0 176 60q82 57 127 143q45 92 45 178q0 125 -72 197q-70 70 -188 70q-71 0 -138 -33.5t-112 -89.5q-99 -124 -99 -258q0 -123 72 -195q75 -72 189 -72z" />
    <glyph glyph-name="OE" unicode="&#x152;" horiz-adv-x="2447" 
d="M2540 1282h-717l-111 -418h651l-57 -209h-649l-119 -444h723l-55 -211h-959l45 172q-196 -190 -491 -190q-186 0 -334 86q-147 86 -227 233q-80 148 -80 332q0 167 64.5 326t181.5 282q119 128 280.5 201t347.5 74q188 0 325.5 -81t211.5 -225l76 283h950zM846 199
q154 0 284.5 79.5t210.5 208.5q113 169 113 367q0 196 -121 320q-118 124 -321 124q-155 0 -286.5 -79.5t-211.5 -208.5q-108 -166 -108 -367q0 -198 118 -319q119 -125 322 -125z" />
    <glyph glyph-name="oe" unicode="&#x153;" horiz-adv-x="1974" 
d="M1882 444h-766q-6 -123 73.5 -198t196.5 -72q106 0 173 47t106 111l178 -88q-48 -98 -168 -176q-128 -84 -303 -84q-130 0 -230 51.5t-157 146.5q-79 -94 -188 -147t-230 -53q-208 0 -344 127q-135 126 -135 333q0 154 80 293q78 137 215 219q136 84 297 84
q130 0 230 -51.5t157 -146.5q77 93 185 145.5t227 52.5q195 0 311 -116q117 -120 117 -314q0 -75 -25 -164zM1464 844q-109 0 -194 -64q-87 -66 -121 -166h532q2 4 2 23q0 100 -58.5 153.5t-160.5 53.5zM580 186q99 0 178 58q80 54 127 143q43 85 43 178q0 129 -70 199
t-188 70q-98 0 -181 -56q-79 -56 -124 -145q-43 -87 -43 -180q0 -122 71 -193q71 -74 187 -74z" />
    <glyph glyph-name="Racute" unicode="&#x154;" horiz-adv-x="1388" 
d="M1038 1628h-219l281 328h289zM1430 1092q0 -193 -119 -318q-121 -124 -328 -170l193 -604h-254l-166 567h-305l-152 -567h-236l400 1493h438q255 0 392 -104.5t137 -296.5zM1188 1069q0 101 -75.5 155t-227.5 54h-244l-135 -502h256q196 0 311 80t115 213z" />
    <glyph glyph-name="racute" unicode="&#x155;" horiz-adv-x="753" 
d="M688 1192h-219l281 328h288zM852 1020l-64 -240q-62 15 -83 15q-110 0 -197 -78q-90 -81 -119 -199l-135 -518h-227l268 1018h221l-35 -133q69 74 140 107.5t157 33.5q47 0 74 -6z" />
    <glyph glyph-name="Rcommaaccent" unicode="&#x156;" horiz-adv-x="1388" 
d="M1430 1092q0 -193 -119 -318q-121 -124 -328 -170l193 -604h-254l-166 567h-305l-152 -567h-236l400 1493h438q255 0 392 -104.5t137 -296.5zM1188 1069q0 101 -75.5 155t-227.5 54h-244l-135 -502h256q196 0 311 80t115 213zM338 -678l22 86q74 9 138 55q62 50 77 117
q-25 -18 -67 -18q-51 0 -81 31t-30 81q0 64 43 101q42 39 103 39q64 0 102.5 -42.5t38.5 -109.5q0 -143 -98 -237q-102 -94 -248 -103z" />
    <glyph glyph-name="rcommaaccent" unicode="&#x157;" horiz-adv-x="753" 
d="M852 1020l-64 -240q-62 15 -83 15q-110 0 -197 -78q-90 -81 -119 -199l-135 -518h-227l268 1018h221l-35 -133q69 74 140 107.5t157 33.5q47 0 74 -6zM-139 -678l22 86q74 9 135 55q61 47 80 117q-29 -18 -67 -18q-51 0 -82 31t-31 81q0 61 43 101q42 39 102 39
q64 0 103 -42.5t39 -109.5q0 -142 -99 -237q-102 -94 -245 -103z" />
    <glyph glyph-name="Rcaron" unicode="&#x158;" horiz-adv-x="1388" 
d="M1399 1958l-363 -328h-176l-176 328h205l84 -176l188 176h238zM1430 1092q0 -193 -119 -318q-121 -124 -328 -170l193 -604h-254l-166 567h-305l-152 -567h-236l400 1493h438q255 0 392 -104.5t137 -296.5zM1188 1069q0 101 -75.5 155t-227.5 54h-244l-135 -502h256
q196 0 311 80t115 213z" />
    <glyph glyph-name="rcaron" unicode="&#x159;" horiz-adv-x="753" 
d="M1042 1520l-360 -330h-178l-176 330h204l86 -177l187 177h237zM852 1020l-64 -240q-62 15 -83 15q-110 0 -197 -78q-90 -81 -119 -199l-135 -518h-227l268 1018h221l-35 -133q69 74 140 107.5t157 33.5q47 0 74 -6z" />
    <glyph glyph-name="Sacute" unicode="&#x15a;" horiz-adv-x="1259" 
d="M926 1628h-219l280 328h289zM918 414q0 66 -46 112q-46 43 -147 86l-141 62q-143 61 -224 151q-79 85 -79 226q0 102 43.5 191t117.5 151q159 123 357 123q105 0 194.5 -28.5t147.5 -74.5q50 -42 90 -104q65 -103 65 -219l-229 -37q0 53 -23 106q-13 34 -45 70
q-30 33 -86 54.5t-127 21.5q-106 0 -186 -62t-80 -158q0 -66 36 -109t110 -75l161 -72q147 -62 234 -145q98 -91 98 -248q0 -86 -36 -166.5t-101 -144.5q-66 -66 -166 -103.5t-215 -37.5q-173 0 -305 69q-141 75 -207 213q-43 90 -43 185q0 18 2 55l231 41q-2 -16 -2 -51
q0 -140 91 -222q90 -81 233 -81q114 0 197 59q80 56 80 162z" />
    <glyph glyph-name="sacute" unicode="&#x15b;" horiz-adv-x="952" 
d="M659 1192h-219l281 328h289zM582 281q0 71 -97 116l-108 49q-107 49 -160 112t-53 151q0 135 104 233q107 96 275 96q79 0 145.5 -20.5t108.5 -54.5q38 -30 65 -74q47 -77 47 -156l-198 -33q0 57 -44 107.5t-128 50.5q-69 0 -108.5 -35t-39.5 -84q0 -68 74 -98l129 -57
q223 -96 223 -277q0 -117 -94 -219q-47 -49 -125 -78.5t-170 -29.5q-273 0 -365 188q-28 64 -28 125q0 16 2 22l196 35v-16q0 -73 56 -123q58 -49 137 -49q70 0 113 37t43 82z" />
    <glyph glyph-name="Scircumflex" unicode="&#x15c;" horiz-adv-x="1259" 
d="M479 1628l361 328h178l176 -328h-205l-86 176l-186 -176h-238zM918 414q0 66 -46 112q-46 43 -147 86l-141 62q-143 61 -224 151q-79 85 -79 226q0 102 43.5 191t117.5 151q159 123 357 123q105 0 194.5 -28.5t147.5 -74.5q50 -42 90 -104q65 -103 65 -219l-229 -37
q0 53 -23 106q-13 34 -45 70q-30 33 -86 54.5t-127 21.5q-106 0 -186 -62t-80 -158q0 -66 36 -109t110 -75l161 -72q147 -62 234 -145q98 -91 98 -248q0 -86 -36 -166.5t-101 -144.5q-66 -66 -166 -103.5t-215 -37.5q-173 0 -305 69q-141 75 -207 213q-43 90 -43 185
q0 18 2 55l231 41q-2 -16 -2 -51q0 -140 91 -222q90 -81 233 -81q114 0 197 59q80 56 80 162z" />
    <glyph glyph-name="scircumflex" unicode="&#x15d;" horiz-adv-x="952" 
d="M219 1190l363 330h176l176 -330h-205l-84 176l-188 -176h-238zM582 281q0 71 -97 116l-108 49q-107 49 -160 112t-53 151q0 135 104 233q107 96 275 96q79 0 145.5 -20.5t108.5 -54.5q38 -30 65 -74q47 -77 47 -156l-198 -33q0 57 -44 107.5t-128 50.5q-69 0 -108.5 -35
t-39.5 -84q0 -68 74 -98l129 -57q223 -96 223 -277q0 -117 -94 -219q-47 -49 -125 -78.5t-170 -29.5q-273 0 -365 188q-28 64 -28 125q0 16 2 22l196 35v-16q0 -73 56 -123q58 -49 137 -49q70 0 113 37t43 82z" />
    <glyph glyph-name="Scedilla" unicode="&#x15e;" horiz-adv-x="1259" 
d="M666 901l161 -72q147 -62 234 -145q98 -91 98 -248q0 -105 -49.5 -198.5t-144.5 -159.5q-98 -67 -228 -88q23 -59 23 -115q0 -163 -105 -251.5t-295 -88.5q-18 0 -88 8q-44 5 -79 19l40 149q67 -18 129 -18q224 0 224 225q0 22 -4 68q-156 12 -271 82q-122 71 -182 198
q-43 90 -43 185q0 18 2 55l231 41q-2 -16 -2 -51q0 -140 91 -222q90 -81 233 -81q114 0 197 59q80 56 80 162q0 66 -46 112q-46 43 -147 86l-141 62q-143 61 -224 151q-79 85 -79 226q0 102 43.5 191t117.5 151q159 123 357 123q105 0 194.5 -28.5t147.5 -74.5
q50 -42 90 -104q65 -103 65 -219l-229 -37q0 53 -23 106q-13 34 -45 70q-30 33 -86 54.5t-127 21.5q-106 0 -186 -62t-80 -158q0 -66 36 -109t110 -75z" />
    <glyph glyph-name="scedilla" unicode="&#x15f;" horiz-adv-x="952" 
d="M465 641l129 -57q223 -96 223 -277q0 -151 -133 -250q-68 -54 -168 -69q23 -64 23 -113q0 -163 -106 -251.5t-296 -88.5q-20 0 -86 8q-50 6 -80 19l39 149q68 -18 131 -18q110 0 167 56.5t57 168.5q0 26 -7 66q-216 21 -295 184q-28 64 -28 125q0 16 2 22l196 35v-16
q0 -73 56 -123q58 -49 137 -49q70 0 113 37t43 82q0 71 -97 116l-108 49q-107 49 -160 112t-53 151q0 135 104 233q107 96 275 96q79 0 145.5 -20.5t108.5 -54.5q38 -30 65 -74q47 -77 47 -156l-198 -33q0 57 -44 107.5t-128 50.5q-69 0 -108.5 -35t-39.5 -84q0 -68 74 -98z
" />
    <glyph glyph-name="Scaron" unicode="&#x160;" horiz-adv-x="1259" 
d="M1321 1958l-360 -328h-179l-176 328h205l86 -176l188 176h236zM918 414q0 66 -46 112q-46 43 -147 86l-141 62q-143 61 -224 151q-79 85 -79 226q0 102 43.5 191t117.5 151q159 123 357 123q105 0 194.5 -28.5t147.5 -74.5q50 -42 90 -104q65 -103 65 -219l-229 -37
q0 53 -23 106q-13 34 -45 70q-30 33 -86 54.5t-127 21.5q-106 0 -186 -62t-80 -158q0 -66 36 -109t110 -75l161 -72q147 -62 234 -145q98 -91 98 -248q0 -86 -36 -166.5t-101 -144.5q-66 -66 -166 -103.5t-215 -37.5q-173 0 -305 69q-141 75 -207 213q-43 90 -43 185
q0 18 2 55l231 41q-2 -16 -2 -51q0 -140 91 -222q90 -81 233 -81q114 0 197 59q80 56 80 162z" />
    <glyph glyph-name="scaron" unicode="&#x161;" horiz-adv-x="952" 
d="M1049 1520l-361 -330h-178l-176 330h205l86 -177l186 177h238zM582 281q0 71 -97 116l-108 49q-107 49 -160 112t-53 151q0 135 104 233q107 96 275 96q79 0 145.5 -20.5t108.5 -54.5q38 -30 65 -74q47 -77 47 -156l-198 -33q0 57 -44 107.5t-128 50.5q-69 0 -108.5 -35
t-39.5 -84q0 -68 74 -98l129 -57q223 -96 223 -277q0 -117 -94 -219q-47 -49 -125 -78.5t-170 -29.5q-273 0 -365 188q-28 64 -28 125q0 16 2 22l196 35v-16q0 -73 56 -123q58 -49 137 -49q70 0 113 37t43 82z" />
    <glyph glyph-name="uni0162" unicode="&#x162;" horiz-adv-x="1251" 
d="M59 -438l41 149q68 -18 129 -18q224 0 224 225q0 52 -9 82h-67l340 1278h-473l57 215h1184l-60 -215h-473l-342 -1278h-8q25 -70 25 -125q0 -163 -105 -251.5t-295 -88.5q-18 0 -88 8q-46 5 -80 19z" />
    <glyph glyph-name="uni0163" unicode="&#x163;" horiz-adv-x="798" 
d="M84 -307q223 0 223 225q0 78 -16 105l2 2q-117 61 -117 215q0 15 19 104l122 469h-194l53 205h197l82 315h227l-84 -315h254l-53 -205h-254l-121 -467q-10 -48 -10 -61q0 -36 20 -58.5t47 -27.5q18 -4 66 -4q42 0 88 10l-53 -193q-64 -18 -121 -22q20 -65 20 -115
q0 -163 -104.5 -251.5t-294.5 -88.5q-40 0 -105 10l41 154q46 -6 66 -6z" />
    <glyph glyph-name="Tcaron" unicode="&#x164;" horiz-adv-x="1251" 
d="M1370 1958l-360 -328h-179l-176 328h205l86 -176l187 176h237zM952 1278l-342 -1278h-233l340 1278h-473l57 215h1184l-60 -215h-473z" />
    <glyph glyph-name="tcaron" unicode="&#x165;" horiz-adv-x="798" 
d="M926 1116h-172l141 438h256zM799 813h-254l-121 -467q-10 -48 -10 -61q0 -36 20 -58.5t47 -27.5q18 -4 66 -4q42 0 88 10l-53 -193q-77 -22 -129 -22q-131 0 -204 63.5t-73 186.5q0 15 19 104l122 469h-194l53 205h197l82 315h227l-84 -315h254z" />
    <glyph glyph-name="Tbar" unicode="&#x166;" 
d="M561 645h-254l53 203h254l115 428h-473l57 217h1182l-57 -217h-475l-113 -428h252l-53 -203h-254l-172 -645h-234z" />
    <glyph glyph-name="tbar" unicode="&#x167;" horiz-adv-x="808" 
d="M45 440l51 197h185l47 176h-195l53 205h195l84 315h225l-82 -315h252l-53 -205h-254l-45 -176h217l-51 -197h-217l-25 -94q-10 -48 -10 -61q0 -36 20.5 -58.5t49.5 -27.5q18 -4 65 -4q40 0 86 10l-51 -193q-77 -22 -129 -22q-131 0 -204 63.5t-73 186.5q0 30 19 104
l24 96h-184z" />
    <glyph glyph-name="Utilde" unicode="&#x168;" horiz-adv-x="1505" 
d="M1339 1929h144q-23 -111 -78 -188q-61 -86 -182 -86q-74 0 -133 47q-61 49 -113 49q-33 0 -58 -27t-36 -67h-158q27 118 80 190q61 86 182 86q47 1 132 -47.5t116 -46.5q33 0 60.5 25.5t43.5 64.5zM690 -18q-235 0 -368 118q-136 121 -136 330q0 99 31 217l225 846h236
l-236 -879q-18 -73 -18 -151q0 -118 76 -191q77 -71 213 -71q149 0 253.5 98t155.5 289l240 905h235l-251 -940q-151 -571 -656 -571z" />
    <glyph glyph-name="utilde" unicode="&#x169;" horiz-adv-x="1208" 
d="M1036 1483h144q-24 -116 -76 -189q-61 -86 -184 -86q-71 0 -134 47q-56 48 -110 48q-35 0 -60 -26.5t-36 -66.5h-158q27 120 80 191q63 84 184 84q38 2 86.5 -22t91 -48t68.5 -22q67 0 104 90zM963 1018h227l-217 -832q-27 -95 -27 -151v-35h-225v37q10 81 10 82
q-142 -139 -309 -139q-148 0 -234 83q-84 87 -84 226q0 57 29 176l148 553h227l-150 -559q-10 -39 -10 -101q0 -81 47 -122t133 -41q105 0 181 73t106 185z" />
    <glyph glyph-name="Umacron" unicode="&#x16a;" horiz-adv-x="1505" 
d="M813 1876h662l-50 -180h-661zM690 -18q-235 0 -368 118q-136 121 -136 330q0 99 31 217l225 846h236l-236 -879q-18 -73 -18 -151q0 -118 76 -191q77 -71 213 -71q149 0 253.5 98t155.5 289l240 905h235l-251 -940q-151 -571 -656 -571z" />
    <glyph glyph-name="umacron" unicode="&#x16b;" horiz-adv-x="1208" 
d="M502 1393h659l-47 -183h-661zM963 1018h227l-217 -832q-27 -95 -27 -151v-35h-225v37q10 81 10 82q-142 -139 -309 -139q-148 0 -234 83q-84 87 -84 226q0 57 29 176l148 553h227l-150 -559q-10 -39 -10 -101q0 -81 47 -122t133 -41q105 0 181 73t106 185z" />
    <glyph glyph-name="Uring" unicode="&#x16e;" horiz-adv-x="1505" 
d="M1372 1919q0 -120 -86 -209q-85 -88 -219 -88q-106 0 -176 64q-70 61 -70 165q0 121 88 209q87 90 217 90q107 0 177 -61q69 -63 69 -170zM1212 1907q0 44 -27.5 70t-72.5 26q-54 0 -94 -43q-37 -43 -37 -96q0 -44 27.5 -69.5t72.5 -25.5q55 0 95 43q36 42 36 95z
M690 -18q-235 0 -368 118q-136 121 -136 330q0 99 31 217l225 846h236l-236 -879q-18 -73 -18 -151q0 -118 76 -191q77 -71 213 -71q149 0 253.5 98t155.5 289l240 905h235l-251 -940q-151 -571 -656 -571z" />
    <glyph glyph-name="uring" unicode="&#x16f;" horiz-adv-x="1208" 
d="M1094 1446q0 -120 -86 -209q-85 -88 -220 -88q-108 0 -174 63q-71 59 -71 166q0 118 88 209q89 92 217 92q104 0 176 -63q70 -64 70 -170zM934 1434q0 45 -27.5 70.5t-72.5 25.5q-55 0 -95 -43q-37 -43 -37 -96q0 -44 28 -69.5t73 -25.5q54 0 94 43q37 43 37 95z
M963 1018h227l-217 -832q-27 -95 -27 -151v-35h-225v37q10 81 10 82q-142 -139 -309 -139q-148 0 -234 83q-84 87 -84 226q0 57 29 176l148 553h227l-150 -559q-10 -39 -10 -101q0 -81 47 -122t133 -41q105 0 181 73t106 185z" />
    <glyph glyph-name="Uhungarumlaut" unicode="&#x170;" horiz-adv-x="1505" 
d="M938 1628h-219l282 328h289zM1346 1628h-220l281 328h289zM690 -18q-235 0 -368 118q-136 121 -136 330q0 99 31 217l225 846h236l-236 -879q-18 -73 -18 -151q0 -118 76 -191q77 -71 213 -71q149 0 253.5 98t155.5 289l240 905h235l-251 -940q-151 -571 -656 -571z" />
    <glyph glyph-name="uhungarumlaut" unicode="&#x171;" horiz-adv-x="1208" 
d="M664 1192h-220l283 328h287zM1071 1192h-221l283 328h288zM963 1018h227l-217 -832q-27 -95 -27 -151v-35h-225v37q10 81 10 82q-142 -139 -309 -139q-148 0 -234 83q-84 87 -84 226q0 57 29 176l148 553h227l-150 -559q-10 -39 -10 -101q0 -81 47 -122t133 -41
q105 0 181 73t106 185z" />
    <glyph glyph-name="Uogonek" unicode="&#x172;" horiz-adv-x="1505" 
d="M860 0q-46 -32 -47 -33q-22 -15 -49 -39q-33 -25 -51 -47q-49 -57 -49 -106q0 -80 131 -80h4l-41 -156q-40 -4 -60 -4q-132 0 -204 78q-39 45 -39 102q0 135 200 267q-221 12 -344 129q-125 116 -125 319q0 99 31 217l225 846h236l-236 -879q-18 -73 -18 -151
q0 -118 76 -191q77 -71 213 -71q149 0 253.5 98t155.5 289l240 905h235l-251 -940q-126 -471 -486 -553z" />
    <glyph glyph-name="uogonek" unicode="&#x173;" horiz-adv-x="1208" 
d="M1190 1018l-217 -832q-27 -95 -27 -151v-35q-12 -8 -32.5 -22.5t-28.5 -20.5q-12 -9 -62 -49q-75 -66 -75 -133q0 -80 133 -80h4l-43 -156q-36 -4 -58 -4q-132 0 -204 78q-39 42 -39 102q0 145 227 285h-47v37q10 81 10 82q-142 -139 -309 -139q-148 0 -234 83
q-84 87 -84 226q0 57 29 176l148 553h227l-150 -559q-10 -39 -10 -101q0 -81 47 -122t133 -41q105 0 181 73t106 185l148 565h227z" />
    <glyph glyph-name="Wcircumflex" unicode="&#x174;" horiz-adv-x="2248" 
d="M1018 1628l360 328h178l177 -328h-205l-86 176l-187 -176h-237zM649 0h-268l-84 1493h244l51 -1171l643 1171h254l82 -1171l629 1171h258l-822 -1493h-268l-78 1151z" />
    <glyph glyph-name="wcircumflex" unicode="&#x175;" horiz-adv-x="1673" 
d="M616 1190l363 330h178l174 -330h-205l-84 176l-188 -176h-238zM856 1018h229l41 -717h2l408 717h238l-594 -1018h-238l-45 709h-4l-422 -709h-235l-60 1018h234l24 -713h2z" />
    <glyph glyph-name="Ycircumflex" unicode="&#x176;" horiz-adv-x="1415" 
d="M604 1628l361 328h178l176 -328h-205l-86 176l-186 -176h-238zM840 578l-156 -578h-235l159 602l-307 891h256l219 -680l584 680h285z" />
    <glyph glyph-name="ycircumflex" unicode="&#x177;" horiz-adv-x="1140" 
d="M365 1190l360 330h178l176 -330h-205l-86 176l-186 -176h-237zM256 -502h-252l334 508l-166 1012h231l113 -758l485 758h246z" />
    <glyph glyph-name="Ydieresis" unicode="&#x178;" horiz-adv-x="1415" 
d="M889 1661q-43 -43 -103 -43t-100 43q-41 41 -41 100t41 103q38 41 100 41t103 -41q41 -44 41 -103q0 -56 -41 -100zM1229 1618q-61 0 -101 43q-43 43 -43 100q0 59 41 103q41 41 103 41q59 0 100 -41q43 -43 43 -103q0 -57 -43 -100t-100 -43zM840 578l-156 -578h-235
l159 602l-307 891h256l219 -680l584 680h285z" />
    <glyph glyph-name="Zacute" unicode="&#x179;" horiz-adv-x="1265" 
d="M1014 1628h-219l280 328h289zM-57 0l53 203l1083 1081h-762l56 209h1063l-54 -201l-1087 -1083h821l-57 -209h-1116z" />
    <glyph glyph-name="zacute" unicode="&#x17a;" horiz-adv-x="1001" 
d="M774 1192h-221l283 328h288zM-47 0l49 188l703 631h-521l52 199h815l-47 -180l-717 -641h553l-52 -197h-835z" />
    <glyph glyph-name="Zdotaccent" unicode="&#x17b;" horiz-adv-x="1265" 
d="M936 1618q-59 0 -97 37.5t-38 95.5q0 72 49 121q44 47 115 47q60 0 98.5 -37.5t38.5 -97.5q0 -67 -47 -117q-49 -49 -119 -49zM-57 0l53 203l1083 1081h-762l56 209h1063l-54 -201l-1087 -1083h821l-57 -209h-1116z" />
    <glyph glyph-name="zdotaccent" unicode="&#x17c;" horiz-adv-x="1001" 
d="M664 1184q-59 0 -97.5 37.5t-38.5 95.5q0 69 47 119q49 49 117 49q59 0 98 -38.5t39 -96.5q0 -68 -49 -117t-116 -49zM-47 0l49 188l703 631h-521l52 199h815l-47 -180l-717 -641h553l-52 -197h-835z" />
    <glyph glyph-name="Zcaron" unicode="&#x17d;" horiz-adv-x="1265" 
d="M1378 1958l-360 -328h-178l-176 328h204l86 -176l187 176h237zM-57 0l53 203l1083 1081h-762l56 209h1063l-54 -201l-1087 -1083h821l-57 -209h-1116z" />
    <glyph glyph-name="zcaron" unicode="&#x17e;" horiz-adv-x="1001" 
d="M1128 1520l-360 -330h-178l-176 330h204l87 -177l186 177h237zM-47 0l49 188l703 631h-521l52 199h815l-47 -180l-717 -641h553l-52 -197h-835z" />
    <glyph glyph-name="florin" unicode="&#x192;" horiz-adv-x="1146" 
d="M821 819l-237 -512q-77 -166 -195.5 -244.5t-296.5 -78.5q-76 0 -125 12l53 201q47 -13 97 -13q99 0 165 49.5t109 145.5l199 440h-211l53 199h250l74 153q79 167 197.5 246.5t295.5 79.5q75 0 125 -12l-53 -201q-51 14 -96 14q-90 0 -158 -47.5t-109 -134.5l-45 -98h240
l-53 -199h-279z" />
    <glyph glyph-name="uni01B5" unicode="&#x1b5;" horiz-adv-x="1271" 
d="M-53 0l53 203l457 456h-303l53 199h448l428 426h-764l56 209h1065l-56 -201l-434 -434h326l-53 -199h-471l-455 -450h821l-55 -209h-1116z" />
    <glyph glyph-name="uni01B6" unicode="&#x1b6;" horiz-adv-x="1003" 
d="M-47 0l49 188l272 244h-192l43 160h328l254 227h-523l52 199h815l-47 -180l-279 -246h221l-43 -160h-352l-262 -235h553l-54 -197h-835z" />
    <glyph glyph-name="uni01CD" unicode="&#x1cd;" horiz-adv-x="1503" 
d="M1485 1958l-361 -328h-178l-176 328h205l86 -176l188 176h236zM1145 0l-49 350h-725l-224 -350h-262l981 1493h287l229 -1493h-237zM1067 559l-106 696l-455 -696h561z" />
    <glyph glyph-name="uni01CE" unicode="&#x1ce;" 
d="M1237 1520l-360 -330h-179l-176 330h205l86 -177l186 177h238zM481 -16q-179 0 -286 122q-109 124 -109 310q0 130 49 246q45 113 127 198q79 83 182.5 130.5t210.5 47.5q116 0 204.5 -47.5t135.5 -128.5l43 156h226l-220 -832q-21 -79 -24 -151v-35h-225v37q3 58 10 84
q-149 -137 -324 -137zM940 582q0 111 -74 182q-73 70 -182 70q-99 2 -182.5 -54t-129.5 -149t-44 -199q0 -109 67 -176q67 -70 176 -70q86 0 174 54q89 55 140 143q55 88 55 199z" />
    <glyph glyph-name="uni01CF" unicode="&#x1cf;" horiz-adv-x="624" 
d="M1063 1958l-363 -328h-178l-174 328h205l84 -176l188 176h238zM63 0l400 1493h233l-397 -1493h-236z" />
    <glyph glyph-name="uni01D0" unicode="&#x1d0;" horiz-adv-x="536" 
d="M899 1520l-362 -330h-179l-174 330h205l84 -177l189 177h237zM25 0l268 1018h229l-268 -1018h-229z" />
    <glyph glyph-name="uni01D1" unicode="&#x1d1;" horiz-adv-x="1720" 
d="M1530 1958l-363 -328h-176l-176 328h205l86 -176l186 176h238zM819 -18q-192 0 -346 86q-152 87 -231 233q-82 146 -82 332q0 167 64.5 326t181.5 282q117 128 279.5 201t348.5 74q144 0 269 -49.5t213 -137.5q87 -89 135.5 -209.5t48.5 -255.5q0 -166 -65 -325
t-183 -283q-165 -176 -387 -240q-118 -34 -246 -34zM846 199q152 0 282.5 79.5t212.5 208.5q111 171 111 367q0 198 -119 320q-118 124 -321 124q-154 0 -285 -79.5t-211 -208.5q-113 -170 -113 -367q0 -194 119 -319t324 -125z" />
    <glyph glyph-name="uni01D2" unicode="&#x1d2;" horiz-adv-x="1236" 
d="M1194 1520l-360 -330h-179l-176 330h205l86 -177l186 177h238zM682 1038q211 0 344 -127q133 -124 133 -338q0 -152 -80 -288q-81 -138 -217 -219q-141 -84 -297 -84q-209 0 -342 127q-135 126 -135 333q0 121 47 226q45 105 127 190q83 83 191 131q110 49 229 49z
M580 186q91 0 176 60q82 57 127 143q45 92 45 178q0 125 -72 197q-70 70 -188 70q-71 0 -138 -33.5t-112 -89.5q-99 -124 -99 -258q0 -123 72 -195q75 -72 189 -72z" />
    <glyph glyph-name="uni01D3" unicode="&#x1d3;" horiz-adv-x="1505" 
d="M1477 1958l-361 -328h-178l-176 328h205l86 -176l186 176h238zM690 -18q-235 0 -368 118q-136 121 -136 330q0 99 31 217l225 846h236l-236 -879q-18 -73 -18 -151q0 -118 76 -191q77 -71 213 -71q149 0 253.5 98t155.5 289l240 905h235l-251 -940q-151 -571 -656 -571z
" />
    <glyph glyph-name="uni01D4" unicode="&#x1d4;" horiz-adv-x="1208" 
d="M1231 1520l-361 -330h-178l-176 330h205l86 -177l186 177h238zM1190 1018l-217 -832q-27 -95 -27 -151v-35h-225v37q10 81 10 82q-142 -139 -309 -139q-148 0 -234 83q-84 87 -84 226q0 57 29 176l148 553h227l-150 -559q-10 -39 -10 -101q0 -81 47 -122t133 -41
q105 0 181 73t106 185l148 565h227z" />
    <glyph glyph-name="uni01D5" unicode="&#x1d5;" horiz-adv-x="1505" 
d="M690 -18q-235 0 -368 118q-136 121 -136 330q0 99 31 217l225 846h236l-236 -879q-18 -73 -18 -151q0 -118 76 -191q77 -71 213 -71q149 0 253.5 98t155.5 289l240 905h235l-251 -940q-151 -571 -656 -571zM836 2066h661l-51 -182h-660zM819 1536q-56 0 -92.5 35.5
t-36.5 91.5q0 66 47 113t111 47q56 0 93.5 -36.5t37.5 -92.5q0 -66 -47 -113q-45 -45 -113 -45zM1262 1536q-56 0 -92.5 35.5t-36.5 91.5q0 66 47 113t110 47q56 0 93.5 -36.5t37.5 -92.5q0 -66 -47 -113q-45 -45 -112 -45z" />
    <glyph glyph-name="uni01D6" unicode="&#x1d6;" horiz-adv-x="1208" 
d="M963 1018h227l-217 -832q-27 -95 -27 -151v-35h-225v37q10 81 10 82q-142 -139 -309 -139q-148 0 -234 83q-84 87 -84 226q0 57 29 176l148 553h227l-150 -559q-10 -39 -10 -101q0 -81 47 -122t133 -41q105 0 181 73t106 185zM543 1659h659l-49 -182h-659zM553 1116
q-57 0 -93 35t-36 92q0 70 45 115t111 45q57 0 94 -35t37 -92q0 -68 -45 -113q-47 -47 -113 -47zM977 1116q-57 0 -94 35t-37 92q0 70 45 115t113 45q56 0 93.5 -35.5t37.5 -91.5q0 -65 -48 -113q-44 -47 -110 -47z" />
    <glyph glyph-name="uni01D7" unicode="&#x1d7;" horiz-adv-x="1505" 
d="M690 -18q-235 0 -368 118q-136 121 -136 330q0 99 31 217l225 846h236l-236 -879q-18 -73 -18 -151q0 -118 76 -191q77 -71 213 -71q149 0 253.5 98t155.5 289l240 905h235l-251 -940q-151 -571 -656 -571zM1184 1847h-221l266 310h284zM819 1536q-56 0 -92.5 35.5
t-36.5 91.5q0 66 47 113t111 47q56 0 93.5 -36.5t37.5 -92.5q0 -66 -47 -113q-45 -45 -113 -45zM1262 1536q-56 0 -92.5 35.5t-36.5 91.5q0 66 47 113t110 47q56 0 93.5 -36.5t37.5 -92.5q0 -66 -47 -113q-45 -45 -112 -45z" />
    <glyph glyph-name="uni01D8" unicode="&#x1d8;" horiz-adv-x="1208" 
d="M963 1018h227l-217 -832q-27 -95 -27 -151v-35h-225v37q10 81 10 82q-142 -139 -309 -139q-148 0 -234 83q-84 87 -84 226q0 57 29 176l148 553h227l-150 -559q-10 -39 -10 -101q0 -81 47 -122t133 -41q105 0 181 73t106 185zM911 1448h-221l283 330h287zM553 1116
q-57 0 -93 35t-36 92q0 70 45 115t111 45q57 0 94 -35t37 -92q0 -68 -45 -113q-47 -47 -113 -47zM977 1116q-57 0 -94 35t-37 92q0 70 45 115t113 45q56 0 93.5 -35.5t37.5 -91.5q0 -65 -48 -113q-44 -47 -110 -47z" />
    <glyph glyph-name="uni01D9" unicode="&#x1d9;" horiz-adv-x="1505" 
d="M690 -18q-235 0 -368 118q-136 121 -136 330q0 99 31 217l225 846h236l-236 -879q-18 -73 -18 -151q0 -118 76 -191q77 -71 213 -71q149 0 253.5 98t155.5 289l240 905h235l-251 -940q-151 -571 -656 -571zM1536 2157l-362 -310h-179l-176 310h205l84 -164l188 164h240z
M819 1536q-56 0 -92.5 35.5t-36.5 91.5q0 66 47 113t111 47q56 0 93.5 -36.5t37.5 -92.5q0 -66 -47 -113q-45 -45 -113 -45zM1262 1536q-56 0 -92.5 35.5t-36.5 91.5q0 66 47 113t110 47q56 0 93.5 -36.5t37.5 -92.5q0 -66 -47 -113q-45 -45 -112 -45z" />
    <glyph glyph-name="uni01DA" unicode="&#x1da;" horiz-adv-x="1208" 
d="M963 1018h227l-217 -832q-27 -95 -27 -151v-35h-225v37q10 81 10 82q-142 -139 -309 -139q-148 0 -234 83q-84 87 -84 226q0 57 29 176l148 553h227l-150 -559q-10 -39 -10 -101q0 -81 47 -122t133 -41q105 0 181 73t106 185zM1268 1778l-363 -332h-178l-174 332h205
l84 -179l188 179h238zM553 1116q-57 0 -93 35t-36 92q0 70 45 115t111 45q57 0 94 -35t37 -92q0 -68 -45 -113q-47 -47 -113 -47zM977 1116q-57 0 -94 35t-37 92q0 70 45 115t113 45q56 0 93.5 -35.5t37.5 -91.5q0 -65 -48 -113q-44 -47 -110 -47z" />
    <glyph glyph-name="uni01DB" unicode="&#x1db;" horiz-adv-x="1505" 
d="M690 -18q-235 0 -368 118q-136 121 -136 330q0 99 31 217l225 846h236l-236 -879q-18 -73 -18 -151q0 -118 76 -191q77 -71 213 -71q149 0 253.5 98t155.5 289l240 905h235l-251 -940q-151 -571 -656 -571zM817 2157h258l99 -310h-179zM819 1536q-56 0 -92.5 35.5
t-36.5 91.5q0 66 47 113t111 47q56 0 93.5 -36.5t37.5 -92.5q0 -66 -47 -113q-45 -45 -113 -45zM1262 1536q-56 0 -92.5 35.5t-36.5 91.5q0 66 47 113t110 47q56 0 93.5 -36.5t37.5 -92.5q0 -66 -47 -113q-45 -45 -112 -45z" />
    <glyph glyph-name="uni01DC" unicode="&#x1dc;" horiz-adv-x="1208" 
d="M963 1018h227l-217 -832q-27 -95 -27 -151v-35h-225v37q10 81 10 82q-142 -139 -309 -139q-148 0 -234 83q-84 87 -84 226q0 57 29 176l148 553h227l-150 -559q-10 -39 -10 -101q0 -81 47 -122t133 -41q105 0 181 73t106 185zM532 1774h265l104 -330h-176zM553 1116
q-57 0 -93 35t-36 92q0 70 45 115t111 45q57 0 94 -35t37 -92q0 -68 -45 -113q-47 -47 -113 -47zM977 1116q-57 0 -94 35t-37 92q0 70 45 115t113 45q56 0 93.5 -35.5t37.5 -91.5q0 -65 -48 -113q-44 -47 -110 -47z" />
    <glyph glyph-name="Gcaron" unicode="&#x1e6;" horiz-adv-x="1665" 
d="M1530 1958l-363 -328h-176l-176 328h205l86 -176l186 176h238zM1667 1049l-231 -72q-11 50 -41 108q-38 74 -92 121q-112 94 -289 94q-163 0 -303 -90q-143 -90 -222 -239q-81 -150 -81 -328q0 -127 46.5 -226t147.5 -159.5t246 -60.5q104 0 193.5 30t150.5 82
q122 106 149 226h-540l53 210h793q-12 -166 -74 -306.5t-166 -241.5q-105 -102 -254.5 -157.5t-329.5 -55.5q-159 0 -287.5 50.5t-209.5 141.5q-164 187 -164 455q0 150 45.5 288t128 245.5t191 187t239.5 122t270 42.5q115 0 216.5 -30.5t174.5 -80.5q73 -51 121 -111
q97 -119 119 -245z" />
    <glyph glyph-name="gcaron" unicode="&#x1e7;" 
d="M1221 1520l-361 -330h-178l-176 330h205l86 -177l186 177h238zM1266 1018l-277 -1049q-62 -225 -209 -352q-148 -127 -381 -127q-92 0 -173.5 25.5t-135.5 68.5q-53 42 -92 99q-72 102 -72 215l217 43q0 -86 60 -164q64 -84 200 -84q141 0 232.5 75t128.5 216l41 155
q-142 -127 -322 -127q-167 0 -278 123q-113 119 -113 305q0 126 47 234q45 106 125 190q79 81 182 127.5t209 46.5q123 0 209 -51q91 -52 137 -131l41 162h224zM932 594q0 108 -66 174q-65 68 -182 68q-145 0 -248 -109q-102 -108 -102 -266q0 -107 67 -174q66 -72 174 -72
q67 0 132.5 29.5t115.5 81.5q50 50 79.5 121.5t29.5 146.5z" />
    <glyph glyph-name="uni01E8" unicode="&#x1e8;" horiz-adv-x="1351" 
d="M1434 1958l-363 -328h-178l-176 328h205l86 -176l188 176h238zM725 750l514 -750h-278l-474 709l-190 -709h-234l400 1493h233l-170 -641l752 641h330z" />
    <glyph glyph-name="uni01E9" unicode="&#x1e9;" horiz-adv-x="1105" 
d="M983 0h-270l-322 508h-4l-133 -508h-227l407 1552h228l-244 -927h4l479 393h330l-604 -486zM1094 1190l360 330h-237l-187 -177l-86 177h-205l176 -330h179z" />
    <glyph glyph-name="uni01F4" unicode="&#x1f4;" horiz-adv-x="1665" 
d="M1147 1628h-219l280 328h289zM1667 1049l-231 -72q-11 50 -41 108q-38 74 -92 121q-112 94 -289 94q-163 0 -303 -90q-143 -90 -222 -239q-81 -150 -81 -328q0 -127 46.5 -226t147.5 -159.5t246 -60.5q104 0 193.5 30t150.5 82q122 106 149 226h-540l53 210h793
q-12 -166 -74 -306.5t-166 -241.5q-105 -102 -254.5 -157.5t-329.5 -55.5q-159 0 -287.5 50.5t-209.5 141.5q-164 187 -164 455q0 150 45.5 288t128 245.5t191 187t239.5 122t270 42.5q115 0 216.5 -30.5t174.5 -80.5q73 -51 121 -111q97 -119 119 -245z" />
    <glyph glyph-name="uni01F5" unicode="&#x1f5;" 
d="M844 1192h-219l280 328h289zM1266 1018l-277 -1049q-62 -225 -209 -352q-148 -127 -381 -127q-92 0 -173.5 25.5t-135.5 68.5q-53 42 -92 99q-72 102 -72 215l217 43q0 -86 60 -164q64 -84 200 -84q141 0 232.5 75t128.5 216l41 155q-142 -127 -322 -127q-167 0 -278 123
q-113 119 -113 305q0 126 47 234q45 106 125 190q79 81 182 127.5t209 46.5q123 0 209 -51q91 -52 137 -131l41 162h224zM932 594q0 108 -66 174q-65 68 -182 68q-145 0 -248 -109q-102 -108 -102 -266q0 -107 67 -174q66 -72 174 -72q67 0 132.5 29.5t115.5 81.5
q50 50 79.5 121.5t29.5 146.5z" />
    <glyph glyph-name="Aringacute" unicode="&#x1fa;" horiz-adv-x="1503" 
d="M1606 2056l-332 -311q20 -44 20 -103q0 -73 -33.5 -137.5t-93.5 -103.5l215 -1401h-237l-49 350h-729l-224 -350h-258l926 1411q-68 65 -68 164q0 117 88 211q88 88 218 88q57 0 98 -16l170 198h289zM1034 1729q-52 0 -92 -46q-39 -42 -39 -96q0 -42 28 -68t73 -26
q57 0 94 43q39 48 39 96q0 44 -29 70.5t-74 26.5zM963 1274l-463 -715h569z" />
    <glyph glyph-name="aringacute" unicode="&#x1fb;" 
d="M1391 1858l-332 -312q20 -41 20 -100q0 -120 -86 -209q-85 -88 -217 -88q-110 0 -176 63q-72 63 -72 166q0 118 88 209q89 92 218 92q54 0 98 -18l170 197h289zM922 1434q0 45 -28 70.5t-73 25.5h-2q-55 0 -92 -43q-39 -42 -39 -96q0 -44 27.5 -69.5t72.5 -25.5
q58 0 95 43q39 45 39 95zM481 -16q-179 0 -286 122q-109 124 -109 310q0 130 49 246q45 113 127 198q79 83 182.5 130.5t210.5 47.5q116 0 204.5 -47.5t135.5 -128.5l43 156h226l-220 -832q-21 -79 -24 -151v-35h-225v37q3 58 10 84q-149 -137 -324 -137zM940 582
q0 111 -74 182q-73 70 -182 70q-99 2 -182.5 -54t-129.5 -149t-44 -199q0 -109 67 -176q67 -70 176 -70q86 0 174 54q89 55 140 143q55 88 55 199z" />
    <glyph glyph-name="AEacute" unicode="&#x1fc;" horiz-adv-x="2033" 
d="M1513 1628h-221l283 328h289zM934 350h-524l-283 -350h-270l1208 1493h1118l-55 -211h-715l-113 -418h650l-56 -209h-651l-117 -444h721l-55 -211h-952zM1182 1284h-23l-581 -725h411z" />
    <glyph glyph-name="aeacute" unicode="&#x1fd;" horiz-adv-x="1802" 
d="M1085 1192h-219l281 328h289zM803 199q-79 -101 -191.5 -159t-236.5 -58h-10q-135 -2 -231.5 73t-96.5 199q0 145 113 233q115 89 290 101l244 16q109 6 109 113q0 67 -54 96q-50 33 -118 33q-98 0 -168 -58q-67 -58 -88 -122l-201 63q26 93 141 193q59 52 149.5 84
t190.5 32q226 0 301 -145q154 145 363 145q195 0 311 -116q117 -120 117 -314q0 -78 -27 -166h-764q-6 -123 74 -198t197 -70q96 0 163 47q70 49 105 111l178 -88q-49 -98 -158 -176q-125 -84 -305 -84q-136 0 -238.5 56t-158.5 159zM1513 639q0 98 -59 151.5t-162 53.5
q-107 0 -192 -64q-86 -65 -123 -166h536v25zM725 449l-207 -13q-79 -6 -162 -37q-88 -38 -88 -120q0 -51 38 -83t93 -32q111 0 201 72q94 79 117 184z" />
    <glyph glyph-name="Oslashacute" unicode="&#x1fe;" horiz-adv-x="1718" 
d="M1147 1628h-219l280 328h289zM1763 1415l-178 -170q115 -165 115 -381q1 -199 -93 -386.5t-255 -313.5q-108 -86 -245.5 -134t-287.5 -48q-242 0 -422 139l-174 -166l-125 129l174 168q-112 161 -112 381q0 167 64.5 326t181.5 282q119 128 280.5 201t347.5 74
q248 0 428 -142l176 170zM1012 1303q-103 0 -200.5 -38.5t-170.5 -105.5q-70 -62 -129 -149q-113 -173 -113 -367q0 -123 52 -227l839 801q-115 86 -278 86zM846 195q151 -1 282.5 79t214.5 211q115 172 115 369q0 125 -53 225l-834 -800q106 -84 275 -84z" />
    <glyph glyph-name="oslashacute" unicode="&#x1ff;" horiz-adv-x="1236" 
d="M805 1192h-221l282 328h289zM1206 967l-121 -123q74 -115 74 -271q0 -152 -80 -288q-81 -138 -217 -219q-141 -84 -297 -84q-161 0 -280 79l-129 -127l-113 117l123 123q-78 112 -78 268q0 121 47 226q45 105 127 190q83 83 191 131q110 49 229 49q166 0 285 -82l127 125
zM672 840q-102 0 -185 -62q-80 -55 -129 -145q-43 -87 -43 -182q0 -65 23 -113l473 467q-59 35 -139 35zM578 182q95 0 180 60q82 55 129 145q45 86 45 182q0 61 -19 113l-471 -469q60 -31 136 -31z" />
    <glyph glyph-name="Scommaaccent" unicode="&#x218;" horiz-adv-x="1259" 
d="M918 414q0 66 -46 112q-46 43 -147 86l-141 62q-143 61 -224 151q-79 85 -79 226q0 102 43.5 191t117.5 151q159 123 357 123q105 0 194.5 -28.5t147.5 -74.5q50 -42 90 -104q65 -103 65 -219l-229 -37q0 53 -23 106q-13 34 -45 70q-30 33 -86 54.5t-127 21.5
q-106 0 -186 -62t-80 -158q0 -66 36 -109t110 -75l161 -72q147 -62 234 -145q98 -91 98 -248q0 -86 -36 -166.5t-101 -144.5q-66 -66 -166 -103.5t-215 -37.5q-173 0 -305 69q-141 75 -207 213q-43 90 -43 185q0 18 2 55l231 41q-2 -16 -2 -51q0 -140 91 -222
q90 -81 233 -81q114 0 197 59q80 56 80 162zM348 -678l23 86q74 9 135 55q61 47 80 117q-25 -18 -68 -18q-51 0 -81.5 31t-30.5 81q0 61 43 101q42 39 104 39t100.5 -42.5t38.5 -109.5q0 -143 -98 -237q-102 -94 -246 -103z" />
    <glyph glyph-name="scommaaccent" unicode="&#x219;" horiz-adv-x="952" 
d="M582 281q0 71 -97 116l-108 49q-107 49 -160 112t-53 151q0 135 104 233q107 96 275 96q79 0 145.5 -20.5t108.5 -54.5q38 -30 65 -74q47 -77 47 -156l-198 -33q0 57 -44 107.5t-128 50.5q-69 0 -108.5 -35t-39.5 -84q0 -68 74 -98l129 -57q223 -96 223 -277
q0 -117 -94 -219q-47 -49 -125 -78.5t-170 -29.5q-273 0 -365 188q-28 64 -28 125q0 16 2 22l196 35v-16q0 -73 56 -123q58 -49 137 -49q70 0 113 37t43 82zM119 -678l22 86q74 9 135 55q62 50 80 117q-29 -18 -69 -18q-49 0 -80 31t-31 81q0 61 43 101q42 39 103 39
q64 0 102.5 -42.5t38.5 -109.5q0 -143 -98 -237q-102 -94 -246 -103z" />
    <glyph glyph-name="uni021A" unicode="&#x21a;" horiz-adv-x="1251" 
d="M952 1278l-342 -1278h-233l340 1278h-473l57 215h1184l-60 -215h-473zM205 -678l20 86q73 9 137 55q63 51 78 117q-25 -18 -67 -18q-49 0 -80 31t-31 81q0 61 43 101q42 39 103 39q64 0 102.5 -42.5t38.5 -109.5q0 -143 -98 -237q-102 -94 -246 -103z" />
    <glyph glyph-name="uni021B" unicode="&#x21b;" horiz-adv-x="798" 
d="M799 813h-254l-121 -467q-10 -48 -10 -61q0 -36 20 -58.5t47 -27.5q18 -4 66 -4q42 0 88 10l-53 -193q-77 -22 -129 -22q-131 0 -204 63.5t-73 186.5q0 15 19 104l122 469h-194l53 205h197l82 315h227l-84 -315h254zM35 -678l22 86q75 9 136 55q60 46 79 117
q-29 -18 -67 -18q-51 0 -82 31t-31 81q0 61 43 101q42 39 103 39q64 0 102.5 -42.5t38.5 -109.5q0 -143 -98 -237q-102 -94 -246 -103z" />
    <glyph glyph-name="uni0237" unicode="&#x237;" horiz-adv-x="550" 
d="M307 1018h230l-322 -1221q-39 -153 -121 -227t-225 -74q-110 0 -172 33l49 188q46 -16 82 -16q135 0 172 149z" />
    <glyph glyph-name="hungarumlaut" unicode="&#x2dd;" horiz-adv-x="0" 
d="M-268 1192h-219l280 328h289zM137 1192h-219l281 328h288z" />
    <glyph glyph-name="gravecomb" unicode="&#x300;" horiz-adv-x="0" 
d="M-184 1520h264l104 -328h-178z" />
    <glyph glyph-name="acutecomb" unicode="&#x301;" horiz-adv-x="0" 
d="M-66 1192h-219l281 328h289z" />
    <glyph glyph-name="uni0302" unicode="&#x302;" horiz-adv-x="0" 
d="M-358 1190l362 330h178l176 -330h-204l-86 176l-189 -176h-237z" />
    <glyph glyph-name="tildecomb" unicode="&#x303;" horiz-adv-x="0" 
d="M236 1483h143q-24 -116 -76 -189q-61 -86 -184 -86q-70 0 -133 47q-56 48 -111 48q-66 0 -96 -93h-158q26 115 80 191q63 84 184 84q38 2 86 -22t91.5 -48t70.5 -22q33 0 60 25t43 65z" />
    <glyph glyph-name="uni0304" unicode="&#x304;" horiz-adv-x="0" 
d="M-307 1393h661l-47 -183h-661z" />
    <glyph glyph-name="uni0306" unicode="&#x306;" horiz-adv-x="0" 
d="M-51 1188q-143 0 -225 88q-79 91 -70 235h180q0 -155 131 -155q72 0 127 43q57 45 72 112h184q-48 -150 -149 -233q-104 -90 -250 -90z" />
    <glyph glyph-name="uni0307" unicode="&#x307;" horiz-adv-x="0" 
d="M-14 1184q-59 0 -97.5 37.5t-38.5 95.5q0 68 48 119q46 49 116 49q59 0 97.5 -38.5t38.5 -96.5q0 -66 -48 -117q-49 -49 -116 -49z" />
    <glyph glyph-name="uni0308" unicode="&#x308;" horiz-adv-x="0" 
d="M-225 1182q-57 0 -94 36t-37 93q0 65 47 112t110 47q57 0 94 -36.5t37 -92.5q0 -65 -47 -112t-110 -47zM197 1182q-56 0 -92.5 36t-36.5 93q0 65 47 112t110 47q56 0 93.5 -37t37.5 -92q0 -65 -47 -112t-112 -47z" />
    <glyph glyph-name="uni030A" unicode="&#x30a;" horiz-adv-x="0" 
d="M276 1446q0 -118 -88 -209q-85 -88 -217 -88q-107 0 -176 63q-71 62 -71 166q0 119 90 209q86 92 215 92q104 0 176 -63q71 -65 71 -170zM117 1434q0 45 -28.5 70.5t-72.5 25.5q-57 0 -94 -43q-39 -45 -39 -96q0 -43 28.5 -69t72.5 -26q57 0 94 43q39 45 39 95z" />
    <glyph glyph-name="uni030C" unicode="&#x30c;" horiz-adv-x="0" 
d="M358 1520l-362 -330h-178l-176 330h204l86 -177l189 177h237z" />
    <glyph glyph-name="uni0312" unicode="&#x312;" horiz-adv-x="0" 
d="M199 1663l-23 -86q-76 -12 -135 -57q-65 -47 -80 -117q21 18 68 18q51 0 81.5 -30t30.5 -80q0 -61 -43 -101q-44 -41 -104 -41q-63 0 -101 43.5t-38 110.5q0 143 96 236q100 95 248 104z" />
    <glyph glyph-name="uni0326" unicode="&#x326;" horiz-adv-x="0" 
d="M-172 -678l22 86q74 9 138 55q63 51 78 117q-25 -18 -68 -18q-51 0 -82 31t-31 81q0 61 43 101q42 39 105 39q62 0 100.5 -42.5t38.5 -109.5q0 -143 -98 -237q-102 -94 -246 -103z" />
    <glyph glyph-name="uni0327" unicode="&#x327;" horiz-adv-x="0" 
d="M285 -125q0 -163 -106 -251.5t-296 -88.5q-18 0 -88 8q-47 6 -80 19l41 149q68 -18 131 -18q224 0 224 225q0 45 -11 82h158q27 -62 27 -125z" />
    <glyph glyph-name="uni0328" unicode="&#x328;" horiz-adv-x="0" 
d="M27 0h176q-10 -7 -49 -33q-5 -4 -22.5 -17.5t-27.5 -21.5q-33 -25 -51 -47q-47 -59 -47 -106q0 -80 129 -80h6l-43 -156q-36 -4 -57 -4q-133 0 -205 78q-39 42 -39 102q0 145 230 285z" />
    <glyph glyph-name="Theta" unicode="&#x398;" horiz-adv-x="1720" 
d="M819 -18q-192 0 -346 86q-152 87 -231 233q-82 146 -82 332q0 167 64.5 326t181.5 282q117 128 279.5 201t348.5 74q144 0 269 -49.5t213 -137.5q87 -89 135.5 -209.5t48.5 -255.5q0 -166 -65 -325t-183 -283q-165 -176 -387 -240q-118 -34 -246 -34zM846 199
q152 0 282.5 79.5t212.5 208.5q113 169 113 367q0 196 -121 320q-118 124 -321 124q-154 0 -285 -79.5t-213 -208.5q-111 -167 -111 -367q0 -197 119 -319q119 -125 324 -125zM1300 655h-794l57 209h793z" />
    <glyph glyph-name="uni03A9" unicode="&#x3a9;" horiz-adv-x="1699" 
d="M1087 246l-12 -45h414l-53 -201h-625l96 358q218 42 369 187q75 72 117.5 168t42.5 200q0 88 -33.5 162.5t-91.5 122.5q-121 100 -283 100q-108 0 -217 -47t-186 -121q-81 -75 -131 -184q-52 -113 -52 -225q0 -132 78 -236q77 -103 205 -127l-96 -358h-623l53 201h412
l16 53q-125 65 -208 197q-80 127 -80 270q0 146 47 275.5t131 222.5q78 93 190 161q216 136 482 136q126 0 234.5 -34t184.5 -93q70 -56 125 -136q99 -149 99 -331q0 -157 -68.5 -286.5t-187.5 -221.5q-153 -118 -349 -168z" />
    <glyph glyph-name="theta" unicode="&#x3b8;" horiz-adv-x="1382" 
d="M1376 991q0 -165 -55 -343t-154 -324q-147 -217 -333 -297q-106 -45 -211 -45q-106 0 -192 33.5t-140 90.5q-51 53 -86 132q-62 135 -62 317q0 168 54.5 346t152.5 322q143 208 334 290q101 43 211 43q154 0 264.5 -71t163.5 -199q53 -127 53 -295zM410 872h745
q10 75 10 121q0 365 -284 365q-78 0 -152.5 -40t-134.5 -110q-117 -137 -184 -336zM1108 676h-746q-8 -63 -8 -123q0 -371 283 -371q162 0 289 156q118 145 182 338z" />
    <glyph glyph-name="pi" unicode="&#x3c0;" horiz-adv-x="1347" 
d="M1178 201l-52 -197q-68 -14 -102 -14q-130 0 -203 63.5t-73 186.5q0 22 20 104l123 471h-324l-215 -815h-225l213 815h-219l53 203h1219l-54 -203h-223l-121 -469q-10 -48 -10 -61q0 -36 20.5 -58.5t49.5 -27.5q16 -4 63 -4q35 0 60 6z" />
    <glyph glyph-name="uni0401" unicode="&#x401;" horiz-adv-x="1263" 
d="M754 1618q-57 0 -93 36t-36 93q0 68 45 113q47 47 110 47q57 0 94 -36t37 -93q0 -68 -45 -113q-47 -47 -112 -47zM1196 1618q-57 0 -94 36t-37 93q0 66 47 113t111 47q57 0 94 -36t37 -93q0 -68 -45 -113q-47 -47 -113 -47zM1022 0h-959l400 1493h950l-55 -211h-717
l-111 -418h650l-56 -209h-651l-119 -444h723z" />
    <glyph glyph-name="uni0402" unicode="&#x402;" horiz-adv-x="1611" 
d="M1196 -20q-115 -50 -244 -50q-130 0 -215 31l56 203q56 -17 122 -17q171 0 281 101q107 98 107 262q0 103 -68 168t-182 65q-217 0 -408 -141l-160 -602h-235l344 1282h-344l57 211h1186l-57 -211h-609l-120 -457q119 69 225 102.5t223 33.5q176 0 289 -113
q112 -109 112 -287q0 -130 -44.5 -246t-125.5 -202q-82 -85 -190 -133z" />
    <glyph glyph-name="uni0403" unicode="&#x403;" horiz-adv-x="1126" 
d="M973 1628h-221l282 328h287zM641 1278l-342 -1278h-236l400 1493h889l-58 -215h-653z" />
    <glyph glyph-name="uni0404" unicode="&#x404;" horiz-adv-x="1636" 
d="M846 195q171 0 301 81q58 39 100 84q76 79 117 175l213 -84q-55 -133 -178 -250q-71 -61 -150 -111q-190 -108 -430 -108q-140 0 -262 47t-209 133q-89 84 -137.5 206.5t-48.5 266.5q0 176 67 338q69 163 183 280q120 123 278 191q167 72 346 72q116 0 220.5 -31
t177.5 -82q68 -48 122 -117q99 -122 125 -262l-229 -68q-8 69 -48.5 140.5t-109.5 122.5q-104 81 -272 81q-104 0 -202.5 -35.5t-174.5 -97.5q-157 -132 -207 -305h633l-55 -207h-617q1 -140 61.5 -246.5t162.5 -160.5q100 -53 223 -53z" />
    <glyph glyph-name="uni0405" unicode="&#x405;" horiz-adv-x="1261" 
d="M918 414q0 69 -46 112q-47 44 -145 86l-143 62q-145 63 -224 151q-79 85 -79 226q0 102 44 191t119 151q159 123 355 123q106 0 195.5 -28.5t146.5 -74.5q55 -46 92 -104q65 -108 65 -219l-229 -37q0 48 -25 106q-14 38 -43 70q-31 33 -87 54.5t-126 21.5
q-106 0 -186 -62t-80 -158q0 -66 35 -109t109 -75l163 -72q149 -64 234 -145q96 -93 96 -248q0 -85 -35.5 -166t-99.5 -145q-67 -66 -167 -103.5t-216 -37.5q-170 0 -305 69q-141 75 -207 213q-43 90 -43 185q2 18 4 55l232 41q-5 -40 -5 -51q0 -141 93 -222q87 -81 233 -81
q115 0 195 59q80 56 80 162z" />
    <glyph glyph-name="uni0406" unicode="&#x406;" horiz-adv-x="624" 
d="M63 0l400 1493h233l-397 -1493h-236z" />
    <glyph glyph-name="uni0407" unicode="&#x407;" horiz-adv-x="624" 
d="M412 1618q-56 0 -92.5 36t-36.5 93q0 68 45 113q47 47 112 47q57 0 94 -36t37 -93q0 -66 -47 -113t-112 -47zM829 1618q-57 0 -93 36t-36 93q0 68 45 113q47 47 111 47q57 0 94 -36t37 -93q0 -68 -45 -113q-47 -47 -113 -47zM63 0l400 1493h233l-397 -1493h-236z" />
    <glyph glyph-name="uni0408" unicode="&#x408;" horiz-adv-x="1181" 
d="M449 -16q-163 0 -279 96q-58 48 -90.5 127.5t-32.5 179.5q0 79 23 158l18 69l234 4l-27 -88q-21 -74 -21 -131q0 -93 52 -145.5t141 -52.5q108 0 183.5 64t105.5 175l276 1053h236l-285 -1090q-55 -205 -193 -312t-341 -107z" />
    <glyph glyph-name="uni0409" unicode="&#x409;" horiz-adv-x="2361" 
d="M1386 1280h-530l-184 -492q-16 -45 -56 -143q-22 -65 -55 -135q-38 -84 -61 -129q-30 -57 -68 -113q-41 -62 -76 -100q-93 -96 -188 -137q-115 -46 -246 -37l-4 2l55 209q122 0 224 117q47 50 98 147q41 75 94 199q15 36 100 264l205 561h985l-155 -582h284
q226 0 361 -102q133 -109 133 -281q0 -251 -184 -389q-186 -139 -494 -139h-580zM2062 504q0 96 -73 151.5t-203 55.5h-318l-131 -500h297q203 0 316 76q112 72 112 217z" />
    <glyph glyph-name="uni040A" unicode="&#x40a;" horiz-adv-x="2363" 
d="M1505 895h312q222 0 354 -102q133 -103 133 -273q0 -160 -88 -284q-86 -118 -238 -177q-151 -59 -350 -59h-596l185 694h-736l-184 -694h-234l400 1493h233l-159 -598h733l160 598h235zM1321 207h299q210 0 324 74.5t114 220.5q0 94 -74 149.5t-210 55.5h-320z" />
    <glyph glyph-name="uni040B" unicode="&#x40b;" horiz-adv-x="1636" 
d="M1413 0h-233l116 434q17 64 17 115q0 98 -63 146t-173 48q-105 0 -217 -34q-113 -33 -211 -91l-164 -618h-235l344 1282h-344l57 211h1186l-57 -211h-609l-120 -446q106 51 229 86q121 34 221 34q169 0 283 -67q127 -80 127 -250q0 -59 -19 -137z" />
    <glyph glyph-name="uni040C" unicode="&#x40c;" horiz-adv-x="1353" 
d="M1079 1628h-219l281 328h289zM725 750l514 -750h-278l-474 709l-190 -709h-234l400 1493h233l-170 -641l752 641h330z" />
    <glyph glyph-name="uni040E" unicode="&#x40e;" horiz-adv-x="1351" 
d="M262 1493h244l231 -842l615 842h266l-815 -1110q-60 -78 -99.5 -123.5t-97.5 -97.5q-63 -57 -125 -92q-144 -86 -305 -86q-82 0 -174 24l55 205q74 -18 142 -18q105 0 193.5 55.5t176.5 171.5zM954 1620q-125 0 -202 80q-78 81 -78 198v9l139 28q18 -147 160 -147
q70 0 119.5 36.5t85.5 110.5l141 -26q-108 -289 -365 -289z" />
    <glyph glyph-name="uni040F" unicode="&#x40f;" horiz-adv-x="1572" 
d="M1069 213l344 1280h234l-400 -1493h-473l-84 -315h-233l84 315h-478l400 1493h233l-344 -1280h717z" />
    <glyph glyph-name="uni0410" unicode="&#x410;" horiz-adv-x="1503" 
d="M1145 0l-49 350h-725l-224 -350h-262l981 1493h287l229 -1493h-237zM1067 559l-106 696l-455 -696h561z" />
    <glyph glyph-name="uni0411" unicode="&#x411;" horiz-adv-x="1396" 
d="M1413 1282h-770l-106 -387h294q230 0 359 -102t129 -273q0 -249 -189 -385q-190 -135 -509 -135h-558l400 1493h1007zM354 211h305q192 0 308 72q110 73 110 217q0 91 -71.5 144.5t-198.5 53.5h-324z" />
    <glyph glyph-name="uni0412" unicode="&#x412;" horiz-adv-x="1419" 
d="M463 1493h463q241 0 362 -100q125 -98 125 -258q0 -139 -90 -240q-89 -99 -250 -137q227 -88 227 -307q0 -203 -165 -328q-167 -123 -469 -123h-603zM639 1284l-113 -424h293q143 0 242 51q117 60 117 193q0 86 -67.5 133t-197.5 47h-274zM473 655l-119 -446h344
q172 0 273 67q98 67 98 187q0 91 -75.5 141.5t-211.5 50.5h-309z" />
    <glyph glyph-name="uni0413" unicode="&#x413;" horiz-adv-x="1126" 
d="M641 1278l-342 -1278h-236l400 1493h889l-58 -215h-653z" />
    <glyph glyph-name="uni0414" unicode="&#x414;" horiz-adv-x="1662" 
d="M707 1493h972l-342 -1284h158l-141 -524h-234l84 315h-1073l-86 -315h-231l139 524q161 6 297 207q127 190 250 518zM309 211h795l287 1073h-529l-145 -389q-109 -293 -201 -446q-89 -151 -207 -238z" />
    <glyph glyph-name="uni0415" unicode="&#x415;" horiz-adv-x="1263" 
d="M1022 0h-959l400 1493h950l-55 -211h-717l-111 -418h650l-56 -209h-651l-119 -444h723z" />
    <glyph glyph-name="uni0416" unicode="&#x416;" horiz-adv-x="2009" 
d="M1157 1493h234l-187 -700h8l734 700h315l-819 -762l438 -731h-270l-414 725h-10l-195 -725h-233l192 725h-10l-756 -725h-315l852 799l-434 694h262l412 -700h8z" />
    <glyph glyph-name="uni0417" unicode="&#x417;" horiz-adv-x="1288" 
d="M559 -16q-203 0 -352 114q-72 57 -113 140.5t-41 181.5q0 15 4 43l230 29v-33q0 -123 82 -193q77 -71 213 -71q142 0 243 88q103 86 103 221q0 101 -74 160q-72 57 -186 57q-68 0 -127 -21l-78 197l557 387h-723l55 209h1047l-60 -233l-522 -363q157 -21 258 -125
q101 -107 101 -260q0 -124 -48.5 -225.5t-134.5 -167.5q-177 -135 -434 -135z" />
    <glyph glyph-name="uni0418" unicode="&#x418;" horiz-adv-x="1630" 
d="M389 344l1041 1151h274l-397 -1495h-232l301 1147l-1036 -1147h-277l400 1493h231z" />
    <glyph glyph-name="uni0419" unicode="&#x419;" horiz-adv-x="1630" 
d="M463 1493h231l-305 -1149l1041 1151h274l-397 -1495h-232l301 1147l-1036 -1147h-277zM1092 1620q-126 0 -203 80q-78 81 -78 198v9l141 28q15 -147 158 -147q71 0 120 36.5t85 110.5l141 -26q-108 -289 -364 -289z" />
    <glyph glyph-name="uni041A" unicode="&#x41a;" horiz-adv-x="1353" 
d="M961 0l-474 709l-190 -709h-234l400 1493h233l-170 -641l752 641h330l-883 -743l514 -750h-278z" />
    <glyph glyph-name="uni041B" unicode="&#x41b;" horiz-adv-x="1603" 
d="M-82 -4l55 209q122 0 224 117q47 50 98 147q41 75 94 199q15 36 100 264l205 561h983l-397 -1493h-236l342 1280h-530l-180 -481q-69 -181 -72 -189q-37 -91 -76 -170q-43 -92 -86 -157q-51 -73 -98 -123q-101 -115 -254 -152q-76 -20 -168 -14z" />
    <glyph glyph-name="uni041C" unicode="&#x41c;" horiz-adv-x="1984" 
d="M1716 1493h342l-399 -1493h-232l295 1112h-2l-755 -1112h-193l-176 1118h-2l-299 -1118h-232l400 1493h301l180 -1141h2z" />
    <glyph glyph-name="uni041D" unicode="&#x41d;" horiz-adv-x="1591" 
d="M1032 0l172 645h-733l-172 -645h-236l400 1493h233l-166 -627h734l168 627h233l-397 -1493h-236z" />
    <glyph glyph-name="uni041E" unicode="&#x41e;" horiz-adv-x="1718" 
d="M819 -18q-192 0 -346 86q-152 87 -231 233q-82 146 -82 332q0 167 64.5 326t181.5 282q117 128 279.5 201t348.5 74q144 0 269 -49.5t213 -137.5q87 -89 135.5 -209.5t48.5 -255.5q0 -166 -65 -325t-183 -283q-165 -176 -387 -240q-118 -34 -246 -34zM846 199
q152 0 282.5 79.5t212.5 208.5q111 171 111 367q0 198 -119 320q-118 124 -321 124q-154 0 -285 -79.5t-211 -208.5q-113 -170 -113 -367q0 -194 119 -319t324 -125z" />
    <glyph glyph-name="uni041F" unicode="&#x41f;" horiz-adv-x="1572" 
d="M1012 0l342 1280h-713l-342 -1280h-236l400 1493h1184l-400 -1493h-235z" />
    <glyph glyph-name="uni0420" unicode="&#x420;" horiz-adv-x="1329" 
d="M1407 1081q0 -161 -86 -282q-87 -121 -242 -183q-149 -61 -350 -61h-283l-147 -555h-236l400 1493h420q244 0 385 -102q139 -104 139 -310zM1165 1065q0 101 -74.5 157t-209.5 56h-240l-137 -510h239q195 0 310 80q112 80 112 217z" />
    <glyph glyph-name="uni0421" unicode="&#x421;" horiz-adv-x="1634" 
d="M823 -18q-187 0 -340 81q-146 77 -237 232q-86 151 -86 344q0 169 69 336q72 162 187 280q120 120 280 189q167 72 344 72q116 0 220.5 -31t177.5 -82q68 -50 125 -117q98 -123 120 -264l-231 -68q-8 67 -49.5 139t-110.5 124q-109 81 -272 81q-159 0 -290.5 -78
t-211.5 -206q-110 -165 -110 -367q0 -140 58 -243t159 -154q99 -51 225 -51q170 0 299 84q50 33 98 84q66 73 113 172l221 -86q-57 -137 -178 -250q-67 -65 -150 -111q-182 -110 -430 -110z" />
    <glyph glyph-name="uni0422" unicode="&#x422;" horiz-adv-x="1249" 
d="M952 1278l-342 -1278h-235l342 1278h-473l55 215h1184l-58 -215h-473z" />
    <glyph glyph-name="uni0423" unicode="&#x423;" horiz-adv-x="1351" 
d="M262 1493h244l231 -842l615 842h266l-815 -1110q-60 -78 -99.5 -123.5t-97.5 -97.5q-63 -57 -125 -92q-144 -86 -305 -86q-82 0 -174 24l55 205q74 -18 142 -18q105 0 193.5 55.5t176.5 171.5z" />
    <glyph glyph-name="uni0424" unicode="&#x424;" horiz-adv-x="1894" 
d="M1350 1542l-37 -141q137 -4 248.5 -48.5t183.5 -119.5q143 -152 143 -379q0 -150 -58.5 -284t-164.5 -234q-102 -99 -262 -156q-152 -57 -342 -57h-90l-45 -170h-236l45 170q-138 6 -248.5 50t-181.5 120q-141 153 -141 383q0 150 57.5 282.5t163.5 231.5q102 96 262 153
q155 58 342 58h88l37 141h236zM1028 336h62q250 0 403 135q154 139 154 354q0 165 -103 265q-99 99 -287 102zM1020 1190h-57q-254 0 -404 -135q-153 -135 -153 -357q0 -164 100 -264q100 -97 285 -100z" />
    <glyph glyph-name="uni0425" unicode="&#x425;" horiz-adv-x="1396" 
d="M1270 0h-273l-260 588l-544 -588h-310l754 780l-340 713h266l246 -543l506 543h309l-715 -737z" />
    <glyph glyph-name="uni0426" unicode="&#x426;" horiz-adv-x="1630" 
d="M1462 213l-141 -528h-234l84 315h-1108l400 1493h233l-344 -1280h717l344 1280h234l-342 -1280h157z" />
    <glyph glyph-name="uni0427" unicode="&#x427;" horiz-adv-x="1441" 
d="M883 0l161 610q-94 -50 -223 -86q-128 -35 -227 -35q-179 0 -283 93q-100 87 -100 256q0 70 20 149l136 506h233l-133 -500q-14 -54 -14 -102q0 -186 231 -186q97 0 209 34q122 40 211 90l176 664h236l-400 -1493h-233z" />
    <glyph glyph-name="uni0428" unicode="&#x428;" horiz-adv-x="2328" 
d="M66 0l395 1493h233l-346 -1282h625l342 1282h231l-340 -1282h623l342 1282h229l-395 -1493h-1939z" />
    <glyph glyph-name="uni0429" unicode="&#x429;" horiz-adv-x="2390" 
d="M66 0l395 1493h233l-344 -1282h623l342 1282h231l-338 -1282h621l342 1282h233l-342 -1282h160l-139 -526h-234l82 315h-1865z" />
    <glyph glyph-name="uni042A" unicode="&#x42a;" horiz-adv-x="1536" 
d="M698 911h283q225 0 360 -102q136 -106 136 -281q0 -251 -185 -389q-186 -139 -493 -139h-578l342 1282h-334l56 211h569zM1237 504q0 96 -72.5 150.5t-203.5 54.5h-316l-133 -498h297q202 0 315 76q113 73 113 217z" />
    <glyph glyph-name="uni042B" unicode="&#x42b;" horiz-adv-x="1929" 
d="M1317 528q0 -251 -184 -389q-186 -139 -494 -139h-576l400 1493h233l-155 -582h282q226 0 361 -102q133 -109 133 -281zM1358 0l399 1493h246l-397 -1493h-248zM1077 504q0 95 -73.5 150t-202.5 55h-314l-133 -498h295q203 0 316 76q112 72 112 217z" />
    <glyph glyph-name="uni042C" unicode="&#x42c;" horiz-adv-x="1376" 
d="M1317 528q0 -251 -184 -389q-186 -139 -494 -139h-576l400 1493h233l-155 -582h282q226 0 361 -102q133 -109 133 -281zM1077 504q0 95 -73.5 150t-202.5 55h-314l-133 -498h295q203 0 316 76q112 72 112 217z" />
    <glyph glyph-name="uni042D" unicode="&#x42d;" horiz-adv-x="1630" 
d="M938 1516q187 0 342 -82q154 -83 240 -234q86 -148 86 -340q0 -168 -64 -338q-63 -156 -176 -278q-116 -122 -276 -191q-165 -71 -353 -71q-226 0 -411 135q-88 64 -146.5 156.5t-75.5 199.5l228 72q28 -163 143 -256q120 -94 281 -94q198 0 358 133q160 130 221 327
h-657l55 207h633q6 182 -121 312q-126 126 -330 126q-171 0 -311 -94q-141 -96 -196 -243l-215 81q60 151 172 254q114 105 264 162q148 56 309 56z" />
    <glyph glyph-name="uni042E" unicode="&#x42e;" horiz-adv-x="2207" 
d="M1565 1513q186 0 329 -79q138 -81 217 -226q76 -143 76 -327q0 -178 -63 -338q-69 -171 -176 -289q-112 -125 -269 -197q-159 -75 -333 -75q-184 0 -326 86q-143 84 -219 233q-79 146 -82 340h-248l-172 -641h-236l400 1493h235l-170 -637h222q42 156 138.5 292.5
t235.5 231.5q195 133 441 133zM1366 199q148 -1 273 78.5t200 209.5q105 171 105 371q0 190 -111 316q-107 122 -295 122q-124 0 -229 -57q-113 -60 -185 -149q-75 -94 -118 -213.5t-43 -237.5q0 -201 110 -320q105 -120 293 -120z" />
    <glyph glyph-name="uni042F" unicode="&#x42f;" horiz-adv-x="1378" 
d="M1452 1493l-399 -1493h-234l152 569h-248l-485 -569h-285l534 618q-239 91 -239 351q-1 241 188.5 384t497.5 140h518zM1159 1280h-237q-208 0 -321.5 -78.5t-113.5 -220.5q0 -99 78 -156q76 -55 203 -55h256z" />
    <glyph glyph-name="uni0430" unicode="&#x430;" horiz-adv-x="1282" 
d="M481 -16q-179 0 -286 122q-109 124 -109 310q0 130 49 246q45 113 127 198q79 83 182.5 130.5t210.5 47.5q116 0 204.5 -47.5t135.5 -128.5l43 156h226l-220 -832q-21 -79 -24 -151v-35h-225v37q3 58 10 84q-149 -137 -324 -137zM940 582q0 111 -74 182q-73 70 -182 70
q-99 2 -182.5 -54t-129.5 -149t-44 -199q0 -109 67 -176q67 -70 176 -70q86 0 174 54q89 55 140 143q55 88 55 199z" />
    <glyph glyph-name="uni0431" unicode="&#x431;" horiz-adv-x="1294" 
d="M1270 1352l-414 -82q-193 -39 -317.5 -156t-176.5 -297l7 -2q62 86 172 150q110 61 229 61q190 3 315.5 -129t124.5 -348q0 -150 -77 -283q-79 -128 -215 -205q-139 -77 -302 -77q-236 0 -357.5 143t-121.5 412q0 197 76 389q73 192 203 325q159 163 422 213l409 76z
M709 829q-86 2 -166 -53.5t-127 -142.5t-45 -176q0 -125 69 -197q68 -74 185 -74q148 0 252 113q100 109 100 262q0 125 -69.5 196.5t-198.5 71.5z" />
    <glyph glyph-name="uni0432" unicode="&#x432;" horiz-adv-x="1181" 
d="M1114 774q0 -96 -67 -165t-183 -97q80 -22 128 -77t48 -130q0 -141 -114 -221q-119 -84 -328 -84h-571l266 1018h485q167 0 250 -68q86 -71 86 -176zM410 600h252q100 0 158.5 37.5t58.5 103.5q0 105 -156 105h-250zM297 176h287q101 0 160 40t59 108q0 55 -45.5 84.5
t-126.5 29.5h-264z" />
    <glyph glyph-name="uni0433" unicode="&#x433;" horiz-adv-x="901" 
d="M469 819l-217 -819h-225l266 1018h711l-54 -199h-481z" />
    <glyph glyph-name="uni0434" unicode="&#x434;" horiz-adv-x="1345" 
d="M1266 1018l-215 -819h131l-135 -514h-224l84 315h-764l-84 -315h-223l135 510q102 0 183 112q28 34 73 103q35 54 68 127q30 72 47 110q3 7 16 39.5t23 58.5q0 1 2 7t4 8l96 258h783zM985 819h-350l-66 -170q-17 -49 -53 -133q-22 -51 -61 -121q-70 -129 -172 -196h540z
" />
    <glyph glyph-name="uni0435" unicode="&#x435;" horiz-adv-x="1169" 
d="M1079 442h-764q-6 -123 72 -197t197 -71q97 0 164 47q71 52 104 111l178 -88q-49 -99 -160 -176q-122 -84 -303 -84q-134 -3 -243.5 52.5t-173.5 161.5t-62 242q0 160 82 297q81 136 217 219q134 82 289 82q195 0 311 -116q119 -122 119 -314q0 -66 -27 -166zM662 844
q-111 0 -193 -64q-89 -65 -123 -166h533q2 4 2 23q0 98 -59 152.5t-160 54.5z" />
    <glyph glyph-name="uni0436" unicode="&#x436;" horiz-adv-x="1654" 
d="M854 1018h225l-123 -469h13l495 469h301l-567 -520l311 -498h-264l-293 494h-10l-131 -494h-225l131 494h-10l-514 -494h-304l588 549l-307 469h256l293 -469h12z" />
    <glyph glyph-name="uni0437" unicode="&#x437;" horiz-adv-x="1034" 
d="M1038 1018l-55 -211l-324 -195q107 -12 175 -80q67 -67 67 -165q0 -88 -40.5 -163t-108.5 -124q-140 -98 -324 -98q-155 0 -281 90q-60 46 -93 117.5t-29 158.5l213 23q-2 -54 15 -93.5t49 -60.5t68.5 -31t80.5 -10q122 0 184 70q35 41 35 94q0 68 -45 94q-48 31 -107 31
q-57 0 -133 -27l-63 150l393 235h-533l51 195h805z" />
    <glyph glyph-name="uni0438" unicode="&#x438;" horiz-adv-x="1236" 
d="M952 0h-221l178 678l-657 -678h-227l268 1018h221l-178 -680l665 680h220z" />
    <glyph glyph-name="uni0439" unicode="&#x439;" horiz-adv-x="1236" 
d="M952 0h-221l178 678l-657 -678h-227l268 1018h221l-178 -680l665 680h220zM782 1188q-125 0 -202 80q-78 81 -78 198v9l139 28q18 -147 158 -147q72 0 121.5 36.5t85.5 110.5l141 -28q-109 -287 -365 -287z" />
    <glyph glyph-name="uni043A" unicode="&#x43a;" horiz-adv-x="1116" 
d="M385 471h-8l-125 -471h-227l268 1018h227l-112 -428h12l502 428h313l-612 -516l378 -502h-278z" />
    <glyph glyph-name="uni043B" unicode="&#x43b;" horiz-adv-x="1251" 
d="M610 819l-112 -301q-66 -178 -146 -305q-50 -75 -94 -117q-104 -104 -240 -104q-34 0 -92 8l54 201q107 -8 190 114q25 36 51 95q27 58 51 114q4 11 14.5 38.5l21 55t20.5 54.5l129 346h778l-266 -1018h-228l215 819h-346z" />
    <glyph glyph-name="uni043C" unicode="&#x43c;" horiz-adv-x="1548" 
d="M569 0l-118 776l-205 -776h-221l268 1018h315l111 -725l489 725h326l-268 -1018h-224l201 758l-510 -758h-164z" />
    <glyph glyph-name="uni043D" unicode="&#x43d;" horiz-adv-x="1224" 
d="M717 0l110 422h-462l-111 -422h-227l266 1018h229l-106 -400h463l104 400h225l-266 -1018h-225z" />
    <glyph glyph-name="uni043E" unicode="&#x43e;" horiz-adv-x="1236" 
d="M682 1038q211 0 344 -127q133 -124 133 -338q0 -152 -80 -288q-81 -138 -217 -219q-141 -84 -297 -84q-209 0 -342 127q-135 126 -135 333q0 121 47 226q45 105 127 190q83 83 191 131q110 49 229 49zM580 186q91 0 176 60q82 57 127 143q45 92 45 178q0 125 -72 197
q-70 70 -188 70q-71 0 -138 -33.5t-112 -89.5q-99 -124 -99 -258q0 -123 72 -195q75 -72 189 -72z" />
    <glyph glyph-name="uni043F" unicode="&#x43f;" horiz-adv-x="1214" 
d="M707 0l215 819h-453l-217 -819h-225l266 1018h905l-266 -1018h-225z" />
    <glyph glyph-name="uni0440" unicode="&#x440;" 
d="M635 -16q-240 0 -338 186l-176 -672h-227l399 1520h221l-33 -127q144 147 328 147q174 0 285 -120q110 -119 110 -312q0 -132 -49 -248q-48 -117 -129 -198q-79 -82 -182 -129t-209 -47zM616 186q148 0 252 119q105 114 105 281q0 112 -68 180t-174 68q-93 3 -180 -52.5
t-140 -149t-51 -194.5q0 -110 70 -180q72 -72 186 -72z" />
    <glyph glyph-name="uni0441" unicode="&#x441;" horiz-adv-x="1173" 
d="M573 -18q-217 0 -350 127q-135 129 -135 335q0 156 82 293t219 219t293 82q99 0 183 -28t139 -76q106 -93 131 -217l-209 -64q-12 68 -78 125q-65 56 -180 56q-71 0 -137 -33.5t-111 -89.5q-46 -54 -72 -122.5t-26 -135.5q0 -123 69 -195q75 -72 195 -72q118 0 196 68
q60 50 99 119l196 -72q-53 -119 -176 -213q-138 -106 -328 -106z" />
    <glyph glyph-name="uni0442" unicode="&#x442;" horiz-adv-x="976" 
d="M694 819l-215 -819h-225l215 819h-346l53 199h905l-53 -199h-334z" />
    <glyph glyph-name="uni0443" unicode="&#x443;" horiz-adv-x="1140" 
d="M256 -502h-252l334 508l-166 1012h231l113 -758l485 758h246z" />
    <glyph glyph-name="uni0444" unicode="&#x444;" horiz-adv-x="1712" 
d="M717 -465h-228l144 543q-125 -90 -250 -90q-130 0 -217 96q-84 93 -84 272q-2 142 49.5 285t144.5 242q65 69 155 109t192 40q73 0 135 -25.5t102 -68.5l156 596h227l-158 -600q67 50 124.5 74t127.5 24q133 0 217 -100q84 -97 84 -277q2 -140 -50 -282t-144 -240
q-65 -68 -153.5 -106.5t-188.5 -38.5q-80 0 -143.5 22.5t-98.5 63.5zM489 184q88 0 189 70l137 514q-64 70 -168 70q-76 0 -140.5 -39.5t-105.5 -106.5q-84 -139 -84 -311q0 -87 48 -141q47 -56 124 -56zM1231 836q-94 0 -189 -68l-137 -518q65 -68 168 -68q76 0 140.5 39
t105.5 105q84 136 84 307q0 87 -49 145q-46 58 -123 58z" />
    <glyph glyph-name="uni0445" unicode="&#x445;" horiz-adv-x="1085" 
d="M932 0h-256l-162 346l-334 -346h-282l528 526l-250 492h254l158 -328l317 328h281l-506 -510z" />
    <glyph glyph-name="uni0446" unicode="&#x446;" 
d="M1116 199l-135 -512h-223l82 313h-815l268 1018h229l-215 -819h449l215 819h227l-215 -819h133z" />
    <glyph glyph-name="uni0447" unicode="&#x447;" horiz-adv-x="1122" 
d="M840 0h-226l97 375q-59 -30 -162 -53q-100 -23 -166 -23q-122 0 -197 63q-77 60 -77 183q0 48 14 100l98 373h230l-89 -334q-12 -46 -12 -72q0 -54 34 -84t99 -30q155 0 281 75l117 445h225z" />
    <glyph glyph-name="uni0448" unicode="&#x448;" horiz-adv-x="1771" 
d="M25 0l268 1018h227l-215 -819h391l215 819h226l-215 -819h393l215 819h227l-268 -1018h-1464z" />
    <glyph glyph-name="uni0449" unicode="&#x449;" horiz-adv-x="1839" 
d="M25 0l268 1018h227l-215 -819h391l215 819h228l-217 -819h393l215 819h227l-217 -819h133l-135 -512h-215l84 313h-1382z" />
    <glyph glyph-name="uni044A" unicode="&#x44a;" horiz-adv-x="1304" 
d="M606 680h242q178 0 272 -82q97 -78 97 -205q0 -183 -136 -289q-134 -104 -370 -104h-510l217 819h-297l53 199h522zM807 508h-244l-86 -320h219q136 0 211.5 50t75.5 143q0 60 -48 93.5t-128 33.5z" />
    <glyph glyph-name="uni044B" unicode="&#x44b;" horiz-adv-x="1660" 
d="M535 0h-510l268 1018h227l-90 -338h242q178 0 272 -82q96 -77 96 -205q0 -184 -135 -289q-134 -104 -370 -104zM631 508h-244l-86 -320h221q135 0 211 50t76 143q0 60 -49 93.5t-129 33.5zM1153 0l268 1018h228l-269 -1018h-227z" />
    <glyph glyph-name="uni044C" unicode="&#x44c;" horiz-adv-x="1128" 
d="M535 0h-510l268 1018h227l-90 -338h242q178 0 272 -82q96 -77 96 -205q0 -184 -135 -289q-134 -104 -370 -104zM631 508h-244l-86 -320h221q135 0 211 50t76 143q0 60 -49 93.5t-129 33.5z" />
    <glyph glyph-name="uni044D" unicode="&#x44d;" horiz-adv-x="1177" 
d="M508 -18q-180 0 -299 88q-119 85 -154 241l201 64q56 -191 258 -191q115 0 209 76q95 79 121 176h-402l47 178h375q-6 97 -78 160q-73 64 -182 64q-91 0 -176 -54q-85 -57 -127 -137l-195 66q40 101 123 178q80 74 183 113q101 34 204 34q219 0 347 -131
q133 -133 133 -342q0 -153 -76 -289q-74 -136 -211 -215q-139 -79 -301 -79z" />
    <glyph glyph-name="uni044E" unicode="&#x44e;" horiz-adv-x="1654" 
d="M1133 1038q137 0 239 -58.5t154 -160.5q49 -101 49 -231q0 -118 -42 -228t-118 -194q-75 -85 -183 -134.5t-228 -49.5q-201 0 -319 121t-126 313h-199l-110 -416h-223l266 1018h225l-108 -412h172q60 192 206 312q150 120 345 120zM1016 186q139 -1 235.5 119t91.5 273
q0 120 -61 189t-170 69q-90 0 -170 -58q-76 -58 -117 -147q-41 -93 -41 -191q0 -120 61 -187t171 -67z" />
    <glyph glyph-name="uni044F" unicode="&#x44f;" horiz-adv-x="1148" 
d="M1135 1018l-269 -1018h-225l86 330h-180l-320 -330h-278l368 375q-174 67 -174 256q0 176 136 282q135 105 360 105h496zM860 829h-207q-134 0 -206 -50t-72 -142q0 -62 46.5 -94.5t131.5 -32.5h223z" />
    <glyph glyph-name="uni0451" unicode="&#x451;" horiz-adv-x="1169" 
d="M565 1470q56 0 93.5 -37t37.5 -92q0 -65 -47 -112t-112 -47q-57 0 -93 36t-36 93q0 67 45 112q47 47 112 47zM961 1182q-56 0 -93 36t-37 93q0 64 48 112q47 47 110 47q55 0 92 -37t37 -92q0 -67 -45 -112q-47 -47 -112 -47zM1079 442h-764q-6 -123 72 -197t197 -71
q97 0 164 47q71 52 104 111l178 -88q-49 -99 -160 -176q-122 -84 -303 -84q-134 -3 -243.5 52.5t-173.5 161.5t-62 242q0 160 82 297q81 136 217 219q134 82 289 82q195 0 311 -116q119 -122 119 -314q0 -66 -27 -166zM662 844q-111 0 -193 -64q-89 -65 -123 -166h533
q2 4 2 23q0 98 -59 152.5t-160 54.5z" />
    <glyph glyph-name="uni0452" unicode="&#x452;" horiz-adv-x="1175" 
d="M248 1382h143l43 170h230l-46 -170h355l-45 -165h-355l-81 -314q150 135 303 135q147 0 233 -86q84 -84 84 -225q0 -58 -29 -174l-131 -487q-44 -176 -80 -275q-70 -178 -194 -246q-89 -51 -227 -51q-93 0 -164 23l53 200q25 -14 106 -14q117 -5 193 113q26 39 61 147
q3 10 10 35.5t11 42.5q1 5 3.5 15t2.5 14l131 489q12 56 12 100q0 79 -48 121.5t-134 42.5q-104 0 -180 -73q-77 -77 -107 -187l-147 -563h-227l321 1217h-143z" />
    <glyph glyph-name="uni0453" unicode="&#x453;" horiz-adv-x="901" 
d="M748 1192h-220l281 328h289zM469 819l-217 -819h-225l266 1018h711l-54 -199h-481z" />
    <glyph glyph-name="uni0454" unicode="&#x454;" horiz-adv-x="1173" 
d="M1130 717l-200 -62q-14 72 -80 127.5t-180 55.5q-101 0 -195 -66q-91 -67 -125 -158h393l-47 -178h-381q5 -120 77.5 -186t199.5 -66q118 0 194 66q60 50 99 119l192 -70q-54 -120 -178 -213q-63 -48 -149 -76t-179 -28q-215 0 -348 127q-135 129 -135 335
q0 114 47.5 224.5t128.5 191.5t191.5 129.5t224.5 48.5q99 0 181.5 -28t136 -74.5t87 -102t45.5 -116.5z" />
    <glyph glyph-name="uni0455" unicode="&#x455;" horiz-adv-x="952" 
d="M582 281q0 71 -97 116l-108 49q-107 49 -160 112t-53 151q0 135 104 233q107 96 275 96q79 0 145.5 -20.5t108.5 -54.5q38 -30 65 -74q47 -77 47 -156l-198 -33q0 57 -44 107.5t-128 50.5q-69 0 -108.5 -35t-39.5 -84q0 -68 74 -98l129 -57q223 -96 223 -277
q0 -117 -94 -219q-47 -49 -125 -78.5t-170 -29.5q-273 0 -365 188q-28 64 -28 125q0 16 2 22l196 35v-16q0 -73 56 -123q58 -49 137 -49q70 0 113 37t43 82z" />
    <glyph glyph-name="uni0456" unicode="&#x456;" horiz-adv-x="534" 
d="M479 1198q-59 0 -97 37.5t-38 95.5q0 70 49 119q46 49 115 49q59 0 98 -38t39 -97q0 -68 -49 -117t-117 -49zM25 0l268 1018h227l-268 -1018h-227z" />
    <glyph glyph-name="uni0457" unicode="&#x457;" horiz-adv-x="536" 
d="M242 1182q-57 0 -93 36t-36 93q0 67 45 112q47 47 112 47q56 0 92.5 -37t36.5 -92q0 -67 -45 -112q-47 -47 -112 -47zM666 1182q-56 0 -92.5 36t-36.5 93q0 65 47 112t110 47q56 0 92.5 -37t36.5 -92q0 -67 -45 -112q-47 -47 -112 -47zM25 0l268 1018h229l-268 -1018
h-229z" />
    <glyph glyph-name="uni0458" unicode="&#x458;" horiz-adv-x="550" 
d="M496 1198q-59 0 -97.5 37.5t-38.5 95.5q0 69 50 119q46 49 114 49q59 0 97 -37.5t38 -97.5q0 -67 -47 -117q-49 -49 -116 -49zM307 1018h230l-322 -1221q-39 -153 -121 -227t-225 -74q-110 0 -172 33l49 188q46 -16 82 -16q135 0 172 149z" />
    <glyph glyph-name="uni0459" unicode="&#x459;" horiz-adv-x="1841" 
d="M954 819h-346l-104 -282q-64 -181 -150 -316q-43 -68 -96 -121q-103 -108 -242 -108q-34 0 -92 8l53 201q63 0 121 35q37 26 95 114q19 32 43 90q30 70 43 105q43 110 49 127l127 346h778l-88 -338h239q179 0 273 -82q96 -81 96 -205q0 -184 -135 -289
q-134 -104 -371 -104h-508zM1343 508h-243l-84 -320h219q135 0 211 50t76 143q0 60 -49.5 93.5t-129.5 33.5z" />
    <glyph glyph-name="uni045A" unicode="&#x45a;" horiz-adv-x="1812" 
d="M1223 0h-510l118 455h-458l-121 -455h-227l268 1018h229l-98 -369h459l98 369h227l-98 -369h246q174 0 272 -76q94 -76 94 -198q0 -176 -135 -273q-131 -102 -364 -102zM985 186h223q132 0 207.5 45t75.5 129q0 62 -51 91q-53 30 -131 30h-244z" />
    <glyph glyph-name="uni045B" unicode="&#x45b;" horiz-adv-x="1204" 
d="M793 1038q150 0 233 -86q84 -81 84 -223q0 -72 -29 -176l-145 -553h-227l147 559q14 52 14 100q0 79 -48 121.5t-134 42.5q-104 0 -180 -73q-79 -73 -109 -185l-147 -565h-227l315 1198h-133l43 166h135l49 188h228l-50 -188h318l-45 -166h-318l-75 -295q144 135 301 135
z" />
    <glyph glyph-name="uni045C" unicode="&#x45c;" horiz-adv-x="1116" 
d="M850 1192h-221l282 328h287zM1001 0h-278l-338 471h-8l-125 -471h-227l268 1018h227l-112 -428h12l502 428h313l-612 -516z" />
    <glyph glyph-name="uni045E" unicode="&#x45e;" horiz-adv-x="1140" 
d="M256 -502h-252l334 508l-166 1012h231l113 -758l485 758h246zM735 1188q-126 0 -203 80t-77 198v9l139 28q18 -147 160 -147q70 0 119 36.5t85 110.5l142 -28q-109 -287 -365 -287z" />
    <glyph glyph-name="uni045F" unicode="&#x45f;" horiz-adv-x="1214" 
d="M590 0l-82 -313h-223l84 313h-344l268 1018h229l-215 -819h449l215 819h227l-266 -1018h-342z" />
    <glyph glyph-name="uni0490" unicode="&#x490;" horiz-adv-x="1126" 
d="M1294 1278h-655l-340 -1278h-236l400 1493h655l82 309h234z" />
    <glyph glyph-name="uni0491" unicode="&#x491;" horiz-adv-x="901" 
d="M467 819l-215 -819h-225l266 1018h498l79 303h213l-133 -502h-483z" />
    <glyph glyph-name="uni0496" unicode="&#x496;" horiz-adv-x="2058" 
d="M1800 -315h-233l84 315h-41l-414 725h-10l-195 -725h-233l192 725h-10l-756 -725h-315l852 799l-434 694h262l412 -700h8l188 700h234l-187 -700h8l734 700h315l-819 -762l309 -518h191z" />
    <glyph glyph-name="uni0497" unicode="&#x497;" horiz-adv-x="1699" 
d="M1432 -313h-224l82 313h-45l-293 494h-10l-131 -494h-225l131 494h-10l-514 -494h-304l588 549l-307 469h256l293 -469h12l123 469h225l-123 -469h13l495 469h301l-567 -520l186 -299h183z" />
    <glyph glyph-name="uni0498" unicode="&#x498;" horiz-adv-x="1288" 
d="M680 -8l-82 -307h-233l81 309q-170 30 -280 143q-113 116 -113 283q0 15 4 43l230 29v-33q0 -123 82 -193q77 -71 213 -71q142 0 243 88q103 86 103 221q0 101 -74 160q-72 57 -186 57q-68 0 -127 -21l-78 197l557 387h-723l55 209h1047l-60 -233l-522 -363
q157 -21 258 -125q101 -107 101 -260q0 -218 -138 -353.5t-358 -166.5z" />
    <glyph glyph-name="uni0499" unicode="&#x499;" horiz-adv-x="1034" 
d="M461 -313h-221l79 307q-126 28 -210 115q-90 90 -84 239l213 23q-2 -54 15 -93.5t49 -60.5t68.5 -31t80.5 -10q122 0 184 70q35 41 35 94q0 68 -45 94q-48 31 -107 31q-57 0 -133 -27l-63 150l393 235h-533l51 195h805l-55 -211l-324 -195q107 -12 175 -80
q67 -67 67 -165q0 -77 -29 -142t-79 -110.5t-113.5 -76t-136.5 -44.5z" />
    <glyph glyph-name="uni049A" unicode="&#x49a;" horiz-adv-x="1406" 
d="M1159 -315h-233l84 315h-49l-474 709l-190 -709h-234l400 1493h233l-170 -641l752 641h330l-883 -743l367 -537h208z" />
    <glyph glyph-name="uni049B" unicode="&#x49b;" horiz-adv-x="1167" 
d="M924 -313h-224l82 313h-59l-338 471h-8l-125 -471h-227l268 1018h227l-112 -428h12l502 428h313l-612 -516l227 -303h209z" />
    <glyph glyph-name="uni04A2" unicode="&#x4a2;" horiz-adv-x="1681" 
d="M1386 -315h-233l86 315h-207l172 645h-733l-172 -645h-236l400 1493h233l-166 -627h734l168 627h233l-342 -1280h205z" />
    <glyph glyph-name="uni04A3" unicode="&#x4a3;" horiz-adv-x="1292" 
d="M993 -313h-223l82 313h-135l110 422h-462l-111 -422h-227l266 1018h229l-106 -400h463l104 400h225l-213 -819h131z" />
    <glyph glyph-name="uni04AA" unicode="&#x4aa;" horiz-adv-x="1634" 
d="M940 -10l-82 -305h-233l82 305q-249 41 -396 213q-151 177 -151 436q0 169 69 336q72 162 187 280q120 120 280 189q167 72 344 72q116 0 220.5 -31t177.5 -82q68 -50 125 -117q98 -123 120 -264l-231 -68q-8 67 -49.5 139t-110.5 124q-109 81 -272 81q-159 0 -290.5 -78
t-211.5 -206q-110 -165 -110 -367q0 -140 58 -243t159 -154q99 -51 225 -51q170 0 299 84q50 33 98 84q66 73 113 172l221 -86q-55 -127 -156 -228q-47 -53 -125 -106q-72 -48 -166.5 -82.5t-193.5 -46.5z" />
    <glyph glyph-name="uni04AB" unicode="&#x4ab;" horiz-adv-x="1173" 
d="M604 -313h-223l80 305q-171 30 -271 151q-102 123 -102 301q0 156 82 293t219 219t293 82q99 0 183 -28t139 -76q106 -93 131 -217l-209 -64q-12 68 -78 125q-65 56 -180 56q-71 0 -137 -33.5t-111 -89.5q-46 -54 -72 -122.5t-26 -135.5q0 -123 69 -195q75 -72 195 -72
q118 0 196 68q60 50 99 119l196 -72q-52 -111 -149 -192q-104 -90 -242 -117z" />
    <glyph glyph-name="uni04AC" unicode="&#x4ac;" horiz-adv-x="1259" 
d="M731 -315h-233l84 315h-207l342 1278h-473l55 215h1184l-58 -215h-473l-286 -1065h206z" />
    <glyph glyph-name="uni04AD" unicode="&#x4ad;" horiz-adv-x="985" 
d="M528 -313h-221l82 313h-135l215 819h-346l53 199h905l-53 -199h-334l-162 -620h132z" />
    <glyph glyph-name="uni04B2" unicode="&#x4b2;" horiz-adv-x="1474" 
d="M1231 -315h-234l84 315h-84l-260 588l-544 -588h-310l754 780l-340 713h266l246 -543l506 543h309l-715 -737l258 -543h205z" />
    <glyph glyph-name="uni04B3" unicode="&#x4b3;" horiz-adv-x="1128" 
d="M856 -313h-223l82 313h-39l-162 346l-334 -346h-282l528 526l-250 492h254l158 -328l317 328h281l-506 -510l154 -309h157z" />
    <glyph glyph-name="uni04B6" unicode="&#x4b6;" horiz-adv-x="1533" 
d="M1239 -315h-235l83 315h-204l161 610q-94 -50 -223 -86q-128 -35 -227 -35q-179 0 -283 93q-100 87 -100 256q0 70 20 149l136 506h233l-133 -500q-14 -54 -14 -102q0 -186 231 -186q97 0 209 34q122 40 211 90l176 664h236l-342 -1280h206z" />
    <glyph glyph-name="uni04B7" unicode="&#x4b7;" horiz-adv-x="1187" 
d="M889 -313h-223l82 313h-134l97 375q-59 -30 -162 -53q-100 -23 -166 -23q-122 0 -197 63q-77 60 -77 183q0 48 14 100l98 373h230l-89 -334q-12 -46 -12 -72q0 -54 34 -84t99 -30q155 0 281 75l117 445h225l-215 -819h133z" />
    <glyph glyph-name="uni04C0" unicode="&#x4c0;" horiz-adv-x="624" 
d="M63 0l400 1493h233l-397 -1493h-236z" />
    <glyph glyph-name="uni04C1" unicode="&#x4c1;" horiz-adv-x="2009" 
d="M1157 1493h234l-187 -700h8l734 700h315l-819 -762l438 -731h-270l-414 725h-10l-195 -725h-233l192 725h-10l-756 -725h-315l852 799l-434 694h262l412 -700h8zM1290 1620q-126 0 -203 80t-77 198v9l139 28q18 -147 160 -147q70 0 119 36.5t85 110.5l142 -26
q-108 -289 -365 -289z" />
    <glyph glyph-name="uni04C2" unicode="&#x4c2;" horiz-adv-x="1654" 
d="M854 1018h225l-123 -469h13l495 469h301l-567 -520l311 -498h-264l-293 494h-10l-131 -494h-225l131 494h-10l-514 -494h-304l588 549l-307 469h256l293 -469h12zM1014 1188q-126 0 -203 80q-78 81 -78 198v9l139 28q18 -147 160 -147q70 0 119.5 36.5t85.5 110.5
l141 -28q-109 -287 -364 -287z" />
    <glyph glyph-name="uni04CF" unicode="&#x4cf;" horiz-adv-x="536" 
d="M25 0l268 1018h229l-268 -1018h-229z" />
    <glyph glyph-name="uni04D0" unicode="&#x4d0;" horiz-adv-x="1503" 
d="M1145 0l-49 350h-725l-224 -350h-262l981 1493h287l229 -1493h-237zM1067 559l-106 696l-455 -696h561z" />
    <glyph glyph-name="uni04D1" unicode="&#x4d1;" horiz-adv-x="1282" 
d="M481 -16q-179 0 -286 122q-109 124 -109 310q0 130 49 246q45 113 127 198q79 83 182.5 130.5t210.5 47.5q116 0 204.5 -47.5t135.5 -128.5l43 156h226l-220 -832q-21 -79 -24 -151v-35h-225v37q3 58 10 84q-149 -137 -324 -137zM940 582q0 111 -74 182q-73 70 -182 70
q-99 2 -182.5 -54t-129.5 -149t-44 -199q0 -109 67 -176q67 -70 176 -70q86 0 174 54q89 55 140 143q55 88 55 199zM756 1188q-126 0 -203 80q-78 81 -78 198v9l139 28q18 -147 158 -147q72 0 121.5 36.5t85.5 110.5l141 -28q-109 -287 -364 -287z" />
    <glyph glyph-name="uni04D2" unicode="&#x4d2;" horiz-adv-x="1503" 
d="M815 1618q-57 0 -93 36t-36 93q0 68 45 113q47 47 113 47q56 0 92.5 -36t36.5 -93q0 -68 -45 -113q-47 -47 -113 -47zM1257 1618q-56 0 -92.5 36t-36.5 93q0 65 48 113q47 47 110 47q56 0 92.5 -36t36.5 -93q0 -68 -45 -113q-47 -47 -113 -47zM1145 0l-49 350h-725
l-224 -350h-262l981 1493h287l229 -1493h-237zM1067 559l-106 696l-455 -696h561z" />
    <glyph glyph-name="uni04D3" unicode="&#x4d3;" horiz-adv-x="1282" 
d="M565 1182q-57 0 -93 36t-36 93q0 67 45 112q47 47 113 47q56 0 92.5 -37t36.5 -92q0 -67 -45 -112q-47 -47 -113 -47zM989 1182q-57 0 -93 36t-36 93q0 67 45 112q47 47 111 47q57 0 94 -36.5t37 -92.5q0 -67 -45 -112q-47 -47 -113 -47zM481 -16q-179 0 -286 122
q-109 124 -109 310q0 130 49 246q45 113 127 198q79 83 182.5 130.5t210.5 47.5q116 0 204.5 -47.5t135.5 -128.5l43 156h226l-220 -832q-21 -79 -24 -151v-35h-225v37q3 58 10 84q-149 -137 -324 -137zM940 582q0 111 -74 182q-73 70 -182 70q-99 2 -182.5 -54t-129.5 -149
t-44 -199q0 -109 67 -176q67 -70 176 -70q86 0 174 54q89 55 140 143q55 88 55 199z" />
    <glyph glyph-name="uni04D4" unicode="&#x4d4;" horiz-adv-x="2033" 
d="M936 350h-526l-281 -350h-272l1210 1493h1118l-57 -211h-715l-110 -418h649l-58 -209h-649l-117 -444h721l-57 -211h-952zM1182 1284h-21l-583 -725h413z" />
    <glyph glyph-name="uni04D5" unicode="&#x4d5;" horiz-adv-x="1802" 
d="M803 199q-79 -101 -191 -159t-235 -58h-12q-134 -2 -230.5 73t-95.5 199q0 145 113 233q112 89 290 101l244 16q109 6 109 113q0 65 -54 96q-50 33 -120 33q-99 0 -166 -58q-70 -61 -90 -122l-201 63q26 93 141 193q60 53 150 84.5t190 31.5q226 0 301 -145
q157 145 363 145q195 0 311 -116q119 -119 119 -314q0 -78 -27 -166h-766q-6 -123 74 -198t197 -70q95 0 165 47q69 51 103 111l178 -88q-49 -98 -158 -176q-125 -84 -303 -84q-136 0 -239.5 56t-159.5 159zM1516 639q0 98 -60 151.5t-162 53.5q-109 0 -194 -64
q-86 -65 -123 -166h536q3 9 3 25zM725 449l-205 -13q-82 -6 -162 -37q-88 -38 -88 -120q0 -51 37 -83t92 -32q111 0 201 72q93 78 119 184z" />
    <glyph glyph-name="uni04D6" unicode="&#x4d6;" horiz-adv-x="1263" 
d="M1022 0h-959l400 1493h950l-55 -211h-717l-111 -418h650l-56 -209h-651l-119 -444h723z" />
    <glyph glyph-name="uni04D7" unicode="&#x4d7;" horiz-adv-x="1169" 
d="M1079 442h-764q-6 -123 72 -197t197 -71q97 0 164 47q71 52 104 111l178 -88q-49 -99 -160 -176q-122 -84 -303 -84q-134 -3 -243.5 52.5t-173.5 161.5t-62 242q0 160 82 297q81 136 217 219q134 82 289 82q195 0 311 -116q119 -122 119 -314q0 -66 -27 -166zM662 844
q-111 0 -193 -64q-89 -65 -123 -166h533q2 4 2 23q0 98 -59 152.5t-160 54.5zM750 1188q-126 0 -203 80q-78 81 -78 198v9l139 28q18 -147 160 -147q70 0 119.5 36.5t85.5 110.5l141 -28q-109 -287 -364 -287z" />
    <glyph glyph-name="uni04DC" unicode="&#x4dc;" horiz-adv-x="2009" 
d="M1102 1618q-57 0 -93 36t-36 93q0 68 45 113q47 47 112 47q57 0 93.5 -36t36.5 -93q0 -67 -46 -113q-47 -47 -112 -47zM1518 1618q-56 0 -91.5 36t-35.5 93q0 68 45 113q47 47 110 47q57 0 94 -36t37 -93q0 -66 -47 -113t-112 -47zM1157 1493h234l-187 -700h8l734 700
h315l-819 -762l438 -731h-270l-414 725h-10l-195 -725h-233l192 725h-10l-756 -725h-315l852 799l-434 694h262l412 -700h8z" />
    <glyph glyph-name="uni04DD" unicode="&#x4dd;" horiz-adv-x="1654" 
d="M803 1182q-57 0 -93 36t-36 93q0 67 45 112q47 47 110 47q57 0 94.5 -36.5t37.5 -92.5q0 -66 -46 -112q-47 -47 -112 -47zM1227 1182q-57 0 -94 36t-37 93q0 65 47 112t110 47q57 0 94 -36.5t37 -92.5q0 -67 -45 -112q-47 -47 -112 -47zM854 1018h225l-123 -469h13
l495 469h301l-567 -520l311 -498h-264l-293 494h-10l-131 -494h-225l131 494h-10l-514 -494h-304l588 549l-307 469h256l293 -469h12z" />
    <glyph glyph-name="uni04DE" unicode="&#x4de;" horiz-adv-x="1288" 
d="M702 1618q-57 0 -93 36t-36 93q0 68 45 113q47 47 111 47q57 0 94 -36t37 -93q0 -68 -45 -113q-47 -47 -113 -47zM1145 1618q-57 0 -94 36t-37 93q0 66 47 113t110 47q57 0 94.5 -36t37.5 -93q0 -67 -46 -113q-47 -47 -112 -47zM559 -16q-203 0 -352 114
q-72 57 -113 140.5t-41 181.5q0 15 4 43l230 29v-33q0 -123 82 -193q77 -71 213 -71q142 0 243 88q103 86 103 221q0 101 -74 160q-72 57 -186 57q-68 0 -127 -21l-78 197l557 387h-723l55 209h1047l-60 -233l-522 -363q157 -21 258 -125q101 -107 101 -260
q0 -124 -48.5 -225.5t-134.5 -167.5q-177 -135 -434 -135z" />
    <glyph glyph-name="uni04DF" unicode="&#x4df;" horiz-adv-x="1034" 
d="M475 1182q-57 0 -93 36t-36 93q0 67 45 112q47 47 111 47q57 0 94 -36.5t37 -92.5q0 -67 -45 -112q-47 -47 -113 -47zM899 1182q-57 0 -94 36t-37 93q0 65 47 112t111 47q57 0 94 -36.5t37 -92.5q0 -67 -45 -112q-47 -47 -113 -47zM1038 1018l-55 -211l-324 -195
q107 -12 175 -80q67 -67 67 -165q0 -88 -40.5 -163t-108.5 -124q-140 -98 -324 -98q-155 0 -281 90q-60 46 -93 117.5t-29 158.5l213 23q-2 -54 15 -93.5t49 -60.5t68.5 -31t80.5 -10q122 0 184 70q35 41 35 94q0 68 -45 94q-48 31 -107 31q-57 0 -133 -27l-63 150l393 235
h-533l51 195h805z" />
    <glyph glyph-name="uni04E2" unicode="&#x4e2;" horiz-adv-x="1630" 
d="M836 1876h659l-47 -180h-662zM389 344l1041 1151h274l-397 -1495h-232l301 1147l-1036 -1147h-277l400 1493h231z" />
    <glyph glyph-name="uni04E3" unicode="&#x4e3;" horiz-adv-x="1236" 
d="M504 1393h661l-49 -183h-659zM952 0h-221l178 678l-657 -678h-227l268 1018h221l-178 -680l665 680h220z" />
    <glyph glyph-name="uni04E4" unicode="&#x4e4;" horiz-adv-x="1630" 
d="M895 1618q-57 0 -93 36t-36 93q0 68 45 113q47 47 113 47q56 0 93.5 -36.5t37.5 -92.5q0 -66 -47 -113t-113 -47zM1337 1618q-56 0 -92.5 36t-36.5 93q0 66 47 113t111 47q56 0 92.5 -36t36.5 -93q0 -68 -45 -113q-47 -47 -113 -47zM389 344l1041 1151h274l-397 -1495
h-232l301 1147l-1036 -1147h-277l400 1493h231z" />
    <glyph glyph-name="uni04E5" unicode="&#x4e5;" horiz-adv-x="1236" 
d="M952 0h-221l178 678l-657 -678h-227l268 1018h221l-178 -680l665 680h220z" />
    <glyph glyph-name="uni04E6" unicode="&#x4e6;" horiz-adv-x="1718" 
d="M872 1618q-57 0 -93 36t-36 93q0 68 45 113q47 47 113 47q56 0 92.5 -36t36.5 -93q0 -68 -45 -113q-47 -47 -113 -47zM1315 1618q-57 0 -93 36t-36 93q0 68 45 113q47 47 110 47q57 0 94.5 -36t37.5 -93q0 -67 -46 -113q-47 -47 -112 -47zM819 -18q-192 0 -346 86
q-152 87 -231 233q-82 146 -82 332q0 167 64.5 326t181.5 282q117 128 279.5 201t348.5 74q144 0 269 -49.5t213 -137.5q87 -89 135.5 -209.5t48.5 -255.5q0 -166 -65 -325t-183 -283q-165 -176 -387 -240q-118 -34 -246 -34zM846 199q152 0 282.5 79.5t212.5 208.5
q111 171 111 367q0 198 -119 320q-118 124 -321 124q-154 0 -285 -79.5t-211 -208.5q-113 -170 -113 -367q0 -194 119 -319t324 -125z" />
    <glyph glyph-name="uni04E7" unicode="&#x4e7;" horiz-adv-x="1236" 
d="M553 1182q-57 0 -93 36t-36 93q0 67 45 112q47 47 113 47q56 0 92.5 -37t36.5 -92q0 -67 -45 -112q-47 -47 -113 -47zM977 1182q-57 0 -93 36t-36 93q0 67 45 112q47 47 111 47q57 0 94 -36.5t37 -92.5q0 -67 -45 -112q-47 -47 -113 -47zM682 1038q211 0 344 -127
q133 -124 133 -338q0 -152 -80 -288q-81 -138 -217 -219q-141 -84 -297 -84q-209 0 -342 127q-135 126 -135 333q0 121 47 226q45 105 127 190q83 83 191 131q110 49 229 49zM580 186q91 0 176 60q82 57 127 143q45 92 45 178q0 125 -72 197q-70 70 -188 70
q-71 0 -138 -33.5t-112 -89.5q-99 -124 -99 -258q0 -123 72 -195q75 -72 189 -72z" />
    <glyph glyph-name="uni04E8" unicode="&#x4e8;" horiz-adv-x="1718" 
d="M819 -18q-192 0 -346 86q-152 87 -231 233q-82 146 -82 332q0 167 64.5 326t181.5 282q117 128 279.5 201t348.5 74q144 0 269 -49.5t213 -137.5q87 -89 135.5 -209.5t48.5 -255.5q0 -166 -65 -325t-183 -283q-165 -176 -387 -240q-118 -34 -246 -34zM440 860h1014
q0 193 -123 316q-119 122 -319 122q-98 0 -193 -35.5t-170 -97.5q-153 -127 -209 -305zM1423 657h-1022v-14q0 -195 121 -319q119 -125 324 -125q136 0 258 67q124 65 205 168q79 101 114 223z" />
    <glyph glyph-name="uni04E9" unicode="&#x4e9;" horiz-adv-x="1236" 
d="M682 1038q211 0 344 -127q133 -124 133 -338q0 -152 -80 -288q-81 -138 -217 -219q-141 -84 -297 -84q-209 0 -342 127q-135 126 -135 333q0 121 47 226q45 105 127 190q83 83 191 131q110 49 229 49zM344 596h588q-3 109 -76 176q-72 66 -188 66q-108 0 -199 -70
q-89 -74 -125 -172zM903 428h-588q3 -114 76 -178q72 -66 189 -66q108 0 198 72q92 71 125 172z" />
    <glyph glyph-name="uni04EA" unicode="&#x4ea;" horiz-adv-x="1718" 
d="M872 1618q-57 0 -93 36t-36 93q0 68 45 113q47 47 113 47q56 0 92.5 -36t36.5 -93q0 -68 -45 -113q-47 -47 -113 -47zM1315 1618q-57 0 -93 36t-36 93q0 68 45 113q47 47 110 47q57 0 94.5 -36t37.5 -93q0 -67 -46 -113q-47 -47 -112 -47zM819 -18q-192 0 -346 86
q-152 87 -231 233q-82 146 -82 332q0 167 64.5 326t181.5 282q117 128 279.5 201t348.5 74q144 0 269 -49.5t213 -137.5q87 -89 135.5 -209.5t48.5 -255.5q0 -166 -65 -325t-183 -283q-165 -176 -387 -240q-118 -34 -246 -34zM440 860h1014q0 193 -123 316
q-119 122 -319 122q-98 0 -193 -35.5t-170 -97.5q-153 -127 -209 -305zM1423 657h-1022v-14q0 -195 121 -319q119 -125 324 -125q136 0 258 67q124 65 205 168q79 101 114 223z" />
    <glyph glyph-name="uni04EB" unicode="&#x4eb;" horiz-adv-x="1236" 
d="M553 1182q-57 0 -93 36t-36 93q0 67 45 112q47 47 113 47q56 0 92.5 -37t36.5 -92q0 -67 -45 -112q-47 -47 -113 -47zM977 1182q-57 0 -93 36t-36 93q0 67 45 112q47 47 111 47q57 0 94 -36.5t37 -92.5q0 -67 -45 -112q-47 -47 -113 -47zM682 1038q211 0 344 -127
q133 -124 133 -338q0 -152 -80 -288q-81 -138 -217 -219q-141 -84 -297 -84q-209 0 -342 127q-135 126 -135 333q0 121 47 226q45 105 127 190q83 83 191 131q110 49 229 49zM344 596h588q-3 109 -76 176q-72 66 -188 66q-108 0 -199 -70q-89 -74 -125 -172zM903 428h-588
q3 -114 76 -178q72 -66 189 -66q108 0 198 72q92 71 125 172z" />
    <glyph glyph-name="uni04EC" unicode="&#x4ec;" horiz-adv-x="1630" 
d="M754 1618q-57 0 -93 36t-36 93q0 68 45 113q47 47 110 47q57 0 94 -36t37 -93q0 -68 -45 -113q-47 -47 -112 -47zM1196 1618q-57 0 -94 36t-37 93q0 66 47 113t111 47q57 0 94 -36t37 -93q0 -68 -45 -113q-47 -47 -113 -47zM938 1516q187 0 342 -82q154 -83 240 -234
q86 -148 86 -340q0 -168 -64 -338q-63 -156 -176 -278q-116 -122 -276 -191q-165 -71 -353 -71q-226 0 -411 135q-88 64 -146.5 156.5t-75.5 199.5l228 72q28 -163 143 -256q120 -94 281 -94q198 0 358 133q160 130 221 327h-657l55 207h633q6 182 -121 312
q-126 126 -330 126q-171 0 -311 -94q-141 -96 -196 -243l-215 81q60 151 172 254q114 105 264 162q148 56 309 56z" />
    <glyph glyph-name="uni04ED" unicode="&#x4ed;" horiz-adv-x="1177" 
d="M465 1182q-57 0 -93 36t-36 93q0 67 45 112q47 47 113 47q56 0 93.5 -37t37.5 -92q0 -65 -47 -112t-113 -47zM889 1182q-56 0 -92.5 36t-36.5 93q0 65 47 112t111 47q56 0 92.5 -37t36.5 -92q0 -66 -46 -112q-47 -47 -112 -47zM508 -18q-180 0 -299 88q-119 85 -154 241
l201 64q56 -191 258 -191q115 0 209 76q95 79 121 176h-402l47 178h375q-6 97 -78 160q-73 64 -182 64q-91 0 -176 -54q-85 -57 -127 -137l-195 66q40 101 123 178q80 74 183 113q101 34 204 34q219 0 347 -131q133 -133 133 -342q0 -153 -76 -289q-74 -136 -211 -215
q-139 -79 -301 -79z" />
    <glyph glyph-name="uni04EE" unicode="&#x4ee;" horiz-adv-x="1351" 
d="M698 1876h662l-49 -180h-660zM262 1493h244l231 -842l615 842h266l-815 -1110q-60 -78 -99.5 -123.5t-97.5 -97.5q-63 -57 -125 -92q-144 -86 -305 -86q-82 0 -174 24l55 205q74 -18 142 -18q105 0 193.5 55.5t176.5 171.5z" />
    <glyph glyph-name="uni04EF" unicode="&#x4ef;" horiz-adv-x="1140" 
d="M453 1393h661l-49 -183h-662zM256 -502h-252l334 508l-166 1012h231l113 -758l485 758h246z" />
    <glyph glyph-name="uni04F0" unicode="&#x4f0;" horiz-adv-x="1351" 
d="M750 1618q-56 0 -92.5 36t-36.5 93q0 68 45 113q47 47 112 47q56 0 93.5 -36.5t37.5 -92.5q0 -66 -47 -113t-112 -47zM1192 1618q-56 0 -92.5 36t-36.5 93q0 66 47 113t111 47q56 0 93.5 -36.5t37.5 -92.5q0 -66 -47 -113t-113 -47zM262 1493h244l231 -842l615 842h266
l-815 -1110q-60 -78 -99.5 -123.5t-97.5 -97.5q-63 -57 -125 -92q-144 -86 -305 -86q-82 0 -174 24l55 205q74 -18 142 -18q105 0 193.5 55.5t176.5 171.5z" />
    <glyph glyph-name="uni04F1" unicode="&#x4f1;" horiz-adv-x="1140" 
d="M543 1182q-56 0 -92.5 36t-36.5 93q0 65 47 112t110 47q56 0 93.5 -37t37.5 -92q0 -65 -47 -112t-112 -47zM967 1182q-56 0 -92.5 36t-36.5 93q0 65 47 112t110 47q56 0 93.5 -37t37.5 -92q0 -65 -47 -112t-112 -47zM256 -502h-252l334 508l-166 1012h231l113 -758
l485 758h246z" />
    <glyph glyph-name="uni04F2" unicode="&#x4f2;" horiz-adv-x="1351" 
d="M848 1628h-219l282 328h287zM1255 1628h-221l283 328h289zM262 1493h244l231 -842l615 842h266l-815 -1110q-60 -78 -99.5 -123.5t-97.5 -97.5q-63 -57 -125 -92q-144 -86 -305 -86q-82 0 -174 24l55 205q74 -18 142 -18q105 0 193.5 55.5t176.5 171.5z" />
    <glyph glyph-name="uni04F3" unicode="&#x4f3;" horiz-adv-x="1140" 
d="M635 1192h-219l280 328h289zM1042 1192h-221l283 328h289zM256 -502h-252l334 508l-166 1012h231l113 -758l485 758h246z" />
    <glyph glyph-name="uni04F4" unicode="&#x4f4;" horiz-adv-x="1441" 
d="M756 1618q-57 0 -93 36t-36 93q0 68 45 113q47 47 112 47q56 0 92.5 -36t36.5 -93q0 -68 -45 -113q-47 -47 -112 -47zM1198 1618q-56 0 -92.5 36t-36.5 93q0 66 47 113t111 47q56 0 92.5 -36t36.5 -93q0 -68 -45 -113q-47 -47 -113 -47zM883 0l161 610q-94 -50 -223 -86
q-128 -35 -227 -35q-179 0 -283 93q-100 87 -100 256q0 70 20 149l136 506h233l-133 -500q-14 -54 -14 -102q0 -186 231 -186q97 0 209 34q122 40 211 90l176 664h236l-400 -1493h-233z" />
    <glyph glyph-name="uni04F5" unicode="&#x4f5;" horiz-adv-x="1122" 
d="M500 1182q-57 0 -93 36t-36 93q0 67 45 112q47 47 112 47q56 0 92.5 -37t36.5 -92q0 -67 -45 -112q-47 -47 -112 -47zM924 1182q-56 0 -92.5 36t-36.5 93q0 67 45 112q47 47 112 47q56 0 92.5 -37t36.5 -92q0 -67 -45 -112q-47 -47 -112 -47zM840 0h-226l97 375
q-59 -30 -162 -53q-100 -23 -166 -23q-122 0 -197 63q-77 60 -77 183q0 48 14 100l98 373h230l-89 -334q-12 -46 -12 -72q0 -54 34 -84t99 -30q155 0 281 75l117 445h225z" />
    <glyph glyph-name="uni04F8" unicode="&#x4f8;" horiz-adv-x="1929" 
d="M1044 1618q-57 0 -94 36t-37 93q0 65 48 113q47 47 110 47q57 0 94 -36t37 -93q0 -68 -45 -113q-47 -47 -113 -47zM1485 1618q-56 0 -92.5 36t-36.5 93q0 66 47 113t110 47q56 0 94 -36.5t38 -92.5q0 -65 -48 -113q-47 -47 -112 -47zM1317 528q0 -251 -184 -389
q-186 -139 -494 -139h-576l400 1493h233l-155 -582h282q226 0 361 -102q133 -109 133 -281zM1358 0l399 1493h246l-397 -1493h-248zM1077 504q0 95 -73.5 150t-202.5 55h-314l-133 -498h295q203 0 316 76q112 72 112 217z" />
    <glyph glyph-name="uni04F9" unicode="&#x4f9;" horiz-adv-x="1662" 
d="M825 1182q-57 0 -93 36t-36 93q0 67 45 112q47 47 111 47q57 0 94 -36.5t37 -92.5q0 -67 -45 -112q-47 -47 -113 -47zM1249 1182q-57 0 -94 36t-37 93q0 65 47 112t111 47q57 0 94 -36.5t37 -92.5q0 -67 -45 -112q-47 -47 -113 -47zM535 0h-510l268 1018h227l-90 -338
h242q178 0 272 -82q96 -77 96 -205q0 -184 -135 -289q-134 -104 -370 -104zM631 508h-244l-86 -320h221q135 0 211 50t76 143q0 60 -49 93.5t-129 33.5zM1153 0l268 1018h228l-269 -1018h-227z" />
    <glyph glyph-name="uni0E3F" unicode="&#xe3f;" horiz-adv-x="1415" 
d="M446 -195l54 195h-437l400 1493h434l55 207h154l-57 -215q173 -23 272 -119q92 -95 92 -231q0 -139 -90 -240q-89 -99 -250 -137q227 -88 227 -307q0 -203 -165 -328q-167 -123 -469 -123h-15l-51 -195h-154zM731 860l113 424h-205l-113 -424h205zM991 1278l-110 -416
q125 12 204 64q93 63 93 178q0 72 -47.5 117t-139.5 57zM557 209l119 446h-203l-119 -446h203zM823 655l-118 -446q168 3 266 70t98 184q0 84 -64 134.5t-182 57.5z" />
    <glyph glyph-name="uni1E20" unicode="&#x1e20;" horiz-adv-x="1665" 
d="M784 1876h662l-49 -180h-660zM1667 1049l-231 -72q-11 50 -41 108q-38 74 -92 121q-112 94 -289 94q-163 0 -303 -90q-143 -90 -222 -239q-81 -150 -81 -328q0 -127 46.5 -226t147.5 -159.5t246 -60.5q104 0 193.5 30t150.5 82q122 106 149 226h-540l53 210h793
q-12 -166 -74 -306.5t-166 -241.5q-105 -102 -254.5 -157.5t-329.5 -55.5q-159 0 -287.5 50.5t-209.5 141.5q-164 187 -164 455q0 150 45.5 288t128 245.5t191 187t239.5 122t270 42.5q115 0 216.5 -30.5t174.5 -80.5q73 -51 121 -111q97 -119 119 -245z" />
    <glyph glyph-name="uni1E21" unicode="&#x1e21;" 
d="M504 1393h661l-49 -183h-661zM1266 1018l-277 -1049q-62 -225 -209 -352q-148 -127 -381 -127q-92 0 -173.5 25.5t-135.5 68.5q-53 42 -92 99q-72 102 -72 215l217 43q0 -86 60 -164q64 -84 200 -84q141 0 232.5 75t128.5 216l41 155q-142 -127 -322 -127
q-167 0 -278 123q-113 119 -113 305q0 126 47 234q45 106 125 190q79 81 182 127.5t209 46.5q123 0 209 -51q91 -52 137 -131l41 162h224zM932 594q0 108 -66 174q-65 68 -182 68q-145 0 -248 -109q-102 -108 -102 -266q0 -107 67 -174q66 -72 174 -72q67 0 132.5 29.5
t115.5 81.5q50 50 79.5 121.5t29.5 146.5z" />
    <glyph glyph-name="uni1E30" unicode="&#x1e30;" horiz-adv-x="1351" 
d="M1079 1628h-219l281 328h289zM725 750l514 -750h-278l-474 709l-190 -709h-234l400 1493h233l-170 -641l752 641h330z" />
    <glyph glyph-name="uni1E31" unicode="&#x1e31;" horiz-adv-x="1105" 
d="M983 0h-270l-322 508h-4l-133 -508h-227l407 1552h228l-244 -927h4l479 393h330l-604 -486zM750 1192h219l350 328h-289z" />
    <glyph glyph-name="uni1E60" unicode="&#x1e60;" horiz-adv-x="1259" 
d="M848 1618q-59 0 -97 37.5t-38 95.5q0 71 47 121q47 47 117 47q59 0 98 -38t39 -97q0 -68 -49 -117t-117 -49zM918 414q0 66 -46 112q-46 43 -147 86l-141 62q-143 61 -224 151q-79 85 -79 226q0 102 43.5 191t117.5 151q159 123 357 123q105 0 194.5 -28.5t147.5 -74.5
q50 -42 90 -104q65 -103 65 -219l-229 -37q0 53 -23 106q-13 34 -45 70q-30 33 -86 54.5t-127 21.5q-106 0 -186 -62t-80 -158q0 -66 36 -109t110 -75l161 -72q147 -62 234 -145q98 -91 98 -248q0 -86 -36 -166.5t-101 -144.5q-66 -66 -166 -103.5t-215 -37.5
q-173 0 -305 69q-141 75 -207 213q-43 90 -43 185q0 18 2 55l231 41q-2 -16 -2 -51q0 -140 91 -222q90 -81 233 -81q114 0 197 59q80 56 80 162z" />
    <glyph glyph-name="uni1E61" unicode="&#x1e61;" horiz-adv-x="952" 
d="M594 1184q-60 0 -97.5 37t-37.5 96q0 72 47 119q46 49 117 49q59 0 97 -38.5t38 -96.5q0 -67 -47 -117q-49 -49 -117 -49zM582 281q0 71 -97 116l-108 49q-107 49 -160 112t-53 151q0 135 104 233q107 96 275 96q79 0 145.5 -20.5t108.5 -54.5q38 -30 65 -74
q47 -77 47 -156l-198 -33q0 57 -44 107.5t-128 50.5q-69 0 -108.5 -35t-39.5 -84q0 -68 74 -98l129 -57q223 -96 223 -277q0 -117 -94 -219q-47 -49 -125 -78.5t-170 -29.5q-273 0 -365 188q-28 64 -28 125q0 16 2 22l196 35v-16q0 -73 56 -123q58 -49 137 -49q70 0 113 37
t43 82z" />
    <glyph glyph-name="Wgrave" unicode="&#x1e80;" horiz-adv-x="2248" 
d="M1110 1958h262l105 -328h-177zM649 0h-268l-84 1493h244l51 -1171l643 1171h254l82 -1171l629 1171h258l-822 -1493h-268l-78 1151z" />
    <glyph glyph-name="wgrave" unicode="&#x1e81;" horiz-adv-x="1673" 
d="M715 1520h262l104 -328h-178zM856 1018h229l41 -717h2l408 717h238l-594 -1018h-238l-45 709h-4l-422 -709h-235l-60 1018h234l24 -713h2z" />
    <glyph glyph-name="Wacute" unicode="&#x1e82;" horiz-adv-x="2248" 
d="M1493 1628h-221l282 328h289zM649 0h-268l-84 1493h244l51 -1171l643 1171h254l82 -1171l629 1171h258l-822 -1493h-268l-78 1151z" />
    <glyph glyph-name="wacute" unicode="&#x1e83;" horiz-adv-x="1673" 
d="M1108 1192h-219l280 328h289zM856 1018h229l41 -717h2l408 717h238l-594 -1018h-238l-45 709h-4l-422 -709h-235l-60 1018h234l24 -713h2z" />
    <glyph glyph-name="Wdieresis" unicode="&#x1e84;" horiz-adv-x="2248" 
d="M1184 1618q-57 0 -93 36t-36 93q0 68 45 113q47 47 112 47q56 0 92.5 -36t36.5 -93q0 -68 -45 -113q-47 -47 -112 -47zM1626 1618q-56 0 -92.5 36t-36.5 93q0 66 47 113t111 47q56 0 92.5 -36t36.5 -93q0 -68 -45 -113q-47 -47 -113 -47zM649 0h-268l-84 1493h244
l51 -1171l643 1171h254l82 -1171l629 1171h258l-822 -1493h-268l-78 1151z" />
    <glyph glyph-name="wdieresis" unicode="&#x1e85;" horiz-adv-x="1673" 
d="M807 1182q-57 0 -94 36t-37 93q0 65 47 112t111 47q57 0 94 -36.5t37 -92.5q0 -67 -45 -112q-47 -47 -113 -47zM1229 1182q-56 0 -92.5 36t-36.5 93q0 65 47 112t110 47q56 0 94 -37t38 -92q0 -64 -48 -112q-47 -47 -112 -47zM856 1018h229l41 -717h2l408 717h238
l-594 -1018h-238l-45 709h-4l-422 -709h-235l-60 1018h234l24 -713h2z" />
    <glyph glyph-name="uni1E90" unicode="&#x1e90;" horiz-adv-x="1265" 
d="M541 1628l360 328h178l176 -328h-204l-86 176l-187 -176h-237zM-57 0l53 203l1083 1081h-762l56 209h1063l-54 -201l-1087 -1083h821l-57 -209h-1116z" />
    <glyph glyph-name="uni1E91" unicode="&#x1e91;" horiz-adv-x="1001" 
d="M307 1190l361 330h178l176 -330h-205l-86 176l-188 -176h-236zM-47 0l49 188l703 631h-521l52 199h815l-47 -180l-717 -641h553l-52 -197h-835z" />
    <glyph glyph-name="uni1EBC" unicode="&#x1ebc;" horiz-adv-x="1263" 
d="M1233 1929h143q-24 -115 -76 -188q-64 -86 -184 -86q-70 0 -133 47q-61 49 -113 49q-33 0 -58 -27t-36 -67h-158q27 118 80 190q61 86 183 86q66 0 133 -47q72 -47 114 -47q68 0 105 90zM1022 0h-959l400 1493h950l-55 -211h-717l-111 -418h650l-56 -209h-651l-119 -444
h723z" />
    <glyph glyph-name="uni1EBD" unicode="&#x1ebd;" horiz-adv-x="1169" 
d="M1006 1483h143q-24 -116 -76 -189q-61 -86 -184 -86q-70 0 -133 47q-56 48 -111 48q-35 0 -60 -26.5t-36 -66.5h-158q27 120 80 191q63 84 184 84q65 0 133 -45q62 -47 113 -47q68 0 105 90zM1079 442h-764q-6 -123 72 -197t197 -71q97 0 164 47q71 52 104 111l178 -88
q-49 -99 -160 -176q-122 -84 -303 -84q-134 -3 -243.5 52.5t-173.5 161.5t-62 242q0 160 82 297q81 136 217 219q134 82 289 82q195 0 311 -116q119 -122 119 -314q0 -66 -27 -166zM662 844q-111 0 -193 -64q-89 -65 -123 -166h533q2 4 2 23q0 98 -59 152.5t-160 54.5z" />
    <glyph glyph-name="Ygrave" unicode="&#x1ef2;" horiz-adv-x="1415" 
d="M705 1958h262l104 -328h-178zM840 578l-156 -578h-235l159 602l-307 891h256l219 -680l584 680h285z" />
    <glyph glyph-name="ygrave" unicode="&#x1ef3;" horiz-adv-x="1140" 
d="M455 1520h262l104 -328h-176zM256 -502h-252l334 508l-166 1012h231l113 -758l485 758h246z" />
    <glyph glyph-name="uni2000" unicode="&#x2000;" horiz-adv-x="1077" 
 />
    <glyph glyph-name="uni2001" unicode="&#x2001;" horiz-adv-x="2156" 
 />
    <glyph glyph-name="uni2002" unicode="&#x2002;" horiz-adv-x="1077" 
 />
    <glyph glyph-name="uni2003" unicode="&#x2003;" horiz-adv-x="2156" 
 />
    <glyph glyph-name="uni2004" unicode="&#x2004;" horiz-adv-x="718" 
 />
    <glyph glyph-name="uni2005" unicode="&#x2005;" horiz-adv-x="538" 
 />
    <glyph glyph-name="uni2006" unicode="&#x2006;" horiz-adv-x="358" 
 />
    <glyph glyph-name="uni2007" unicode="&#x2007;" horiz-adv-x="358" 
 />
    <glyph glyph-name="uni2008" unicode="&#x2008;" horiz-adv-x="268" 
 />
    <glyph glyph-name="uni2009" unicode="&#x2009;" horiz-adv-x="430" 
 />
    <glyph glyph-name="uni200A" unicode="&#x200a;" horiz-adv-x="118" 
 />
    <glyph glyph-name="uni2010" unicode="&#x2010;" horiz-adv-x="890" 
d="M819 735l-61 -231h-621l64 231h618z" />
    <glyph glyph-name="uni2011" unicode="&#x2011;" horiz-adv-x="890" 
d="M819 735l-61 -231h-621l64 231h618z" />
    <glyph glyph-name="figuredash" unicode="&#x2012;" horiz-adv-x="890" 
d="M819 735l-61 -231h-621l64 231h618z" />
    <glyph glyph-name="endash" unicode="&#x2013;" horiz-adv-x="1159" 
d="M145 510l60 217h874l-57 -217h-877z" />
    <glyph glyph-name="emdash" unicode="&#x2014;" horiz-adv-x="1947" 
d="M145 510l60 217h1663l-60 -217h-1663z" />
    <glyph glyph-name="quoteleft" unicode="&#x2018;" horiz-adv-x="561" 
d="M676 1505l-27 -102q-78 -9 -149 -70q-67 -61 -88 -143q20 14 61 14q59 0 95 -35.5t36 -93.5q0 -69 -51 -117q-50 -47 -121 -47q-73 0 -117.5 48.5t-44.5 125.5q0 172 117 289q116 119 289 131z" />
    <glyph glyph-name="quoteright" unicode="&#x2019;" horiz-adv-x="561" 
d="M266 911l27 103q83 9 149 69q67 58 88 144q-24 -17 -61 -17q-59 0 -95 36t-36 95q0 67 51 115q50 47 121 47q73 0 117.5 -47.5t44.5 -124.5q0 -171 -117 -291q-117 -117 -289 -129z" />
    <glyph glyph-name="quotesinglbase" unicode="&#x201a;" horiz-adv-x="573" 
d="M-31 -305l25 100q86 12 151 72q67 58 88 143q-26 -16 -63 -16q-58 0 -93.5 36t-35.5 93q0 72 51 117q47 47 119 47q74 0 119 -48t45 -124q0 -171 -117 -291q-114 -117 -289 -129z" />
    <glyph glyph-name="quotedblleft" unicode="&#x201c;" horiz-adv-x="985" 
d="M676 1503l-27 -100q-83 -12 -149 -72q-67 -58 -88 -143q22 16 61 16q58 0 94.5 -36t36.5 -93q0 -69 -51 -117q-50 -47 -121 -47q-73 0 -117.5 48t-44.5 124q0 171 117 291q114 117 289 129zM1102 1503l-27 -100q-84 -13 -149 -72q-67 -58 -88 -143q22 16 63 16
q57 0 93 -36t36 -93q0 -71 -49 -117q-53 -47 -121 -47q-74 0 -119 48t-45 124q0 171 117 291q114 117 289 129z" />
    <glyph glyph-name="quotedblright" unicode="&#x201d;" horiz-adv-x="987" 
d="M266 911l27 103q83 9 149 69q67 58 88 144q-24 -17 -61 -17q-59 0 -95 36t-36 95q0 67 51 115q50 47 121 47q73 0 117.5 -47.5t44.5 -124.5q0 -171 -117 -291q-117 -117 -289 -129zM692 911l27 103q82 9 151 69q65 59 86 144q-24 -17 -61 -17q-58 0 -93.5 36t-35.5 95
q0 69 49 115q50 47 121 47q73 0 117.5 -47.5t44.5 -124.5q0 -170 -115 -291q-120 -117 -291 -129z" />
    <glyph glyph-name="quotedblbase" unicode="&#x201e;" horiz-adv-x="1001" 
d="M-31 -303l25 100q84 12 151 70q67 61 88 143q-22 -14 -63 -14q-58 0 -93.5 36t-35.5 93q0 72 51 117q47 47 119 47q74 0 119 -48t45 -124q0 -171 -117 -291t-289 -129zM393 -303l27 100q81 12 151 70q69 66 86 143q-20 -14 -61 -14q-58 0 -93.5 36t-35.5 93q0 71 49 117
q50 47 121 47q74 0 118 -48t44 -124q0 -170 -115 -291q-120 -120 -291 -129z" />
    <glyph glyph-name="dagger" unicode="&#x2020;" horiz-adv-x="1198" 
d="M799 807l-215 -807h-234l215 807h-366l57 211h367l104 393h231l-104 -393h369l-56 -211h-368z" />
    <glyph glyph-name="daggerdbl" unicode="&#x2021;" horiz-adv-x="1198" 
d="M1014 211l-58 -211h-368l-107 -393h-231l104 393h-366l57 211h367l157 596h-366l57 211h367l104 393h234l-105 -393h369l-58 -211h-368l-158 -596h369z" />
    <glyph glyph-name="bullet" unicode="&#x2022;" horiz-adv-x="948" 
d="M524 362q-136 0 -235 99q-96 96 -96 235q0 138 98 236q93 100 233 100q137 0 234 -100q96 -101 96 -236q0 -139 -96 -235q-94 -99 -234 -99z" />
    <glyph glyph-name="ellipsis" unicode="&#x2026;" horiz-adv-x="1720" 
d="M45 156q0 71 49 120q53 50 117 50q66 0 119 -50q49 -49 49 -120q0 -69 -49 -115q-49 -49 -119 -49q-68 0 -117 49q-49 46 -49 115zM625 156q0 71 49 120q53 50 117 50q65 0 118 -50q47 -47 47 -120q0 -71 -47 -115q-49 -49 -118 -49q-68 0 -117 49q-49 46 -49 115z
M1202 156q0 71 49 120q53 50 119 50t119 -50q47 -47 47 -120q0 -71 -47 -115q-49 -49 -119 -49t-119 49q-49 46 -49 115z" />
    <glyph glyph-name="uni202F" unicode="&#x202f;" horiz-adv-x="430" 
 />
    <glyph glyph-name="perthousand" unicode="&#x2030;" horiz-adv-x="2539" 
d="M559 834q-130 0 -217 84q-86 83 -86 217q0 155 106 264q108 108 263 108q130 0 217 -84q86 -83 86 -215q0 -156 -107 -266q-108 -108 -262 -108zM1726 1493l-1292 -1493h-244l1295 1493h241zM571 1020q68 0 117 55t49 123q0 56 -33.5 89.5t-89.5 33.5q-67 0 -116 -55
t-49 -123q0 -56 33.5 -89.5t88.5 -33.5zM1294 -10q-130 0 -217 84q-84 84 -84 215q0 157 107 264q108 111 262 111q130 0 217 -84q86 -86 86 -218q0 -152 -109 -264q-108 -108 -262 -108zM1309 176q65 0 114 55q52 58 52 123q0 55 -34.5 89t-90.5 34q-68 0 -117 -55
t-49 -123q0 -55 34.5 -89t90.5 -34zM2056 -10q-130 0 -217 84q-86 83 -86 215q0 155 109 264q108 111 260 111q132 0 219 -84q86 -89 86 -218q0 -152 -109 -264q-108 -108 -262 -108zM2068 176q68 0 117 55t49 123q0 56 -34 89.5t-89 33.5q-67 0 -116 -55t-49 -123
q0 -55 34 -89t88 -34z" />
    <glyph glyph-name="guilsinglleft" unicode="&#x2039;" horiz-adv-x="741" 
d="M635 995l104 -139l-387 -301l213 -283l-153 -118l-316 419z" />
    <glyph glyph-name="guilsinglright" unicode="&#x203a;" horiz-adv-x="739" 
d="M152 154l-107 139l387 301l-213 283l152 118l317 -422z" />
    <glyph glyph-name="uni203D" unicode="&#x203d;" horiz-adv-x="1122" 
d="M451 1001l-220 27q6 207 160 346q154 142 379 142q114 0 209.5 -43.5t153.5 -122.5q59 -83 59 -187q0 -135 -92 -260q-40 -55 -99 -117q-53 -56 -112 -108q-103 -92 -121 -109q-92 -88 -111 -108h-204l122 635h220q-60 -272 -68 -310q227 181 227 342q0 79 -53 132
q-57 51 -153 51q-75 0 -135 -28.5t-95 -76.5q-67 -91 -67 -205zM428 -14q-58 0 -95.5 37t-37.5 96q0 72 47 119q46 49 117 49q59 0 97 -38.5t38 -96.5q0 -68 -49 -117t-117 -49z" />
    <glyph glyph-name="uni2042" unicode="&#x2042;" horiz-adv-x="1775" 
d="M1079 1055l90 -244l-137 -53l-96 246l-205 -164l-92 114l201 164l-217 144l82 122l215 -141l69 258l150 -41l-70 -256l260 15l10 -150zM532 260l91 -242l-140 -55l-94 246l-205 -164l-92 117l199 164l-217 143l82 123l217 -141l69 256l150 -41l-70 -256l258 14l11 -148z
M1395 260l90 -242l-137 -55l-97 246l-204 -164l-93 117l201 164l-217 143l82 123l217 -141l68 256l149 -41l-70 -256l261 14l10 -148z" />
    <glyph glyph-name="fraction" unicode="&#x2044;" horiz-adv-x="1189" 
d="M1434 1493l-1293 -1493h-243l1292 1493h244z" />
    <glyph glyph-name="uni2051" unicode="&#x2051;" horiz-adv-x="966" 
d="M766 1055l90 -244l-139 -53l-94 246l-205 -164l-92 114l198 164l-217 144l82 122l217 -141l70 258l149 -41l-69 -256l258 15l10 -150zM555 260l90 -242l-137 -55l-96 246l-205 -164l-92 117l200 164l-217 143l80 123l217 -141l70 256l149 -41l-69 -256l260 14l10 -148z
" />
    <glyph glyph-name="uni205F" unicode="&#x205f;" horiz-adv-x="538" 
 />
    <glyph glyph-name="lira" unicode="&#x20a4;" horiz-adv-x="1323" 
d="M616 965h449l-41 -156h-399q11 -76 8 -152h350l-41 -155h-330q-34 -96 -98 -173t-145 -118h370q103 0 171 56.5t85 158.5l224 -41q-34 -177 -158 -283q-126 -102 -307 -102h-756l57 219q97 27 181 107q82 76 126 176h-221l41 155h217v9q0 81 -8 143h-168l41 156h113
q-2 18 -2 39q0 107 39 202.5t108 163.5q71 68 167.5 107t201.5 39q109 0 200.5 -41.5t151.5 -122.5q62 -83 62 -191q0 -28 -7 -63l-231 -27q2 12 2 35q0 85 -51 139q-53 53 -137 53q-67 0 -119.5 -26.5t-83.5 -71t-46.5 -97t-15.5 -108.5v-30zM633 563l-4 -8q1 -1 3 3
q1 3 1 5z" />
    <glyph glyph-name="uni20A9" unicode="&#x20a9;" horiz-adv-x="2332" 
d="M694 0h-268l-37 680h-225l39 139h176l-37 674h244l28 -678h293l373 678h254l47 -678h299l363 678h260l-371 -674h184l-37 -139h-223l-375 -680h-268l-47 684h-291zM1358 815l-23 336l-188 -336h211zM621 684l16 -362l199 362h-215zM1589 684l27 -362l194 362h-221z" />
    <glyph glyph-name="dong" unicode="&#x20ab;" horiz-adv-x="1351" 
d="M1485 1364l-43 -166h-125l-266 -1012q-21 -79 -27 -151v-35h-223v39q1 12 3 30.5t3.5 31.5t3.5 22q-145 -139 -324 -139t-286 122q-109 124 -109 310q0 130 49 246q44 111 125 198q79 83 183 130.5t210 47.5q118 0 206.5 -48t135.5 -130l89 338h-297l43 166h297l51 188
h227l-51 -188h125zM944 582q0 113 -72 182q-76 70 -184 70q-98 2 -181.5 -54t-129.5 -149.5t-43 -198.5q0 -108 65 -176q67 -70 176 -70q89 0 177 54q83 51 139 143q53 85 53 199zM-84 -369l53 203h987l-53 -203h-987z" />
    <glyph glyph-name="Euro" unicode="&#x20ac;" horiz-adv-x="1812" 
d="M1831 1024l-232 -70q-8 69 -48.5 140.5t-110.5 124.5q-106 79 -273 79q-168 0 -305 -84q-138 -85 -217 -223h592l-78 -164h-581q-22 -81 -25 -151h545l-78 -166h-453q37 -149 154 -231q118 -80 274 -80q170 0 301 82q62 44 97 84q68 74 114 174l222 -88
q-59 -134 -181 -248q-68 -65 -147 -111q-185 -110 -432 -110q-250 0 -430 145q-182 144 -222 383h-211l44 166h157q2 60 21 151h-154l43 164h166q103 229 322 379q221 146 483 146q116 0 218.5 -30.5t176.5 -82.5q74 -55 125 -117q97 -118 123 -262z" />
    <glyph glyph-name="uni20AE" unicode="&#x20ae;" horiz-adv-x="1343" 
d="M1204 571l-428 -139l-114 -432h-236l94 348l-428 -137l45 174l428 137l43 160l-428 -139l47 174l428 139l113 422h-475l57 215h1184l-57 -215h-476l-90 -338l428 139l-47 -174l-428 -139l-41 -160l428 139z" />
    <glyph glyph-name="uni20B1" unicode="&#x20b1;" horiz-adv-x="1521" 
d="M1569 944h-115q-49 -182 -227 -287q-179 -102 -432 -102h-283l-147 -555h-236l252 944h-156l41 156h158l104 393h420q237 0 377 -98q139 -97 148 -295h137zM655 1096h574q-12 88 -86 135t-197 47h-239zM616 948l-47 -180h240q151 0 251.5 46t143.5 134h-588z" />
    <glyph glyph-name="uni20B4" unicode="&#x20b4;" horiz-adv-x="1431" 
d="M188 827l45 166h824q61 73 61 154q0 44 -20 76.5t-53.5 50t-70.5 25.5t-77 8q-81 0 -160 -43q-80 -42 -143 -105l-166 141q201 213 504 213q62 0 122 -12t115.5 -39t97 -65t66.5 -94t25 -123q0 -102 -55 -187h157l-45 -166h-1227zM1335 530h-831q-84 -74 -84 -178
q0 -91 80 -129q61 -30 155 -30q216 0 396 174l170 -142q-123 -123 -273 -184q-140 -57 -332 -57q-64 0 -125 10.5t-119 35.5t-101.5 62t-70 94t-26.5 127q0 123 76 217h-139l43 166h1226z" />
    <glyph glyph-name="uni20B8" unicode="&#x20b8;" horiz-adv-x="1357" 
d="M348 1493h1184l-57 -213h-1184zM903 915l-246 -915h-233l244 915h-473l57 213h1182l-58 -213h-473z" />
    <glyph glyph-name="uni20B9" unicode="&#x20b9;" horiz-adv-x="1234" 
d="M1362 1303h-354q81 -81 90 -187h215l-47 -176h-191q-38 -127 -147.5 -213t-274.5 -123l191 -604h-258l-158 567h-299l55 209h252q145 0 245.5 42.5t145.5 121.5h-598l47 176h580q-30 162 -297 162h-240l58 215h1036z" />
    <glyph glyph-name="uni20BA" unicode="&#x20ba;" horiz-adv-x="1368" 
d="M418 0h-223l139 522l-238 -102l49 184l238 101l45 163l-240 -100l50 182l237 101l119 442h233l-88 -330l484 205l-49 -182l-484 -205l-45 -166l485 207l-49 -184l-483 -205l-115 -428q298 0 447 125q145 124 178 319l221 -24q-126 -625 -911 -625z" />
    <glyph glyph-name="uni20BD" unicode="&#x20bd;" horiz-adv-x="1458" 
d="M1518 1081q0 -163 -88 -282q-82 -118 -240 -183q-152 -61 -350 -61h-283l-39 -149h410l-47 -173h-410l-61 -233h-236l62 233h-183l47 173h183l41 149h-185l56 211h184l194 727h420q241 3 382.5 -102.5t142.5 -309.5zM1274 1065q0 101 -74.5 157t-208.5 56h-241l-136 -510
h238q196 0 311 80q111 80 111 217z" />
    <glyph glyph-name="uni2113" unicode="&#x2113;" horiz-adv-x="882" 
d="M993 1192q0 -88 -34.5 -178.5t-94.5 -165.5q-64 -81 -135 -146q-135 -122 -305 -210l-35 -123q-10 -45 -10 -76q0 -64 36.5 -96.5t104.5 -32.5q92 0 180 39l-51 -191q-91 -30 -188 -30q-124 0 -209 63q-84 63 -84 186q0 46 14 101l23 88q-114 -35 -164 -45l49 178
q76 17 164 49l135 516q79 307 350 307q113 0 183 -61q71 -59 71 -172zM721 1249q-99 0 -137 -143l-103 -391q120 66 217 198t97 256q0 80 -74 80z" />
    <glyph glyph-name="uni2116" unicode="&#x2116;" horiz-adv-x="2478" 
d="M1485 1493h231l-397 -1493h-270l-441 1163l-311 -1163h-234l400 1493h270l441 -1163zM2171 1292q147 0 239 -86q95 -89 95 -235q0 -106 -56 -201t-151 -154q-102 -57 -207 -57q-144 0 -238 88t-94 234q-3 104 54 200.5t154 155t204 55.5zM2109 756q72 0 129 63
q54 63 54 137q0 66 -37.5 104t-100.5 38q-74 0 -129 -64q-53 -59 -53 -139q0 -64 37.5 -101.5t99.5 -37.5zM2286 195h-699l53 198h699z" />
    <glyph glyph-name="trademark" unicode="&#x2122;" horiz-adv-x="2041" 
d="M985 1329h-250l-186 -696h-184l186 696h-252l43 164h688zM1733 633l180 678h-10l-412 -678h-121l-61 667h-11l-178 -667h-174l230 860h266l53 -592l360 592h285l-229 -860h-178z" />
    <glyph glyph-name="estimated" unicode="&#x212e;" horiz-adv-x="1708" 
d="M942 -23q-169 0 -310.5 60t-236.5 168q-93 107 -143.5 249.5t-50.5 303.5q0 156 53.5 295t151.5 241q92 99 233 162q145 60 303 60q215 0 383 -101q173 -104 262 -272q92 -173 92 -381v-17h-1153v-483q73 -76 191 -123q107 -45 225 -45q192 0 332.5 82.5t216.5 235.5
l100 -56q-79 -175 -250 -276q-174 -103 -399 -103zM1358 862v377q-75 78 -191 121q-115 41 -229 41q-241 0 -412 -160v-379h832z" />
    <glyph glyph-name="uni2153" unicode="&#x2153;" horiz-adv-x="2062" 
d="M1745 1493l-1292 -1493h-244l1294 1493h242zM594 631h-195l166 635l-211 -107l-75 144l364 190h178zM1890 293q0 -97 -49 -170t-129 -108t-176 -33q-136 0 -219 77q-82 76 -82 207l186 23q-2 -61 30.5 -97t96.5 -36t105 35t41 96q0 44 -28 69t-79 25q-43 0 -63 -10
l-56 135l271 190h-387l43 166h633l-46 -164l-272 -190q89 -21 134.5 -78t45.5 -137z" />
    <glyph glyph-name="uni2154" unicode="&#x2154;" horiz-adv-x="2062" 
d="M940 1264q0 -126 -82 -205q-69 -69 -205 -123l-96 -37q-95 -36 -141 -98h405l-43 -170h-649l14 55q19 82 90 184q78 112 244 177l123 49q81 30 115.5 64t34.5 91q0 42 -32.5 69.5t-88.5 27.5q-75 0 -119 -58q-33 -46 -43 -98l-180 27q18 111 106 202q44 44 111 70.5
t143 26.5q133 0 213 -74t80 -180zM1876 1493l-1292 -1493h-244l1294 1493h242zM1919 293q0 -97 -49 -170t-129 -108t-176 -33q-136 0 -219 77q-82 76 -82 207l186 23q-2 -61 30.5 -97t96.5 -36t104.5 35t40.5 96q0 44 -27.5 69t-78.5 25q-44 0 -64 -10l-55 135l270 190h-387
l43 166h633l-45 -164l-270 -190q89 -21 133.5 -78t44.5 -137z" />
    <glyph glyph-name="oneeighth" unicode="&#x215b;" horiz-adv-x="1990" 
d="M1757 1493l-1292 -1493h-244l1295 1493h241zM1702 424q127 -65 127 -178q0 -117 -103 -191q-101 -73 -256 -73q-85 -2 -161.5 30t-123 91.5t-44.5 129.5q0 173 217 240q-109 66 -109 162q0 109 97 178q94 70 239 70q127 0 219 -64q90 -63 90 -174q0 -151 -192 -221z
M1575 721q-50 0 -98 -31q-45 -29 -45 -76t43 -71q47 -29 94 -29q56 0 100 33q41 28 41 76t-41 73q-42 25 -94 25zM1489 369q-57 0 -111 -31q-51 -29 -51 -84q0 -56 47 -82q48 -29 107 -29q58 0 112 31q52 30 52 86q0 52 -48 80q-53 29 -108 29zM598 631h-195l166 635
l-213 -107l-75 144l364 190h180z" />
    <glyph glyph-name="threeeighths" unicode="&#x215c;" horiz-adv-x="2129" 
d="M846 922q0 -95 -48.5 -168t-129.5 -107q-76 -33 -176 -33q-138 0 -220 76q-85 79 -82 205l187 25q-3 -60 30 -97t97 -37q63 0 104 36t41 96q0 44 -28.5 70t-77.5 26q-31 0 -64 -10l-57 133l272 190h-387l43 168h631l-43 -164l-272 -192q89 -21 134.5 -78.5t45.5 -138.5z
M1896 1493l-1292 -1493h-244l1295 1493h241zM1841 424q125 -64 125 -178q0 -119 -100 -191q-101 -73 -256 -73q-85 -2 -162 30t-123.5 91.5t-44.5 129.5q0 173 217 240q-111 67 -111 162q0 107 99 178q94 70 239 70q128 0 220 -64q90 -63 90 -174q0 -151 -193 -221z
M1714 721q-50 0 -98 -31q-45 -29 -45 -76t43 -71q47 -29 94 -29q56 0 98 33q43 30 43 76t-41 73q-42 25 -94 25zM1628 369q-56 0 -110 -31t-54 -84q0 -55 49 -82q48 -29 107 -29q60 0 111 31q53 30 53 86q0 53 -49 80q-53 29 -107 29z" />
    <glyph glyph-name="fiveeighths" unicode="&#x215d;" horiz-adv-x="2097" 
d="M909 1327h-364l-82 -188q70 55 162 55q97 0 163 -66q62 -65 62 -159q0 -159 -109 -256q-111 -99 -268 -99q-133 0 -217 72q-88 70 -76 201l182 33q-5 -65 25.5 -100.5t91.5 -35.5q73 0 123 47q51 48 51 119q0 45 -33 73t-81 28q-34 0 -72.5 -19t-65.5 -47l-155 62
l194 448h514zM1864 1493l-1293 -1493h-243l1294 1493h242zM2001 645q0 -151 -193 -221q127 -65 127 -178q0 -118 -102 -191q-101 -73 -256 -73q-85 -2 -162 30t-123.5 91.5t-44.5 129.5q0 173 217 240q-110 67 -110 162q0 108 98 178q94 70 240 70q127 0 219 -64
q90 -63 90 -174zM1817 623q0 46 -41 73q-42 25 -95 25q-50 0 -98 -31q-45 -29 -45 -76t43 -71q47 -29 94 -29q57 0 99 33q43 30 43 76zM1751 260q0 53 -49 80q-53 29 -107 29q-56 0 -110 -31q-51 -29 -51 -84q0 -56 47 -82q48 -29 106 -29q59 0 113 31q51 31 51 86z" />
    <glyph glyph-name="seveneighths" unicode="&#x215e;" horiz-adv-x="1916" 
d="M1686 1493l-1293 -1493h-243l1294 1493h242zM428 631h-231l524 696h-424l43 166h651l-43 -158zM1628 424q127 -64 127 -178q0 -119 -100 -191q-101 -73 -256 -73q-132 -3 -232.5 70.5t-99.5 180.5q0 172 219 240q-110 67 -110 162q0 106 96 178q98 70 241 70
q125 0 220 -64q90 -66 90 -174q0 -151 -195 -221zM1503 721q-50 0 -98 -31q-45 -29 -45 -76q0 -49 43 -71q47 -29 94 -29q56 0 98 33q43 30 43 76t-41 73q-45 25 -94 25zM1417 369q-56 0 -110 -31t-54 -84q0 -55 50 -82q48 -29 106 -29q57 0 111 31q53 30 53 86q0 53 -49 80
q-53 29 -107 29z" />
    <glyph glyph-name="arrowleft" unicode="&#x2190;" horiz-adv-x="1265" 
d="M98 713l551 596l135 -125q-166 -182 -354 -377h830v-223h-830q181 -192 354 -377l-135 -125l-551 596v35z" />
    <glyph glyph-name="arrowup" unicode="&#x2191;" horiz-adv-x="1265" 
d="M713 1276l596 -551l-125 -135q-182 166 -377 354v-831h-223v831q-195 -189 -377 -354l-125 135l596 551h35z" />
    <glyph glyph-name="arrowright" unicode="&#x2192;" horiz-adv-x="1265" 
d="M1278 678l-553 -596l-135 125q173 185 354 377h-829v223h829q-124 129 -354 377l135 125l553 -596v-35z" />
    <glyph glyph-name="arrowdown" unicode="&#x2193;" horiz-adv-x="1265" 
d="M664 113l-598 553l127 135q245 -230 376 -355v830h224v-830q280 266 374 355l127 -135l-598 -553h-32z" />
    <glyph glyph-name="uni2196" unicode="&#x2196;" horiz-adv-x="1265" 
d="M283 1110l813 31l6 -185q-334 -12 -518 -14l587 -588l-157 -157l-586 585q-10 -313 -16 -516l-185 6l31 813z" />
    </font>
</defs>
</svg>
