<svg width="128" height="128" viewBox="0 0 128 128" fill="none" xmlns="http://www.w3.org/2000/svg">
<path d="M28.8498 19.7831C22.432 43.5235 5.72448 56.5013 2.63114 67.9431C-0.462191 79.3848 -0.380415 105.188 52.2489 119.417C104.878 133.646 121.34 103.413 124.74 90.8266C140.672 31.904 40.2169 -22.2649 28.8498 19.7831Z" fill="#F7F7F8"/>
<path d="M108.885 43.5558C105.945 43.5558 103.552 41.1629 103.552 38.2225C103.552 35.282 105.945 32.8892 108.885 32.8892C111.826 32.8892 114.218 35.282 114.218 38.2225C114.218 41.1629 111.826 43.5558 108.885 43.5558ZM108.885 36.4447C107.904 36.4447 107.107 37.2447 107.107 38.2225C107.107 39.2003 107.904 40.0003 108.885 40.0003C109.866 40.0003 110.663 39.2003 110.663 38.2225C110.663 37.2447 109.866 36.4447 108.885 36.4447Z" fill="#D2D6DC"/>
<path d="M9.2168 17.8154L11.731 15.3013L16.7593 20.3296L14.2451 22.8437L9.2168 17.8154Z" fill="#D2D6DC"/>
<path d="M8.58838 34.7876L13.6167 29.7593L16.1309 32.2734L11.1025 37.3018L8.58838 34.7876Z" fill="#D2D6DC"/>
<path d="M23.0425 20.3315L28.0708 15.3032L30.585 17.8174L25.5566 22.8457L23.0425 20.3315Z" fill="#D2D6DC"/>
<path d="M73.7778 54.2222V93.3333H80.0001H94.2223H100.444C102.407 93.3333 104 91.7404 104 89.7777V54.2222H73.7778Z" fill="#F7F7F8"/>
<path d="M59.5552 34.667H21.333V93.3337H63.1108V38.2225C63.1108 36.2599 61.5179 34.667 59.5552 34.667Z" fill="#2FDF84"/>
<path d="M87.1109 100.444C90.5473 100.444 93.3331 97.6587 93.3331 94.2222C93.3331 90.7858 90.5473 88 87.1109 88C83.6745 88 80.8887 90.7858 80.8887 94.2222C80.8887 97.6587 83.6745 100.444 87.1109 100.444Z" fill="#F7F7F8"/>
<path d="M51.5552 100.444C54.9917 100.444 57.7775 97.6587 57.7775 94.2222C57.7775 90.7858 54.9917 88 51.5552 88C48.1188 88 45.333 90.7858 45.333 94.2222C45.333 97.6587 48.1188 100.444 51.5552 100.444Z" fill="#F7F7F8"/>
<path d="M30.2222 100.444C33.6587 100.444 36.4444 97.6587 36.4444 94.2222C36.4444 90.7858 33.6587 88 30.2222 88C26.7858 88 24 90.7858 24 94.2222C24 97.6587 26.7858 100.444 30.2222 100.444Z" fill="#F7F7F8"/>
<path d="M86.2227 64.8892H104V77.3336H86.2227V64.8892Z" fill="#2FDF84"/>
<path d="M77.3334 34.6665H73.7778V54.2221H96.8889C96.8889 43.4203 88.1352 34.6665 77.3334 34.6665Z" fill="#2FDF84"/>
<path d="M73.7778 54.2222V93.3333H80.0001H81.7778V54.2222H73.7778Z" fill="#D2D6DC"/>
<path d="M21.333 34.667H29.333V93.3337H21.333V34.667Z" fill="#00B871"/>
<path d="M88.8887 94.2222C88.8887 92.3164 89.7633 90.6347 91.1109 89.4933C90.0264 88.576 88.6433 88 87.1109 88C83.6727 88 80.8887 90.7876 80.8887 94.2222C80.8887 97.6569 83.6727 100.444 87.1109 100.444C88.6433 100.444 90.0264 99.8684 91.1109 98.9511C89.7633 97.8098 88.8887 96.128 88.8887 94.2222Z" fill="#D2D6DC"/>
<path d="M53.333 94.2222C53.333 92.3164 54.2077 90.6347 55.5552 89.4933C54.4708 88.576 53.0877 88 51.5552 88C48.1206 88 45.333 90.7876 45.333 94.2222C45.333 97.6569 48.1206 100.444 51.5552 100.444C53.0877 100.444 54.4708 99.8684 55.5552 98.9511C54.2077 97.8098 53.333 96.128 53.333 94.2222Z" fill="#D2D6DC"/>
<path d="M32 94.2222C32 92.3164 32.8747 90.6347 34.2222 89.4933C33.1378 88.576 31.7547 88 30.2222 88C26.7876 88 24 90.7876 24 94.2222C24 97.6569 26.7876 100.444 30.2222 100.444C31.7547 100.444 33.1378 99.8684 34.2222 98.9511C32.8747 97.8098 32 96.128 32 94.2222Z" fill="#D2D6DC"/>
<path d="M86.2227 64.8892H94.2227V77.3336H86.2227V64.8892Z" fill="#00B871"/>
<path d="M77.3334 34.6665H73.7778V54.2221H81.7778V35.1927C80.3485 34.8621 78.8658 34.6665 77.3334 34.6665Z" fill="#00B871"/>
<path d="M46.2222 45.333H51.5555V75.5552H46.2222V45.333Z" fill="#161E2E"/>
<path d="M28.4443 45.333H33.7777V75.5552H28.4443V45.333Z" fill="#161E2E"/>
<path d="M87.1111 103.111C82.2115 103.111 78.2222 99.1255 78.2222 94.2224C78.2222 89.3193 82.2115 85.3335 87.1111 85.3335C92.0106 85.3335 95.9999 89.3193 95.9999 94.2224C95.9999 99.1255 92.0106 103.111 87.1111 103.111ZM87.1111 90.6668C85.1519 90.6668 83.5555 92.2597 83.5555 94.2224C83.5555 96.1851 85.1519 97.7779 87.1111 97.7779C89.0702 97.7779 90.6666 96.1851 90.6666 94.2224C90.6666 92.2597 89.0702 90.6668 87.1111 90.6668Z" fill="#161E2E"/>
<path d="M51.5554 103.111C46.6558 103.111 42.6665 99.1255 42.6665 94.2224C42.6665 89.3193 46.6558 85.3335 51.5554 85.3335C56.4549 85.3335 60.4443 89.3193 60.4443 94.2224C60.4443 99.1255 56.4549 103.111 51.5554 103.111ZM51.5554 90.6668C49.5963 90.6668 47.9998 92.2597 47.9998 94.2224C47.9998 96.1851 49.5963 97.7779 51.5554 97.7779C53.5145 97.7779 55.1109 96.1851 55.1109 94.2224C55.1109 92.2597 53.5145 90.6668 51.5554 90.6668Z" fill="#161E2E"/>
<path d="M30.2219 103.111C25.3223 103.111 21.333 99.1255 21.333 94.2224C21.333 89.3193 25.3223 85.3335 30.2219 85.3335C35.1215 85.3335 39.1108 89.3193 39.1108 94.2224C39.1108 99.1255 35.1215 103.111 30.2219 103.111ZM30.2219 90.6668C28.2628 90.6668 26.6663 92.2597 26.6663 94.2224C26.6663 96.1851 28.2628 97.7779 30.2219 97.7779C32.181 97.7779 33.7775 96.1851 33.7775 94.2224C33.7775 92.2597 32.181 90.6668 30.2219 90.6668Z" fill="#161E2E"/>
<path d="M104 80.0004H86.2223C84.7503 80.0004 83.5557 78.8058 83.5557 77.3338V64.8893C83.5557 63.4173 84.7503 62.2227 86.2223 62.2227H104V67.556H88.889V74.6671H104V80.0004Z" fill="#161E2E"/>
<path d="M37.3335 90.6665H44.4446V95.9998H37.3335V90.6665Z" fill="#161E2E"/>
<path d="M63.1113 96.0007H56.0002V90.6674H60.4446V38.223C60.4446 37.7323 60.0464 37.3341 59.5557 37.3341H21.3335V32.0007H59.5557C62.9868 32.0007 65.7779 34.7918 65.7779 38.223V93.3341C65.7779 94.8061 64.5833 96.0007 63.1113 96.0007Z" fill="#161E2E"/>
<path d="M100.444 96.0001H94.222V90.6668H100.444C100.935 90.6668 101.333 90.2686 101.333 89.7779V56.889H76.4442V90.6668H79.9997V96.0001H73.7775C72.3055 96.0001 71.1108 94.8054 71.1108 93.3334V54.2223C71.1108 52.7503 72.3055 51.5557 73.7775 51.5557H104C105.472 51.5557 106.666 52.7503 106.666 54.2223V89.7779C106.666 93.209 103.875 96.0001 100.444 96.0001Z" fill="#161E2E"/>
<path d="M99.5553 54.2222H94.222C94.222 44.9102 86.6451 37.3333 77.3331 37.3333H76.4442V54.2222H71.1108V34.6667C71.1108 33.1947 72.3055 32 73.7775 32H77.3331C89.5855 32 99.5553 41.9698 99.5553 54.2222Z" fill="#161E2E"/>
<path d="M62.2227 90.6665H72.8893V95.9998H62.2227V90.6665Z" fill="#161E2E"/>
</svg>
