<svg width="128" height="128" viewBox="0 0 128 128" fill="none" xmlns="http://www.w3.org/2000/svg">
<path d="M29.7849 14.816C54.3786 14.816 71.2675 2.07642 83.1182 2.07642C94.9689 2.07642 119.858 8.88886 119.858 63.4062C119.858 117.924 86.3751 125.924 73.3404 125.924C12.3022 125.927 -13.7707 14.816 29.7849 14.816Z" fill="#F7F7F8"/>
<path d="M37.2283 18.3459L42.2566 13.3176L44.7707 15.8318L39.7424 20.8601L37.2283 18.3459Z" fill="#D2D6DC"/>
<path d="M22.7715 32.7969L27.7998 27.7686L30.314 30.2827L25.2856 35.311L22.7715 32.7969Z" fill="#D2D6DC"/>
<path d="M22.7747 15.1965L25.2888 12.6824L30.3171 17.7107L27.803 20.2249L22.7747 15.1965Z" fill="#D2D6DC"/>
<path d="M107.26 40.4301C104.32 40.4301 101.927 38.0372 101.927 35.0968C101.927 32.1563 104.32 29.7634 107.26 29.7634C110.201 29.7634 112.594 32.1563 112.594 35.0968C112.594 38.0372 110.201 40.4301 107.26 40.4301ZM107.26 33.319C106.283 33.319 105.483 34.1154 105.483 35.0968C105.483 36.0781 106.283 36.8745 107.26 36.8745C108.238 36.8745 109.038 36.0781 109.038 35.0968C109.038 34.1154 108.238 33.319 107.26 33.319Z" fill="#D2D6DC"/>
<path d="M79.111 104H48.8888C46.9261 104 45.3333 102.407 45.3333 100.444V73.7777C45.3333 71.8151 46.9261 70.2222 48.8888 70.2222H79.111C81.0737 70.2222 82.6666 71.8151 82.6666 73.7777V100.444C82.6666 102.407 81.0737 104 79.111 104Z" fill="#F7F7F8"/>
<path d="M57.7778 70.2222H70.2223V80.8888H57.7778V70.2222Z" fill="#F7F7F8"/>
<path d="M95.1111 54.2222C95.1111 37.5324 81.1805 24 64 24C46.8196 24 32.8889 37.5324 32.8889 54.2222H95.1111Z" fill="#2FDF84"/>
<path d="M53.3332 100.444V73.7777C53.3332 71.8151 54.9261 70.2222 56.8888 70.2222H48.8888C46.9261 70.2222 45.3333 71.8151 45.3333 73.7777V100.444C45.3333 102.407 46.9261 104 48.8888 104H56.8888C54.9261 104 53.3332 102.407 53.3332 100.444Z" fill="#D2D6DC"/>
<path d="M57.7778 70.2222H65.7778V80.8888H57.7778V70.2222Z" fill="#D2D6DC"/>
<path d="M68 24.2773C66.688 24.1138 65.3582 24 64 24C46.816 24 32.8889 37.5324 32.8889 54.2222H40.8889C40.8889 38.8516 52.7111 26.1867 68 24.2773Z" fill="#00B871"/>
<path d="M79.1109 106.667H48.8887C45.4576 106.667 42.6665 103.875 42.6665 100.444V73.7776C42.6665 70.3465 45.4576 67.5554 48.8887 67.5554H79.1109C82.542 67.5554 85.3332 70.3465 85.3332 73.7776V100.444C85.3332 103.875 82.542 106.667 79.1109 106.667ZM48.8887 72.8888C48.3981 72.8888 47.9998 73.287 47.9998 73.7776V100.444C47.9998 100.935 48.3981 101.333 48.8887 101.333H79.1109C79.6016 101.333 79.9998 100.935 79.9998 100.444V73.7776C79.9998 73.287 79.6016 72.8888 79.1109 72.8888H48.8887Z" fill="#161E2E"/>
<path d="M70.2222 83.5554H57.7778C56.3058 83.5554 55.1111 82.3608 55.1111 80.8888V70.2221C55.1111 68.7501 56.3058 67.5554 57.7778 67.5554H70.2222C71.6942 67.5554 72.8889 68.7501 72.8889 70.2221V80.8888C72.8889 82.3608 71.6942 83.5554 70.2222 83.5554ZM60.4444 78.2221H67.5555V72.8888H60.4444V78.2221Z" fill="#161E2E"/>
<path d="M68.4443 94.2222H75.5554V99.5555H68.4443V94.2222Z" fill="#161E2E"/>
<path d="M81.2805 71.49L91.937 53.7015L96.516 56.4447L85.8596 74.2332L81.2805 71.49Z" fill="#161E2E"/>
<path d="M31.4929 56.4976L36.0552 53.7421L46.7206 71.4008L42.1583 74.1563L31.4929 56.4976Z" fill="#161E2E"/>
<path d="M49.136 56.2905L53.904 53.9065L61.0115 68.1215L56.2435 70.5055L49.136 56.2905Z" fill="#161E2E"/>
<path d="M66.9102 68.1572L74.0177 53.9422L78.7857 56.3262L71.6782 70.5412L66.9102 68.1572Z" fill="#161E2E"/>
<path d="M95.1111 56.8888H32.8888C31.4168 56.8888 30.2222 55.6941 30.2222 54.2221C30.2222 36.0853 45.3759 21.3333 63.9999 21.3333C82.6239 21.3333 97.7777 36.0853 97.7777 54.2221C97.7777 55.6941 96.5831 56.8888 95.1111 56.8888ZM35.6871 51.5555H92.3128C90.9226 37.607 78.7591 26.6666 63.9999 26.6666C49.2408 26.6666 37.0773 37.607 35.6871 51.5555Z" fill="#161E2E"/>
</svg>
