<svg width="24" height="25" viewBox="0 0 24 25" fill="none" xmlns="http://www.w3.org/2000/svg">
<path d="M17.34 5.75932C17.1027 5.75932 16.8707 5.8297 16.6733 5.96155C16.476 6.09341 16.3222 6.28082 16.2313 6.5001C16.1405 6.71937 16.1168 6.96065 16.1631 7.19342C16.2094 7.4262 16.3236 7.64002 16.4915 7.80784C16.6593 7.97567 16.8731 8.08996 17.1059 8.13626C17.3387 8.18256 17.5799 8.1588 17.7992 8.06797C18.0185 7.97715 18.2059 7.82334 18.3378 7.626C18.4696 7.42866 18.54 7.19665 18.54 6.95932C18.54 6.64106 18.4136 6.33583 18.1885 6.11079C17.9635 5.88574 17.6583 5.75932 17.34 5.75932ZM21.94 8.17932C21.9206 7.34961 21.7652 6.52872 21.48 5.74932C21.2257 5.08245 20.83 4.4786 20.32 3.97932C19.8248 3.46674 19.2196 3.07349 18.55 2.82932C17.7727 2.53548 16.9508 2.37653 16.12 2.35932C15.06 2.29932 14.72 2.29932 12 2.29932C9.28 2.29932 8.94 2.29932 7.88 2.35932C7.04915 2.37653 6.22734 2.53548 5.45 2.82932C4.78168 3.07596 4.17693 3.46888 3.68 3.97932C3.16743 4.47449 2.77418 5.07976 2.53 5.74932C2.23616 6.52666 2.07721 7.34847 2.06 8.17932C2 9.23932 2 9.57932 2 12.2993C2 15.0193 2 15.3593 2.06 16.4193C2.07721 17.2502 2.23616 18.072 2.53 18.8493C2.77418 19.5189 3.16743 20.1241 3.68 20.6193C4.17693 21.1298 4.78168 21.5227 5.45 21.7693C6.22734 22.0632 7.04915 22.2221 7.88 22.2393C8.94 22.2993 9.28 22.2993 12 22.2993C14.72 22.2993 15.06 22.2993 16.12 22.2393C16.9508 22.2221 17.7727 22.0632 18.55 21.7693C19.2196 21.5251 19.8248 21.1319 20.32 20.6193C20.8322 20.1219 21.2283 19.5175 21.48 18.8493C21.7652 18.0699 21.9206 17.249 21.94 16.4193C21.94 15.3593 22 15.0193 22 12.2993C22 9.57932 22 9.23932 21.94 8.17932ZM20.14 16.2993C20.1327 16.9341 20.0178 17.563 19.8 18.1593C19.6403 18.5945 19.3839 18.9877 19.05 19.3093C18.7256 19.6398 18.3332 19.8958 17.9 20.0593C17.3037 20.2771 16.6748 20.392 16.04 20.3993C15.04 20.4493 14.67 20.4593 12.04 20.4593C9.41 20.4593 9.04 20.4593 8.04 20.3993C7.38089 20.4117 6.72459 20.3102 6.1 20.0993C5.68578 19.9274 5.31136 19.6721 5 19.3493C4.66809 19.0281 4.41484 18.6345 4.26 18.1993C4.01586 17.5945 3.88044 16.9513 3.86 16.2993C3.86 15.2993 3.8 14.9293 3.8 12.2993C3.8 9.66932 3.8 9.29932 3.86 8.29932C3.86448 7.65037 3.98295 7.00726 4.21 6.39932C4.38605 5.97723 4.65627 5.60097 5 5.29932C5.30381 4.95548 5.67929 4.68241 6.1 4.49932C6.70955 4.27936 7.352 4.1644 8 4.15932C9 4.15932 9.37 4.09932 12 4.09932C14.63 4.09932 15 4.09932 16 4.15932C16.6348 4.1666 17.2637 4.28156 17.86 4.49932C18.3144 4.66797 18.7223 4.94216 19.05 5.29932C19.3777 5.60649 19.6338 5.98205 19.8 6.39932C20.0223 7.00825 20.1373 7.6511 20.14 8.29932C20.19 9.29932 20.2 9.66932 20.2 12.2993C20.2 14.9293 20.19 15.2993 20.14 16.2993ZM12 7.16932C10.9858 7.17129 9.99496 7.47384 9.15265 8.03873C8.31035 8.60363 7.65438 9.40551 7.26763 10.3431C6.88089 11.2806 6.78072 12.3118 6.97979 13.3062C7.17886 14.3007 7.66824 15.2139 8.38608 15.9303C9.10392 16.6467 10.018 17.1343 11.0129 17.3315C12.0077 17.5286 13.0387 17.4264 13.9755 17.0379C14.9123 16.6493 15.7129 15.9918 16.2761 15.1483C16.8394 14.3049 17.14 13.3135 17.14 12.2993C17.1413 11.6244 17.0092 10.9559 16.7512 10.3323C16.4933 9.70862 16.1146 9.14213 15.6369 8.66537C15.1592 8.18861 14.5919 7.81099 13.9678 7.55425C13.3436 7.2975 12.6749 7.16668 12 7.16932ZM12 15.6293C11.3414 15.6293 10.6976 15.434 10.15 15.0681C9.60234 14.7022 9.17552 14.1821 8.92348 13.5737C8.67144 12.9652 8.6055 12.2956 8.73398 11.6497C8.86247 11.0037 9.17963 10.4104 9.64533 9.94465C10.111 9.47894 10.7044 9.16179 11.3503 9.0333C11.9963 8.90481 12.6659 8.97076 13.2743 9.2228C13.8828 9.47484 14.4029 9.90165 14.7688 10.4493C15.1347 10.9969 15.33 11.6407 15.33 12.2993C15.33 12.7366 15.2439 13.1696 15.0765 13.5737C14.9092 13.9777 14.6639 14.3448 14.3547 14.654C14.0454 14.9632 13.6784 15.2085 13.2743 15.3758C12.8703 15.5432 12.4373 15.6293 12 15.6293Z" fill="#161E2E"/>
</svg>
