<svg width="29" height="29" viewBox="0 0 29 29" fill="none" xmlns="http://www.w3.org/2000/svg">
<path d="M14.3949 2.39917C11.8497 2.39917 9.4088 3.41023 7.6091 5.20993C5.8094 7.00963 4.79834 9.45055 4.79834 11.9957C4.79834 18.4734 13.2553 25.7907 13.6152 26.1026C13.8324 26.2885 14.109 26.3906 14.3949 26.3906C14.6808 26.3906 14.9573 26.2885 15.1746 26.1026C15.5944 25.7907 23.9914 18.4734 23.9914 11.9957C23.9914 9.45055 22.9804 7.00963 21.1807 5.20993C19.381 3.41023 16.94 2.39917 14.3949 2.39917ZM14.3949 23.5715C11.8398 21.1724 7.19748 16.0023 7.19748 11.9957C7.19748 10.0868 7.95577 8.25615 9.30555 6.90638C10.6553 5.5566 12.486 4.79831 14.3949 4.79831C16.3038 4.79831 18.1344 5.5566 19.4842 6.90638C20.834 8.25615 21.5923 10.0868 21.5923 11.9957C21.5923 16.0023 16.95 21.1844 14.3949 23.5715ZM14.3949 7.19744C13.4459 7.19744 12.5182 7.47886 11.7291 8.0061C10.94 8.53334 10.325 9.28272 9.96186 10.1595C9.59869 11.0363 9.50367 12.001 9.68881 12.9318C9.87395 13.8626 10.3309 14.7176 11.002 15.3886C11.673 16.0597 12.528 16.5166 13.4588 16.7018C14.3896 16.8869 15.3543 16.7919 16.2311 16.4287C17.1079 16.0656 17.8573 15.4506 18.3845 14.6615C18.9117 13.8724 19.1932 12.9447 19.1932 11.9957C19.1932 10.7231 18.6876 9.50267 17.7878 8.60282C16.8879 7.70297 15.6675 7.19744 14.3949 7.19744ZM14.3949 14.3948C13.9204 14.3948 13.4565 14.2541 13.062 13.9905C12.6675 13.7269 12.36 13.3522 12.1784 12.9138C11.9968 12.4754 11.9493 11.9931 12.0418 11.5277C12.1344 11.0623 12.3629 10.6348 12.6984 10.2993C13.034 9.96374 13.4614 9.73525 13.9268 9.64268C14.3922 9.55011 14.8746 9.59762 15.313 9.7792C15.7514 9.96079 16.1261 10.2683 16.3897 10.6628C16.6533 11.0574 16.794 11.5212 16.794 11.9957C16.794 12.632 16.5413 13.2422 16.0913 13.6922C15.6414 14.1421 15.0312 14.3948 14.3949 14.3948Z" fill="#00B871"/>
</svg>
