<svg width="48" height="26" viewBox="0 0 48 26" fill="none" xmlns="http://www.w3.org/2000/svg">
<path d="M9.92695 14.828C10.0012 14.828 10.0507 14.828 10.125 14.8528H13.9125C13.9868 14.8528 14.0363 14.8528 14.1105 14.828C14.2343 14.8033 14.3829 14.7785 14.5066 14.729C15.1503 14.4567 15.4968 13.714 15.3731 13.0704C15.2493 12.5258 14.8284 12.0802 14.3086 11.9317C14.2343 11.9069 14.1848 11.9069 14.1105 11.8822C14.0363 11.8822 13.9868 11.8822 13.9125 11.8574H10.125C9.9517 11.8574 9.90219 11.8574 9.72891 11.9069C9.60513 11.9317 9.48136 12.006 9.35758 12.0802C8.83773 12.402 8.54067 13.0457 8.66444 13.6398C8.78822 14.2587 9.33283 14.729 9.92695 14.828Z" fill="#2FDF84"/>
<path d="M1.28712 2.94521C1.33663 2.96997 1.4109 2.96997 1.48516 2.96997H5.27268C5.34695 2.96997 5.39646 2.96997 5.47072 2.94521C5.5945 2.92046 5.74303 2.8957 5.8668 2.84619C6.51044 2.57389 6.85701 1.83124 6.73323 1.18761C6.60946 0.642995 6.18862 0.197405 5.66876 0.0488744C5.5945 0.0241194 5.54499 0.0241194 5.47072 -0.000635601C5.39646 -0.000635601 5.34695 -0.000635601 5.27268 -0.0253906H1.48516C1.31188 -0.000635601 1.26237 -0.000635599 1.08908 0.0488744C0.965308 0.0736295 0.841533 0.147895 0.717758 0.22216C0.173148 0.543975 -0.0991578 1.18761 0.0246173 1.78173C0.148392 2.4006 0.668248 2.87095 1.28712 2.94521Z" fill="#2FDF84"/>
<path d="M4.60455 11.9317C4.53028 11.9069 4.48077 11.9069 4.40651 11.8822C4.33224 11.8822 4.28273 11.8822 4.20847 11.8574H2.1538C1.98051 11.8574 1.931 11.8574 1.75772 11.9069C1.63394 11.9317 1.51017 12.006 1.38639 12.0802C0.866537 12.402 0.569476 13.0457 0.693252 13.6398C0.817027 14.2339 1.33688 14.729 1.95576 14.8033C2.03002 14.8033 2.07953 14.8033 2.1538 14.828H4.20847C4.28273 14.828 4.33224 14.828 4.40651 14.8033C4.53028 14.7785 4.67881 14.7538 4.80259 14.7042C5.44622 14.4319 5.79279 13.6893 5.66901 13.0457C5.54524 12.5258 5.1244 12.0802 4.60455 11.9317Z" fill="#2FDF84"/>
<path d="M12.0064 22.9234C11.9321 22.8986 11.8826 22.8986 11.8084 22.8739C11.7341 22.8739 11.6846 22.8739 11.6103 22.8491H9.55565C9.38237 22.8491 9.33286 22.8491 9.15957 22.8986C9.0358 22.9234 8.91202 22.9976 8.78825 23.0719C8.26839 23.3937 7.97133 24.0374 8.09511 24.6315C8.21888 25.2256 8.73874 25.7207 9.35761 25.795C9.43188 25.795 9.48139 25.795 9.55565 25.8197H11.6103C11.6846 25.8197 11.7341 25.8197 11.8084 25.795C11.9321 25.7702 12.0807 25.7455 12.2044 25.6959C12.8481 25.4236 13.1946 24.681 13.0709 24.0374C12.9471 23.5175 12.5263 23.0719 12.0064 22.9234Z" fill="#2FDF84"/>
<path d="M47.9998 7.00641V6.98165C47.9998 6.9569 47.9998 6.90739 47.9998 6.88263C47.975 6.65983 47.8513 6.43704 47.7027 6.26375C47.6285 6.16473 47.579 6.13998 47.5047 6.09047C47.4799 6.09047 47.4799 6.06571 47.4552 6.06571C47.4552 6.06571 47.4304 6.06571 47.4304 6.04096L37.2314 0.149263C37.1819 0.124508 37.1323 0.0997525 37.0828 0.0749975C36.9343 0.0254875 36.9095 0.0254875 36.7363 0.000732422C36.6868 0.000732422 36.6372 0.000732422 36.5877 0.000732422C36.563 0.000732422 36.563 0.000732422 36.5382 0.000732422H11.6099C11.4366 0.000732422 11.3871 0.000732422 11.2138 0.0502425C11.09 0.0749975 10.9663 0.149263 10.8425 0.223528C10.3226 0.545343 10.0256 1.18897 10.1494 1.78309C10.2731 2.37722 10.793 2.87232 11.4119 2.94658C11.4861 2.94658 11.5356 2.94658 11.6099 2.97134H18.4918C18.5661 2.97134 18.6651 2.99609 18.7394 2.99609C18.7889 2.99609 18.8384 3.02085 18.8879 3.02085C19.4077 3.16938 19.8286 3.61497 19.9523 4.15958C20.1009 4.80321 19.7296 5.54586 19.0859 5.81816C18.9621 5.86767 18.8384 5.91718 18.6898 5.91718C18.6156 5.91718 18.5661 5.91718 18.4918 5.94194H1.4851C1.31181 5.94194 1.2623 5.94194 1.08902 5.99145C0.965242 6.0162 0.841466 6.09047 0.717691 6.16473C0.197836 6.48655 -0.0992248 7.13018 0.0245504 7.7243C0.148326 8.31842 0.668181 8.81352 1.28706 8.88779C1.36132 8.88779 1.41083 8.88779 1.4851 8.91254H21.9823C22.0565 8.91254 22.1555 8.9373 22.2298 8.9373C22.2793 8.9373 22.3288 8.96205 22.3783 8.96205C22.8982 9.11058 23.319 9.55617 23.4428 10.1008C23.5913 10.7444 23.22 11.4871 22.5764 11.7594C22.4526 11.8089 22.3288 11.8584 22.1803 11.8584C22.106 11.8584 22.0565 11.8584 21.9823 11.8831H18.9126C18.7394 11.8831 18.6898 11.8831 18.5166 11.9327C18.3928 11.9574 18.269 12.0317 18.1452 12.1059C17.6254 12.4278 17.3283 13.0714 17.4521 13.6655C17.5759 14.2596 18.0957 14.7547 18.7146 14.829C18.7889 14.829 18.8384 14.829 18.9126 14.8537H26.4134C27.0818 14.8537 27.6017 14.3091 27.6017 13.6655V9.45715C27.6017 9.28387 27.7997 9.18485 27.9482 9.25911L33.1963 12.304C34.6073 13.1209 35.4738 14.631 35.4738 16.2648V18.9136C35.4738 20.5969 33.6419 21.6614 32.1813 20.8197L27.874 18.3195C27.7254 18.2452 27.6264 18.0967 27.5769 17.9234C27.4779 17.3788 26.9828 16.9827 26.4134 16.9827H7.6491C7.47581 16.9827 7.4263 16.9827 7.25302 17.0322C7.12924 17.0569 7.00547 17.1312 6.88169 17.2055C6.36184 17.5273 6.06478 18.1709 6.18855 18.765C6.31233 19.3592 6.83218 19.8543 7.45106 19.9285C7.52532 19.9285 7.57483 19.9285 7.6491 19.9533H20.3237C20.3979 19.9533 20.497 19.978 20.5712 19.978C20.6207 19.978 20.6702 20.0028 20.7198 20.0028C21.2396 20.1513 21.6604 20.5969 21.7842 21.1415C21.9328 21.7852 21.5614 22.5278 20.9178 22.8001C20.794 22.8496 20.6702 22.8991 20.5217 22.8991C20.4475 22.8991 20.3979 22.8991 20.3237 22.9239H16.5857C16.4124 22.9239 16.3629 22.9239 16.1896 22.9734C16.0658 22.9982 15.942 23.0724 15.8183 23.1467C15.2984 23.4685 15.0013 24.1121 15.1251 24.7063C15.2489 25.3004 15.7687 25.7955 16.3876 25.8697C16.4619 25.8697 16.5114 25.8697 16.5857 25.8945H36.5877H36.6125C36.6372 25.8945 36.6372 25.8945 36.662 25.8945C36.6868 25.8945 36.7115 25.8945 36.7363 25.8945C36.761 25.8945 36.7858 25.8945 36.8353 25.8945C36.9095 25.8697 37.0086 25.8697 37.0828 25.8202C37.1076 25.8202 37.1323 25.7955 37.1571 25.7707C37.2561 25.7212 37.3304 25.6717 37.4046 25.6222L47.4304 19.8048C47.4799 19.78 47.5295 19.7552 47.579 19.7057C47.7523 19.5572 47.9008 19.3592 47.975 19.1364C48.0246 18.9878 48.0246 18.9383 48.0246 18.7898V7.03116C47.9998 7.03116 47.9998 7.03116 47.9998 7.00641ZM37.0581 2.72379L44.237 6.85788C44.3608 6.93214 44.3608 7.13018 44.237 7.20445L42.826 8.02136C42.5784 8.16989 42.2814 8.16989 42.0586 8.02136L34.9044 3.88727C34.7559 3.78825 34.7559 3.59021 34.9044 3.49119L36.2659 2.69903C36.5135 2.57526 36.8105 2.57526 37.0581 2.72379ZM36.2659 11.3633L29.1117 7.2292C28.9632 7.13018 28.9632 6.93214 29.1117 6.83312L30.4732 6.04096C30.7208 5.89243 31.0178 5.89243 31.2654 6.04096L38.4444 10.175C38.5681 10.2493 38.5681 10.4474 38.4444 10.5216L37.0333 11.3385C36.8105 11.4871 36.5135 11.4871 36.2659 11.3633ZM45.6976 17.8244C45.6976 18.0224 45.5986 18.1957 45.4253 18.2947L38.6176 22.2307C38.2711 22.4288 37.8255 22.1812 37.8255 21.7604V13.8883C37.8255 13.6903 37.9245 13.517 38.0978 13.418L39.9297 12.3535C39.9297 13.715 39.9297 15.6707 39.9297 16.6361C39.9297 16.9084 40.2267 17.0817 40.4495 16.9332L43.2963 15.2993C43.4696 15.2003 43.5934 15.0023 43.5934 14.8042V10.2493L44.9054 9.50666C45.252 9.30862 45.6976 9.55617 45.6976 9.97701V17.8244Z" fill="#00B871"/>
</svg>
