<svg width="29" height="30" viewBox="0 0 29 30" fill="none" xmlns="http://www.w3.org/2000/svg">
<path d="M22.7921 5.30762H5.99812C5.04368 5.30762 4.12834 5.68677 3.45345 6.36165C2.77856 7.03654 2.39941 7.95189 2.39941 8.90632V20.902C2.39941 21.8564 2.77856 22.7718 3.45345 23.4467C4.12834 24.1216 5.04368 24.5007 5.99812 24.5007H22.7921C23.7465 24.5007 24.6619 24.1216 25.3367 23.4467C26.0116 22.7718 26.3908 21.8564 26.3908 20.902V8.90632C26.3908 7.95189 26.0116 7.03654 25.3367 6.36165C24.6619 5.68677 23.7465 5.30762 22.7921 5.30762ZM22.3002 7.70675L15.2468 14.7602C15.1353 14.8726 15.0026 14.9619 14.8564 15.0228C14.7102 15.0837 14.5535 15.115 14.3951 15.115C14.2367 15.115 14.0799 15.0837 13.9338 15.0228C13.7876 14.9619 13.6549 14.8726 13.5434 14.7602L6.48994 7.70675H22.3002ZM23.9916 20.902C23.9916 21.2201 23.8653 21.5253 23.6403 21.7502C23.4153 21.9752 23.1102 22.1016 22.7921 22.1016H5.99812C5.67997 22.1016 5.37486 21.9752 5.1499 21.7502C4.92493 21.5253 4.79855 21.2201 4.79855 20.902V9.39814L11.852 16.4516C12.5268 17.1255 13.4414 17.5041 14.3951 17.5041C15.3488 17.5041 16.2634 17.1255 16.9382 16.4516L23.9916 9.39814V20.902Z" fill="#161E2E"/>
</svg>
