<svg width="14" height="14" viewBox="0 0 14 14" fill="none" xmlns="http://www.w3.org/2000/svg">
<path d="M12.0884 7.17607C12.0094 7.11077 11.9136 7.06896 11.812 7.05542C11.7104 7.04187 11.6071 7.05713 11.5137 7.09945C10.935 7.36428 10.3057 7.50059 9.6693 7.49898C8.49196 7.49756 7.36293 7.03073 6.52838 6.20028C5.69383 5.36983 5.22144 4.24311 5.21422 3.06579C5.21671 2.69682 5.26264 2.32942 5.35105 1.97118C5.36981 1.8757 5.36277 1.77694 5.33066 1.68508C5.29855 1.59322 5.24253 1.51158 5.16838 1.44857C5.09422 1.38557 5.00461 1.34347 4.90877 1.32663C4.81293 1.30978 4.71433 1.31879 4.62313 1.35272C3.76513 1.73853 3.01928 2.3361 2.45566 3.08932C1.89204 3.84254 1.52913 4.72667 1.40105 5.65865C1.27296 6.59064 1.38389 7.53989 1.72342 8.41723C2.06295 9.29458 2.61993 10.0712 3.34205 10.6742C4.06416 11.2771 4.92769 11.6866 5.85153 11.8642C6.77536 12.0418 7.72918 11.9816 8.62337 11.6893C9.51755 11.397 10.3228 10.8822 10.9634 10.1932C11.6039 9.50429 12.0589 8.66381 12.2854 7.75074C12.313 7.64621 12.309 7.53584 12.274 7.43356C12.2389 7.33129 12.1743 7.24169 12.0884 7.17607V7.17607ZM6.88898 10.8376C5.97047 10.8311 5.07641 10.5408 4.32922 10.0066C3.58203 9.47235 3.01824 8.72021 2.71504 7.85316C2.41184 6.98611 2.38406 6.04653 2.63549 5.16308C2.88693 4.27963 3.40529 3.49549 4.1196 2.91802V3.06579C4.12105 4.53722 4.70622 5.94797 5.74667 6.98842C6.78713 8.02888 8.19787 8.61404 9.6693 8.61549C10.0556 8.61691 10.441 8.57654 10.8186 8.49508C10.441 9.2096 9.87534 9.80744 9.18283 10.2241C8.49031 10.6408 7.69718 10.8605 6.88898 10.8594V10.8376Z" fill="#161E2E"/>
</svg>
