<svg width="29" height="30" viewBox="0 0 29 30" fill="none" xmlns="http://www.w3.org/2000/svg">
<path d="M23.4118 16.3829C23.1471 16.3829 22.8704 16.2987 22.6057 16.2385C22.0697 16.1204 21.5429 15.9636 21.0296 15.7693C20.4714 15.5662 19.8579 15.5768 19.307 15.7989C18.7561 16.021 18.3069 16.439 18.0457 16.9724L17.781 17.5139C16.6091 16.862 15.5323 16.0523 14.5806 15.1075C13.6358 14.1559 12.8262 13.079 12.1743 11.9071L12.6796 11.5702C13.213 11.309 13.631 10.8598 13.8531 10.3089C14.0753 9.75808 14.0858 9.14454 13.8828 8.58637C13.6917 8.07192 13.535 7.54539 13.4135 7.01022C13.3534 6.74553 13.3052 6.4688 13.2691 6.19207C13.123 5.34458 12.6791 4.57711 12.0174 4.02786C11.3556 3.47861 10.5195 3.18368 9.65963 3.19618H6.05013C5.5316 3.19131 5.01811 3.29823 4.54462 3.50964C4.07112 3.72106 3.64874 4.03202 3.30622 4.42135C2.96371 4.81067 2.7091 5.26923 2.55973 5.7658C2.41036 6.26238 2.36974 6.7853 2.44063 7.29898C3.0816 12.3395 5.38361 17.0228 8.98303 20.6092C12.5825 24.1955 17.2741 26.4805 22.317 27.1031H22.7742C23.6614 27.1044 24.518 26.7789 25.1805 26.1887C25.5611 25.8483 25.8652 25.4309 26.0726 24.9643C26.28 24.4976 26.386 23.9923 26.3837 23.4816V19.8721C26.3689 19.0363 26.0646 18.2316 25.5226 17.5953C24.9806 16.9589 24.2346 16.5304 23.4118 16.3829ZM24.0134 23.6019C24.0132 23.7727 23.9766 23.9416 23.9061 24.0971C23.8355 24.2527 23.7327 24.3915 23.6043 24.5043C23.4699 24.6203 23.3127 24.7071 23.1428 24.7589C22.9729 24.8107 22.7941 24.8264 22.6177 24.8051C18.1118 24.2273 13.9263 22.1659 10.7217 18.946C7.51703 15.7261 5.47551 11.5309 4.91915 7.02225C4.9 6.84601 4.91679 6.66772 4.96849 6.49814C5.02018 6.32857 5.10573 6.17124 5.21994 6.03566C5.33269 5.90732 5.47148 5.80446 5.62707 5.73392C5.78266 5.66339 5.95149 5.6268 6.12232 5.62658H9.73182C10.0116 5.62035 10.2848 5.71186 10.5044 5.88535C10.724 6.05883 10.8763 6.30345 10.935 6.57708C10.9831 6.90595 11.0433 7.2308 11.1155 7.55165C11.2545 8.18589 11.4394 8.80917 11.6689 9.41656L9.98449 10.1986C9.84046 10.2647 9.71091 10.3586 9.60327 10.4749C9.49563 10.5911 9.41202 10.7275 9.35724 10.8762C9.30246 11.0249 9.27759 11.183 9.28406 11.3413C9.29053 11.4996 9.32821 11.6551 9.39494 11.7988C11.1265 15.5079 14.108 18.4894 17.8171 20.221C18.11 20.3413 18.4386 20.3413 18.7315 20.221C18.8816 20.1673 19.0195 20.0844 19.1372 19.977C19.2549 19.8696 19.3501 19.7399 19.4173 19.5954L20.1633 17.9109C20.7853 18.1334 21.4201 18.3182 22.0643 18.4644C22.3851 18.5366 22.71 18.5967 23.0389 18.6449C23.3125 18.7036 23.5571 18.8558 23.7306 19.0754C23.9041 19.295 23.9956 19.5682 23.9894 19.848L24.0134 23.6019Z" fill="#161E2E"/>
</svg>
