<svg width="128" height="128" viewBox="0 0 128 128" fill="none" xmlns="http://www.w3.org/2000/svg">
<path d="M29.7851 14.8158C54.3789 14.8158 71.2678 2.07629 83.1184 2.07629C94.9691 2.07629 119.858 8.88874 119.858 63.4061C119.858 117.923 86.3753 125.923 73.3407 125.923C12.3024 125.927 -13.7705 14.8158 29.7851 14.8158Z" fill="#F7F7F8"/>
<path d="M45.7778 12.583H52.8889V16.1386H45.7778V12.583Z" fill="#D2D6DC"/>
<path d="M25.3335 12.583H32.4446V16.1386H25.3335V12.583Z" fill="#D2D6DC"/>
<path d="M37.7778 0.138672H41.3334V7.24978H37.7778V0.138672Z" fill="#D2D6DC"/>
<path d="M100.245 62.6667C97.305 62.6667 94.9121 60.2738 94.9121 57.3333C94.9121 54.3929 97.305 52 100.245 52C103.186 52 105.579 54.3929 105.579 57.3333C105.579 60.2738 103.186 62.6667 100.245 62.6667ZM100.245 55.5556C99.2677 55.5556 98.4677 56.3556 98.4677 57.3333C98.4677 58.3111 99.2677 59.1111 100.245 59.1111C101.223 59.1111 102.023 58.3111 102.023 57.3333C102.023 56.3556 101.227 55.5556 100.245 55.5556Z" fill="#D2D6DC"/>
<path d="M69.4402 59.5557H29.3335V72.0001V96.889H41.7779H54.1513H80.8891V72.1779V59.5557H69.4402Z" fill="#F7F7F8"/>
<path d="M89.7776 72.1777H80.8887V96.8888H84.4442H96.814H104V86.4C104 78.5457 97.6318 72.1777 89.7776 72.1777Z" fill="#2FDF84"/>
<path d="M48.0001 104C51.4365 104 54.2223 101.214 54.2223 97.7779C54.2223 94.3414 51.4365 91.5557 48.0001 91.5557C44.5636 91.5557 41.7778 94.3414 41.7778 97.7779C41.7778 101.214 44.5636 104 48.0001 104Z" fill="#F7F7F8"/>
<path d="M90.6666 104C94.103 104 96.8888 101.214 96.8888 97.7779C96.8888 94.3414 94.103 91.5557 90.6666 91.5557C87.2301 91.5557 84.4443 94.3414 84.4443 97.7779C84.4443 101.214 87.2301 104 90.6666 104Z" fill="#F7F7F8"/>
<path d="M54.2222 39.3316C54.2222 51.9573 39.1111 64.8889 39.1111 64.8889C39.1111 64.8889 24 51.9609 24 39.3316C24 30.8658 30.7662 24 39.1111 24C47.456 24 54.2222 30.8658 54.2222 39.3316Z" fill="#2FDF84"/>
<path d="M39.1109 43.5555C41.5655 43.5555 43.5554 41.5657 43.5554 39.1111C43.5554 36.6565 41.5655 34.6666 39.1109 34.6666C36.6563 34.6666 34.6665 36.6565 34.6665 39.1111C34.6665 41.5657 36.6563 43.5555 39.1109 43.5555Z" fill="#F7F7F8"/>
<path d="M37.3335 59.5557H29.3335V72.0001V96.889H37.3335V72.0001V59.5557Z" fill="#D2D6DC"/>
<path d="M80.8887 72.1777V96.8888H84.4442H88.8887V72.1777H80.8887Z" fill="#00B871"/>
<path d="M49.7778 97.7779C49.7778 95.8721 50.6525 94.1903 52.0001 93.049C50.9156 92.1317 49.5325 91.5557 48.0001 91.5557C44.5654 91.5557 41.7778 94.3432 41.7778 97.7779C41.7778 101.213 44.5654 104 48.0001 104C49.5325 104 50.9156 103.424 52.0001 102.507C50.6525 101.365 49.7778 99.6837 49.7778 97.7779Z" fill="#D2D6DC"/>
<path d="M92.4443 97.7779C92.4443 95.8721 93.319 94.1903 94.6666 93.049C93.5821 92.1317 92.199 91.5557 90.6666 91.5557C87.2319 91.5557 84.4443 94.3432 84.4443 97.7779C84.4443 101.213 87.2319 104 90.6666 104C92.199 104 93.5821 103.424 94.6666 102.507C93.319 101.365 92.4443 99.6837 92.4443 97.7779Z" fill="#D2D6DC"/>
<path d="M32 39.3316C32 32.2773 36.7218 26.4 43.1111 24.6116C41.8276 24.2524 40.5049 24 39.1111 24C30.7662 24 24 30.8658 24 39.3316C24 51.9573 39.1111 64.8889 39.1111 64.8889C39.1111 64.8889 40.8391 63.3991 43.1111 60.9707C38.6347 56.192 32 47.7084 32 39.3316Z" fill="#00B871"/>
<path d="M39.1113 67.5556C38.4926 67.5556 37.8739 67.3423 37.3797 66.9156C36.7219 66.3538 21.3335 53.0312 21.3335 39.3316C21.3335 29.408 29.3086 21.3334 39.1113 21.3334C48.9139 21.3334 56.8891 29.408 56.8891 39.3316C56.8891 53.0312 41.5006 66.3538 40.8428 66.9156C40.3486 67.3423 39.7299 67.5556 39.1113 67.5556ZM39.1113 26.6667C32.2491 26.6667 26.6668 32.3485 26.6668 39.3316C26.6668 48.1565 35.3282 57.5609 39.1113 61.248C42.8944 57.5609 51.5557 48.1565 51.5557 39.3316C51.5557 32.3485 45.9735 26.6667 39.1113 26.6667Z" fill="#161E2E"/>
<path d="M39.1111 46.2221C35.1893 46.2221 32 43.0328 32 39.111C32 35.1892 35.1893 31.9999 39.1111 31.9999C43.0329 31.9999 46.2222 35.1892 46.2222 39.111C46.2222 43.0328 43.0329 46.2221 39.1111 46.2221ZM39.1111 37.3332C38.1333 37.3332 37.3333 38.1332 37.3333 39.111C37.3333 40.0888 38.1333 40.8888 39.1111 40.8888C40.0889 40.8888 40.8889 40.0888 40.8889 39.111C40.8889 38.1332 40.0889 37.3332 39.1111 37.3332Z" fill="#161E2E"/>
<path d="M41.7776 99.5554H29.3332C27.8612 99.5554 26.6665 98.3608 26.6665 96.8888V71.9999H31.9998V94.2221H41.7776V99.5554Z" fill="#161E2E"/>
<path d="M80.8887 99.5553H54.1509V94.222H78.222V62.222H56.8887V56.8887H80.8887C82.3607 56.8887 83.5553 58.0833 83.5553 59.5553V96.8887C83.5553 98.3607 82.3607 99.5553 80.8887 99.5553Z" fill="#161E2E"/>
<path d="M104 99.5554H96.8142V94.2221H101.333V86.3999C101.333 80.0283 96.1493 74.8443 89.7777 74.8443H83.5555V94.2221H84.4444V99.5554H80.8888C79.4168 99.5554 78.2222 98.3608 78.2222 96.8888V72.1777C78.2222 70.7057 79.4168 69.511 80.8888 69.511H89.7777C99.0897 69.511 106.667 77.0879 106.667 86.3999V96.8888C106.667 98.3608 105.472 99.5554 104 99.5554Z" fill="#161E2E"/>
<path d="M48.0002 106.666C43.0971 106.666 39.1113 102.681 39.1113 97.7776C39.1113 92.8745 43.0971 88.8887 48.0002 88.8887C52.9033 88.8887 56.8891 92.8745 56.8891 97.7776C56.8891 102.681 52.9033 106.666 48.0002 106.666ZM48.0002 94.222C46.0376 94.222 44.4447 95.8149 44.4447 97.7776C44.4447 99.7402 46.0376 101.333 48.0002 101.333C49.9629 101.333 51.5558 99.7402 51.5558 97.7776C51.5558 95.8149 49.9629 94.222 48.0002 94.222Z" fill="#161E2E"/>
<path d="M90.6667 106.666C85.7636 106.666 81.7778 102.681 81.7778 97.7776C81.7778 92.8745 85.7636 88.8887 90.6667 88.8887C95.5698 88.8887 99.5556 92.8745 99.5556 97.7776C99.5556 102.681 95.5698 106.666 90.6667 106.666ZM90.6667 94.222C88.7041 94.222 87.1112 95.8149 87.1112 97.7776C87.1112 99.7402 88.7041 101.333 90.6667 101.333C92.6294 101.333 94.2223 99.7402 94.2223 97.7776C94.2223 95.8149 92.6294 94.222 90.6667 94.222Z" fill="#161E2E"/>
</svg>
