<svg width="128" height="128" viewBox="0 0 128 128" fill="none" xmlns="http://www.w3.org/2000/svg">
<path d="M124.103 72.3733C110.656 51.7831 112.085 30.6773 105.604 20.7538C99.1219 10.8302 79.8045 -6.27913 34.1619 23.5342C-11.4808 53.3475 0.128094 85.7564 7.26054 96.6684C40.6401 147.769 147.922 108.839 124.103 72.3733Z" fill="#F7F7F8"/>
<path d="M20.2622 11.5137L25.2905 6.48536L27.8047 8.99951L22.7764 14.0278L20.2622 11.5137Z" fill="#D2D6DC"/>
<path d="M5.80518 25.9683L10.8335 20.9399L13.3476 23.4541L8.31933 28.4824L5.80518 25.9683Z" fill="#D2D6DC"/>
<path d="M5.80615 8.36865L8.32031 5.85449L13.3486 10.8828L10.8345 13.397L5.80615 8.36865Z" fill="#D2D6DC"/>
<path d="M96.8885 60.8747C93.9481 60.8747 91.5552 58.4818 91.5552 55.5413C91.5552 52.6009 93.9481 50.208 96.8885 50.208C99.829 50.208 102.222 52.6009 102.222 55.5413C102.222 58.4818 99.829 60.8747 96.8885 60.8747ZM96.8885 53.7636C95.9107 53.7636 95.1107 54.56 95.1107 55.5413C95.1107 56.5227 95.9107 57.3191 96.8885 57.3191C97.8663 57.3191 98.6663 56.5227 98.6663 55.5413C98.6663 54.56 97.8663 53.7636 96.8885 53.7636Z" fill="#D2D6DC"/>
<path d="M69.4397 59.5557H29.333V72.0001V96.889H41.7775H54.1508H80.8886V72.1779V59.5557H69.4397Z" fill="#F7F7F8"/>
<path d="M89.778 72.1777H80.8892V96.8888H84.4447H96.8145H104V86.4C104 78.5457 97.6323 72.1777 89.778 72.1777Z" fill="#2FDF84"/>
<path d="M48.0001 104C51.4365 104 54.2223 101.214 54.2223 97.7779C54.2223 94.3414 51.4365 91.5557 48.0001 91.5557C44.5636 91.5557 41.7778 94.3414 41.7778 97.7779C41.7778 101.214 44.5636 104 48.0001 104Z" fill="#F7F7F8"/>
<path d="M90.6666 104C94.103 104 96.8888 101.214 96.8888 97.7779C96.8888 94.3414 94.103 91.5557 90.6666 91.5557C87.2301 91.5557 84.4443 94.3414 84.4443 97.7779C84.4443 101.214 87.2301 104 90.6666 104Z" fill="#F7F7F8"/>
<path d="M57.7778 61.3333H27.5556C25.5929 61.3333 24 59.7404 24 57.7778V27.5556C24 25.5929 25.5929 24 27.5556 24H57.7778C59.7404 24 61.3333 25.5929 61.3333 27.5556V57.7778C61.3333 59.7404 59.7404 61.3333 57.7778 61.3333Z" fill="#2FDF84"/>
<path d="M38.2222 24H47.1111V36.4444H38.2222V24Z" fill="#2FDF84"/>
<path d="M37.333 59.5557H29.333V72.0001V96.889H37.333V72.0001V59.5557Z" fill="#D2D6DC"/>
<path d="M80.8892 72.1777V96.8888H84.4447H88.8892V72.1777H80.8892Z" fill="#00B871"/>
<path d="M49.7778 97.7779C49.7778 95.8721 50.6525 94.1903 52.0001 93.049C50.9156 92.1317 49.5325 91.5557 48.0001 91.5557C44.5654 91.5557 41.7778 94.3432 41.7778 97.7779C41.7778 101.213 44.5654 104 48.0001 104C49.5325 104 50.9156 103.424 52.0001 102.507C50.6525 101.365 49.7778 99.6837 49.7778 97.7779Z" fill="#D2D6DC"/>
<path d="M92.4443 97.7779C92.4443 95.8721 93.319 94.1903 94.6666 93.049C93.5821 92.1317 92.199 91.5557 90.6666 91.5557C87.2319 91.5557 84.4443 94.3432 84.4443 97.7779C84.4443 101.213 87.2319 104 90.6666 104C92.199 104 93.5821 103.424 94.6666 102.507C93.319 101.365 92.4443 99.6837 92.4443 97.7779Z" fill="#D2D6DC"/>
<path d="M32 57.7778V27.5556C32 25.5929 33.5929 24 35.5556 24H27.5556C25.5929 24 24 25.5929 24 27.5556V57.7778C24 59.7404 25.5929 61.3333 27.5556 61.3333H35.5556C33.5929 61.3333 32 59.7404 32 57.7778Z" fill="#00B871"/>
<path d="M57.7775 63.9997H27.5552C24.1241 63.9997 21.333 61.2086 21.333 57.7775V27.5552C21.333 24.1241 24.1241 21.333 27.5552 21.333H57.7775C61.2086 21.333 63.9997 24.1241 63.9997 27.5552V57.7775C63.9997 61.2086 61.2086 63.9997 57.7775 63.9997ZM27.5552 26.6663C27.0646 26.6663 26.6663 27.0646 26.6663 27.5552V57.7775C26.6663 58.2681 27.0646 58.6663 27.5552 58.6663H57.7775C58.2681 58.6663 58.6663 58.2681 58.6663 57.7775V27.5552C58.6663 27.0646 58.2681 26.6663 57.7775 26.6663H27.5552Z" fill="#161E2E"/>
<path d="M47.1112 39.1108H38.2223C36.7503 39.1108 35.5557 37.9161 35.5557 36.4441V23.9997C35.5557 22.5277 36.7503 21.333 38.2223 21.333H47.1112C48.5832 21.333 49.7779 22.5277 49.7779 23.9997V36.4441C49.7779 37.9161 48.5832 39.1108 47.1112 39.1108ZM40.889 33.7775H44.4446V26.6663H40.889V33.7775Z" fill="#161E2E"/>
<path d="M47.1108 49.7778H54.222V55.1112H47.1108V49.7778Z" fill="#161E2E"/>
<path d="M44.4448 99.5552H29.3337C27.8617 99.5552 26.667 98.3606 26.667 96.8886V69.333H32.0003V94.2219H44.4448V99.5552Z" fill="#161E2E"/>
<path d="M80.8888 99.5558H51.4844V94.2225H78.2222V62.2225H69.2266V56.8892H80.8888C82.3608 56.8892 83.5555 58.0838 83.5555 59.5558V96.8892C83.5555 98.3612 82.3608 99.5558 80.8888 99.5558Z" fill="#161E2E"/>
<path d="M104 99.5557H94.1475V94.2223H101.333V86.4001C101.333 80.0286 96.1493 74.8446 89.7777 74.8446H83.5555V94.2223H87.1111V99.5557H80.8888C79.4168 99.5557 78.2222 98.361 78.2222 96.889V72.1779C78.2222 70.7059 79.4168 69.5112 80.8888 69.5112H89.7777C99.0897 69.5112 106.667 77.0881 106.667 86.4001V96.889C106.667 98.361 105.472 99.5557 104 99.5557Z" fill="#161E2E"/>
<path d="M47.9997 106.667C43.0966 106.667 39.1108 102.678 39.1108 97.778C39.1108 92.8785 43.0966 88.8892 47.9997 88.8892C52.9028 88.8892 56.8886 92.8785 56.8886 97.778C56.8886 102.678 52.9028 106.667 47.9997 106.667ZM47.9997 94.2225C46.0371 94.2225 44.4442 95.8189 44.4442 97.778C44.4442 99.7372 46.0371 101.334 47.9997 101.334C49.9624 101.334 51.5553 99.7372 51.5553 97.778C51.5553 95.8189 49.9624 94.2225 47.9997 94.2225Z" fill="#161E2E"/>
<path d="M90.6667 106.667C85.7636 106.667 81.7778 102.678 81.7778 97.778C81.7778 92.8785 85.7636 88.8892 90.6667 88.8892C95.5698 88.8892 99.5556 92.8785 99.5556 97.778C99.5556 102.678 95.5698 106.667 90.6667 106.667ZM90.6667 94.2225C88.7041 94.2225 87.1112 95.8189 87.1112 97.778C87.1112 99.7372 88.7041 101.334 90.6667 101.334C92.6294 101.334 94.2223 99.7372 94.2223 97.778C94.2223 95.8189 92.6294 94.2225 90.6667 94.2225Z" fill="#161E2E"/>
</svg>
