<svg width="14" height="14" viewBox="0 0 14 14" fill="none" xmlns="http://www.w3.org/2000/svg">
<path d="M3.21687 6.62883C3.21687 6.48368 3.15921 6.34447 3.05657 6.24183C2.95393 6.13919 2.81472 6.08153 2.66957 6.08153H2.12226C1.9771 6.08153 1.83789 6.13919 1.73525 6.24183C1.63261 6.34447 1.57495 6.48368 1.57495 6.62883C1.57495 6.77399 1.63261 6.9132 1.73525 7.01584C1.83789 7.11848 1.9771 7.17614 2.12226 7.17614H2.66957C2.81472 7.17614 2.95393 7.11848 3.05657 7.01584C3.15921 6.9132 3.21687 6.77399 3.21687 6.62883ZM3.56715 9.36537L3.17856 9.75396C3.07662 9.8565 3.01941 9.99522 3.01941 10.1398C3.01941 10.2844 3.07662 10.4231 3.17856 10.5257C3.28111 10.6276 3.41982 10.6848 3.56441 10.6848C3.709 10.6848 3.84772 10.6276 3.95026 10.5257L4.33885 10.1371C4.42852 10.0324 4.47537 9.89769 4.47005 9.75995C4.46473 9.6222 4.40763 9.49154 4.31015 9.39407C4.21268 9.2966 4.08202 9.23949 3.94427 9.23417C3.80653 9.22885 3.67185 9.27571 3.56715 9.36537V9.36537ZM7.04802 2.79768C7.19318 2.79768 7.33239 2.74002 7.43503 2.63738C7.53767 2.53474 7.59533 2.39553 7.59533 2.25038V1.70307C7.59533 1.55791 7.53767 1.4187 7.43503 1.31606C7.33239 1.21342 7.19318 1.15576 7.04802 1.15576C6.90287 1.15576 6.76366 1.21342 6.66102 1.31606C6.55838 1.4187 6.50072 1.55791 6.50072 1.70307V2.25038C6.50072 2.39553 6.55838 2.53474 6.66102 2.63738C6.76366 2.74002 6.90287 2.79768 7.04802 2.79768ZM10.1458 4.07838C10.2894 4.07778 10.427 4.02077 10.5289 3.91966L10.9175 3.53107C10.9748 3.48201 11.0213 3.42163 11.0542 3.35373C11.087 3.28583 11.1055 3.21187 11.1084 3.1365C11.1113 3.06112 11.0986 2.98596 11.0711 2.91572C11.0436 2.84549 11.0018 2.7817 10.9485 2.72837C10.8952 2.67503 10.8314 2.63329 10.7611 2.60578C10.6909 2.57826 10.6157 2.56556 10.5404 2.56847C10.465 2.57138 10.391 2.58984 10.3231 2.6227C10.2552 2.65555 10.1948 2.70208 10.1458 2.75937L9.78456 3.14796C9.68262 3.2505 9.62541 3.38922 9.62541 3.53381C9.62541 3.6784 9.68262 3.81712 9.78456 3.91966C9.88104 4.01564 10.0098 4.07223 10.1458 4.07838V4.07838ZM3.5781 3.91966C3.68004 4.02077 3.81763 4.07778 3.96121 4.07838C4.03324 4.0788 4.10464 4.06499 4.17133 4.03776C4.23801 4.01052 4.29866 3.97039 4.3498 3.91966C4.45173 3.81712 4.50895 3.6784 4.50895 3.53381C4.50895 3.38922 4.45173 3.2505 4.3498 3.14796L3.96121 2.75937C3.91054 2.70798 3.85024 2.66708 3.78376 2.63899C3.71728 2.6109 3.64592 2.59618 3.57376 2.59568C3.50159 2.59517 3.43003 2.60888 3.36316 2.63603C3.29629 2.66318 3.23542 2.70323 3.18403 2.7539C3.13264 2.80457 3.09174 2.86487 3.06365 2.93135C3.03556 2.99782 3.02085 3.06919 3.02034 3.14135C3.01931 3.2871 3.07623 3.42729 3.17856 3.53107L3.5781 3.91966ZM11.9738 6.08153H11.4265C11.2813 6.08153 11.1421 6.13919 11.0395 6.24183C10.9368 6.34447 10.8792 6.48368 10.8792 6.62883C10.8792 6.77399 10.9368 6.9132 11.0395 7.01584C11.1421 7.11848 11.2813 7.17614 11.4265 7.17614H11.9738C12.1189 7.17614 12.2582 7.11848 12.3608 7.01584C12.4634 6.9132 12.5211 6.77399 12.5211 6.62883C12.5211 6.48368 12.4634 6.34447 12.3608 6.24183C12.2582 6.13919 12.1189 6.08153 11.9738 6.08153ZM10.5289 9.36537C10.4249 9.30753 10.3049 9.28516 10.1871 9.30163C10.0692 9.3181 9.95998 9.37253 9.87585 9.45666C9.79171 9.54079 9.73729 9.65005 9.72082 9.76789C9.70434 9.88573 9.72672 10.0057 9.78456 10.1097L10.1731 10.4983C10.2757 10.6002 10.4144 10.6574 10.559 10.6574C10.7036 10.6574 10.8423 10.6002 10.9448 10.4983C11.0468 10.3957 11.104 10.257 11.104 10.1124C11.104 9.96785 11.0468 9.82914 10.9448 9.72659L10.5289 9.36537ZM7.04802 3.61864C6.45266 3.61864 5.87067 3.79519 5.37565 4.12595C4.88063 4.45672 4.4948 4.92684 4.26697 5.47688C4.03914 6.02692 3.97952 6.63217 4.09567 7.21609C4.21182 7.80001 4.49851 8.33638 4.9195 8.75736C5.34048 9.17834 5.87684 9.46503 6.46076 9.58118C7.04468 9.69733 7.64993 9.63772 8.19997 9.40989C8.75001 9.18205 9.22014 8.79623 9.5509 8.3012C9.88167 7.80618 10.0582 7.22419 10.0582 6.62883C10.0568 5.83093 9.73916 5.06611 9.17495 4.50191C8.61074 3.9377 7.84593 3.62009 7.04802 3.61864ZM7.04802 8.54441C6.66916 8.54441 6.2988 8.43206 5.98379 8.22158C5.66877 8.01109 5.42325 7.71192 5.27826 7.36189C5.13328 7.01187 5.09534 6.62671 5.16925 6.25512C5.24317 5.88354 5.42561 5.54222 5.69351 5.27432C5.9614 5.00642 6.30273 4.82398 6.67431 4.75007C7.0459 4.67615 7.43106 4.71409 7.78108 4.85907C8.13111 5.00406 8.43028 5.24958 8.64076 5.5646C8.85125 5.87961 8.9636 6.24997 8.9636 6.62883C8.9636 7.13688 8.76178 7.62411 8.40254 7.98335C8.0433 8.34259 7.55606 8.54441 7.04802 8.54441V8.54441ZM7.04802 10.46C6.90287 10.46 6.76366 10.5176 6.66102 10.6203C6.55838 10.7229 6.50072 10.8621 6.50072 11.0073V11.5546C6.50072 11.6998 6.55838 11.839 6.66102 11.9416C6.76366 12.0442 6.90287 12.1019 7.04802 12.1019C7.19318 12.1019 7.33239 12.0442 7.43503 11.9416C7.53767 11.839 7.59533 11.6998 7.59533 11.5546V11.0073C7.59533 10.8621 7.53767 10.7229 7.43503 10.6203C7.33239 10.5176 7.19318 10.46 7.04802 10.46Z" fill="black"/>
</svg>
