<svg width="24" height="25" viewBox="0 0 24 25" fill="none" xmlns="http://www.w3.org/2000/svg">
<path d="M22.9912 4.24952C22.9913 4.07289 22.9446 3.89938 22.8558 3.74667C22.7671 3.59395 22.6394 3.46749 22.4859 3.38015C22.3324 3.29282 22.1584 3.24773 21.9818 3.24949C21.8052 3.25124 21.6322 3.29977 21.4804 3.39014C20.8951 3.73853 20.265 4.00533 19.6074 4.18314C18.6684 3.37737 17.4708 2.93645 16.2334 2.94095C14.876 2.94251 13.5723 3.47155 12.5976 4.41633C11.623 5.36112 11.0536 6.64771 11.0098 8.00443C8.33378 7.57769 5.90843 6.18096 4.19625 4.08057C4.09308 3.95541 3.96133 3.85689 3.81211 3.79332C3.66288 3.72975 3.50056 3.703 3.33883 3.71532C3.17719 3.72863 3.02122 3.78111 2.88442 3.86823C2.74762 3.95535 2.63409 4.07448 2.55367 4.21532C2.1412 4.93513 1.9043 5.74208 1.86222 6.57063C1.82014 7.39918 1.97406 8.22597 2.31148 8.98387L2.30953 8.98582C2.15788 9.07923 2.03272 9.20998 1.94603 9.36557C1.85935 9.52116 1.81403 9.69639 1.81441 9.8745C1.81257 10.0214 1.82139 10.1683 1.84078 10.314C1.94292 11.5722 2.50056 12.75 3.40914 13.6265C3.3475 13.7439 3.30988 13.8724 3.29848 14.0045C3.28708 14.1367 3.30212 14.2697 3.34273 14.396C3.73884 15.6301 4.58123 16.672 5.70504 17.3179C4.56328 17.7594 3.33046 17.9133 2.11519 17.7661C1.89026 17.7379 1.66242 17.7869 1.46904 17.9052C1.27566 18.0235 1.12822 18.204 1.0509 18.4171C0.973592 18.6302 0.970999 18.8633 1.04355 19.078C1.1161 19.2928 1.25949 19.4765 1.45019 19.5991C3.54028 20.9453 5.97387 21.661 8.45996 21.6607C11.2792 21.6924 14.0299 20.7915 16.2842 19.0981C18.5385 17.4047 20.1699 15.0138 20.9248 12.2973C21.2778 11.114 21.4581 9.88579 21.46 8.65088C21.46 8.58545 21.46 8.51807 21.459 8.45069C21.9811 7.88762 22.3855 7.22599 22.6486 6.50459C22.9117 5.78318 23.0282 5.01652 22.9912 4.24952ZM19.6845 7.46143C19.5194 7.65678 19.4358 7.90823 19.4511 8.16358C19.4609 8.32858 19.4599 8.49458 19.4599 8.65088C19.4579 9.69442 19.3049 10.7322 19.0058 11.7319C18.3893 14.0433 17.015 16.081 15.1029 17.5185C13.1908 18.9561 10.8516 19.7104 8.45996 19.6607C7.60084 19.6609 6.74468 19.56 5.90918 19.3599C6.97459 19.0165 7.97077 18.4872 8.85156 17.7964C9.01378 17.6687 9.13251 17.4939 9.19145 17.296C9.25038 17.0981 9.24664 16.8868 9.18073 16.6911C9.11483 16.4955 8.98999 16.325 8.82334 16.2031C8.65669 16.0812 8.4564 16.0138 8.24996 16.0103C7.41879 15.9973 6.62509 15.6623 6.03609 15.0757C6.18551 15.0474 6.33395 15.0122 6.48141 14.9702C6.69742 14.9087 6.88645 14.7763 7.01807 14.5944C7.14969 14.4124 7.21623 14.1914 7.20698 13.967C7.19773 13.7426 7.11324 13.5278 6.96709 13.3573C6.82095 13.1868 6.62167 13.0704 6.40133 13.0269C5.91887 12.9316 5.46487 12.7263 5.07464 12.427C4.68441 12.1278 4.36845 11.7425 4.15133 11.3013C4.33206 11.3259 4.51394 11.3413 4.69625 11.3472C4.91283 11.3504 5.12484 11.2847 5.30162 11.1596C5.47841 11.0344 5.6108 10.8563 5.67965 10.6509C5.74563 10.4436 5.74223 10.2205 5.66998 10.0154C5.59772 9.81028 5.46055 9.6343 5.27926 9.51416C4.83941 9.22113 4.4791 8.82358 4.23061 8.35712C3.98213 7.89065 3.85322 7.36984 3.85543 6.84132C3.85543 6.77492 3.85738 6.70851 3.86129 6.64308C6.10255 8.73334 9.00961 9.96553 12.0703 10.1226C12.2248 10.1287 12.3786 10.0996 12.5202 10.0375C12.6618 9.97539 12.7875 9.88193 12.8877 9.76417C12.9869 9.64528 13.0571 9.50498 13.0928 9.35433C13.1286 9.20368 13.1289 9.04679 13.0937 8.89601C13.0365 8.65738 13.0073 8.41288 13.0068 8.16749C13.0077 7.31203 13.3479 6.49186 13.9528 5.88696C14.5577 5.28205 15.3779 4.94182 16.2334 4.94092C16.6735 4.93974 17.1091 5.02982 17.5127 5.20547C17.9162 5.38112 18.279 5.63852 18.5781 5.96143C18.6934 6.08551 18.8386 6.17803 18.9998 6.23017C19.161 6.28231 19.3328 6.29234 19.499 6.25932C19.9097 6.17938 20.3146 6.07171 20.7109 5.93706C20.4406 6.49003 20.0952 7.00301 19.6845 7.46143Z" fill="#F4FBF7"/>
</svg>
