<svg width="23" height="20" viewBox="0 0 23 20" fill="none" xmlns="http://www.w3.org/2000/svg">
<path d="M22.9912 2.24952C22.9913 2.07289 22.9446 1.89938 22.8558 1.74667C22.7671 1.59395 22.6394 1.46749 22.4859 1.38015C22.3324 1.29282 22.1584 1.24773 21.9818 1.24949C21.8052 1.25124 21.6322 1.29977 21.4804 1.39014C20.8951 1.73853 20.265 2.00533 19.6074 2.18314C18.6684 1.37737 17.4708 0.936446 16.2334 0.940952C14.876 0.942515 13.5723 1.47155 12.5976 2.41633C11.623 3.36112 11.0536 4.64771 11.0098 6.00443C8.33378 5.57769 5.90843 4.18096 4.19625 2.08057C4.09308 1.95541 3.96133 1.85689 3.81211 1.79332C3.66288 1.72975 3.50056 1.703 3.33883 1.71532C3.17719 1.72863 3.02122 1.78111 2.88442 1.86823C2.74762 1.95535 2.63409 2.07448 2.55367 2.21532C2.1412 2.93513 1.9043 3.74208 1.86222 4.57063C1.82014 5.39918 1.97406 6.22597 2.31148 6.98387L2.30953 6.98582C2.15788 7.07923 2.03272 7.20998 1.94603 7.36557C1.85935 7.52116 1.81403 7.69639 1.81441 7.8745C1.81257 8.02143 1.82139 8.1683 1.84078 8.31395C1.94292 9.57222 2.50056 10.75 3.40914 11.6265C3.3475 11.7439 3.30988 11.8724 3.29848 12.0045C3.28708 12.1367 3.30212 12.2697 3.34273 12.396C3.73884 13.6301 4.58123 14.672 5.70504 15.3179C4.56328 15.7594 3.33046 15.9133 2.11519 15.7661C1.89026 15.7379 1.66242 15.7869 1.46904 15.9052C1.27566 16.0235 1.12822 16.204 1.0509 16.4171C0.973592 16.6302 0.970999 16.8633 1.04355 17.078C1.1161 17.2928 1.25949 17.4765 1.45019 17.5991C3.54028 18.9453 5.97387 19.661 8.45996 19.6607C11.2792 19.6924 14.0299 18.7915 16.2842 17.0981C18.5385 15.4047 20.1699 13.0138 20.9248 10.2973C21.2778 9.11396 21.4581 7.88579 21.46 6.65088C21.46 6.58545 21.46 6.51807 21.459 6.45069C21.9811 5.88762 22.3855 5.22599 22.6486 4.50459C22.9117 3.78318 23.0282 3.01652 22.9912 2.24952V2.24952ZM19.6845 5.46143C19.5194 5.65678 19.4358 5.90823 19.4511 6.16358C19.4609 6.32858 19.4599 6.49458 19.4599 6.65088C19.4579 7.69442 19.3049 8.73218 19.0058 9.73194C18.3893 12.0433 17.015 14.081 15.1029 15.5185C13.1908 16.9561 10.8516 17.7104 8.45996 17.6607C7.60084 17.6609 6.74468 17.56 5.90918 17.3599C6.97459 17.0165 7.97077 16.4872 8.85156 15.7964C9.01378 15.6687 9.13251 15.4939 9.19145 15.296C9.25038 15.0981 9.24664 14.8868 9.18073 14.6911C9.11483 14.4955 8.98999 14.325 8.82334 14.2031C8.65669 14.0812 8.4564 14.0138 8.24996 14.0103C7.41879 13.9973 6.62509 13.6623 6.03609 13.0757C6.18551 13.0474 6.33395 13.0122 6.48141 12.9702C6.69742 12.9087 6.88645 12.7763 7.01807 12.5944C7.14969 12.4124 7.21623 12.1914 7.20698 11.967C7.19773 11.7426 7.11324 11.5278 6.96709 11.3573C6.82095 11.1868 6.62167 11.0704 6.40133 11.0269C5.91887 10.9316 5.46487 10.7263 5.07464 10.427C4.68441 10.1278 4.36845 9.74253 4.15133 9.30127C4.33206 9.32594 4.51394 9.34126 4.69625 9.34717C4.91283 9.35044 5.12484 9.28475 5.30162 9.15958C5.47841 9.03441 5.6108 8.85626 5.67965 8.65088C5.74563 8.44365 5.74223 8.22055 5.66998 8.01541C5.59772 7.81028 5.46055 7.6343 5.27926 7.51416C4.83941 7.22113 4.4791 6.82358 4.23061 6.35712C3.98213 5.89065 3.85322 5.36984 3.85543 4.84132C3.85543 4.77492 3.85738 4.70851 3.86129 4.64308C6.10255 6.73334 9.00961 7.96553 12.0703 8.12257C12.2248 8.12866 12.3786 8.09956 12.5202 8.03747C12.6618 7.97538 12.7875 7.88193 12.8877 7.76417C12.9869 7.64528 13.0571 7.50498 13.0928 7.35433C13.1286 7.20368 13.1289 7.04679 13.0937 6.89601C13.0365 6.65738 13.0073 6.41288 13.0068 6.16749C13.0077 5.31203 13.3479 4.49186 13.9528 3.88696C14.5577 3.28206 15.3779 2.94182 16.2334 2.94092C16.6735 2.93974 17.1091 3.02982 17.5127 3.20547C17.9162 3.38112 18.279 3.63852 18.5781 3.96143C18.6934 4.08551 18.8386 4.17803 18.9998 4.23017C19.161 4.28231 19.3328 4.29234 19.499 4.25932C19.9097 4.17938 20.3146 4.07171 20.7109 3.93706C20.4406 4.49003 20.0952 5.00301 19.6845 5.46143V5.46143Z" fill="#161E2E"/>
</svg>
